<?xml version="1.0" encoding="UTF-8" standalone="no"?>
<svg width="395px" height="360px" viewBox="0 0 395 360" version="1.1" xmlns="http://www.w3.org/2000/svg" xmlns:xlink="http://www.w3.org/1999/xlink" xmlns:sketch="http://www.bohemiancoding.com/sketch/ns">
    <!-- Generator: Sketch 3.2.2 (9983) - http://www.bohemiancoding.com/sketch -->
    <title>block-1</title>
    <desc>Created with Sketch.</desc>
    <defs>
        <circle id="path-1" cx="50" cy="50" r="50"></circle>
    </defs>
    <g id="Welcome" stroke="none" stroke-width="1" fill="none" fill-rule="evenodd" sketch:type="MSPage">
        <g id="Desktop-HD-2" sketch:type="MSArtboardGroup" transform="translate(-828.000000, -961.000000)">
            <g id="Oval-69-+-New-Mask-Group" sketch:type="MSLayerGroup" transform="translate(830.000000, 1125.000000)">
                <circle id="Oval-69" fill="#00A885" sketch:type="MSShapeGroup" cx="50" cy="50" r="50"></circle>
                <g id="tree-icon-2" transform="translate(49.000000, 59.000000) rotate(9.000000) translate(-49.000000, -59.000000) translate(19.000000, 36.000000)" sketch:type="MSShapeGroup">
                    <path d="M0.333163572,0.868055942 C0.333163572,0.868055942 2.56866114,23.6265675 8.32070081,29.3020568 C14.0727405,34.9775461 23.3986394,34.9775461 29.1506791,29.3020568 C34.9027187,23.6265675 34.9027187,14.4247813 29.1506791,8.74929196 C23.3986394,3.07380265 0.333163572,0.868055942 0.333163572,0.868055942 L0.333163572,0.868055942 Z" id="Oval-45" fill="#FFFFFF"></path>
                    <path d="M59.3835456,8.37795105 C59.3835456,8.37795105 42.4797582,9.71252289 38.1979755,13.8276218 C33.9161929,17.9427207 33.7970962,24.7331416 37.9319657,28.9944512 C42.0668351,33.2557609 48.8898798,33.3742881 53.1716625,29.2591892 C57.4534451,25.1440903 59.3835456,8.37795105 59.3835456,8.37795105 L59.3835456,8.37795105 Z" id="Oval-46" fill="#FFFFFF"></path>
                    <path d="M43.0352449,24.7301989 C43.0352449,24.7301989 40.6343904,26.198496 38.0055391,32.4951879 C35.3766879,38.7918798 36.7676225,45.4539474 36.7676225,45.4539474" id="Line" stroke="#FFFFFF" stroke-width="2" stroke-linecap="round"></path>
                    <path d="M36.0027149,42.9038226 C34.7686009,34.3537873 28.5848623,27.9149305 28.5848623,27.9149305" id="Line-25" stroke="#FFFFFF" stroke-width="2" stroke-linecap="round"></path>
                </g>
                <g id="New-Mask-Group">
                    <mask id="mask-2" sketch:name="Mask" fill="white">
                        <use xlink:href="#path-1"></use>
                    </mask>
                    <use id="Mask" sketch:type="MSShapeGroup" xlink:href="#path-1"></use>
                    <path d="M-142.21875,180.078125 C-142.21875,180.078125 -31.2167969,83.4511714 49.7832031,83.4511714 C130.783203,83.4511714 132.421478,164.185546 196.849609,164.185546 C261.27774,164.185546 371.828125,59.5234371 457.773438,59.523437 C543.71875,59.5234369 592.317078,175.826666 592.317078,180.078125 C592.317078,184.329582 -142.21875,180.078125 -142.21875,180.078125 Z" id="Rectangle-21" fill-opacity="0.2" fill="#222837" sketch:type="MSShapeGroup" mask="url(#mask-2)"></path>
                </g>
            </g>
            <g id="Oval-70-+-New-Mask-Group" sketch:type="MSLayerGroup" transform="translate(1121.000000, 1125.000000)">
                <circle id="Oval-70" fill="#FA5D60" sketch:type="MSShapeGroup" cx="50" cy="50" r="50"></circle>
                <g id="Imported-Layers-3" transform="translate(29.000000, 29.000000)" fill="#FFFFFF" sketch:type="MSShapeGroup">
                    <path d="M6.48743333,31.482 C6.43976667,31.5886667 6.41048571,31.7006667 6.4077619,31.8153333 C6.4077619,31.8253333 6.4050381,31.8333333 6.4050381,31.8333333 C6.4050381,32.492 7.15817143,33.0233333 8.08630952,33.0233333 C9.01444762,33.0233333 9.76758095,32.4893333 9.76758095,31.8333333 C9.76758095,31.2366667 9.14791429,30.7473333 8.34166667,30.6613333 C8.90549524,30.232 10.2033905,30.1846667 10.2033905,30.1846667 C7.51975714,29.268 6.71350952,30.7633333 6.48743333,31.482 L6.48743333,31.482 Z" id="Fill-1"></path>
                    <path d="M34.3615381,30.1846667 C34.3615381,30.1846667 35.6594333,30.232 36.2232619,30.6613333 C35.4176952,30.7473333 34.7980286,31.2393333 34.7980286,31.8333333 C34.7980286,32.492 35.550481,33.0233333 36.478619,33.0233333 C37.4074381,33.0233333 38.1598905,32.4893333 38.1598905,31.8333333 C38.1598905,31.8333333 38.1598905,31.8253333 38.1571667,31.8153333 C38.1544429,31.698 38.1224381,31.586 38.0774952,31.482 C37.8541429,30.7633333 37.0478952,29.268 34.3615381,30.1846667 L34.3615381,30.1846667 Z" id="Fill-2"></path>
                    <path d="M37.1888524,25.6146667 C35.3673048,21.388 33.4701714,16.448 33.4701714,15.5206667 C33.4701714,15.3253333 33.4810667,15.146 33.4946857,14.9846667 C34.5692286,15.6513333 35.8242238,16.0153333 37.1228,16.0153333 C40.8598667,16.0153333 43.900319,13.0393333 43.900319,9.38 C43.900319,8.83333333 43.5169429,8.35933333 42.9742238,8.22933333 L28.9806524,4.89066667 C29.2278381,4.682 29.5335857,4.45866667 29.8209476,4.284 C30.2785476,4.01066667 30.4964524,3.47666667 30.358219,2.97133333 C30.2227095,2.466 29.7623857,2.10666667 29.2278381,2.09133333 C27.7597048,2.044 26.1288238,2.51533333 24.8411429,3.02066667 C25.0222762,2.66933333 25.2061333,2.39333333 25.3232571,2.242 C25.6290048,1.854 25.6582857,1.318 25.3947571,0.898666667 C25.1312286,0.479333333 24.6341333,0.263333333 24.139081,0.354 C21.6576905,0.81 18.8807667,2.68 17.6489238,3.58333333 C15.2867,2.52866667 11.969781,2.40333333 10.5520381,2.40333333 C10.3736286,2.40333333 10.2755714,2.406 10.2755714,2.406 C9.61845238,2.422 9.09411905,2.948 9.09411905,3.59133333 C9.09411905,4.23466667 9.61845238,4.76066667 10.2755714,4.776 C10.9939762,4.794 11.6851429,5.206 12.2435238,5.68733333 L1.58525714,8.22933333 C1.0425381,8.35933333 0.662566667,8.83333333 0.662566667,9.38 C0.662566667,13.0393333 3.70301905,16.0153333 7.44008571,16.0153333 C8.73798095,16.0153333 9.99365714,15.6513333 11.0682,14.9846667 C11.0838619,15.146 11.0920333,15.3253333 11.0920333,15.5206667 C11.0920333,16.448 9.19830476,21.388 7.37335238,25.6146667 C4.51948095,26.9033333 2.5324619,29.724 2.5324619,32.9973333 C2.5324619,34.6273333 3.02206667,36.2006667 3.96859048,37.57 L8.74887619,43.354 L8.9218381,43.5653333 C9.49588095,44.1926667 10.3205143,44.552 11.1798762,44.552 C11.7355333,44.552 12.2782524,44.4033333 12.7521952,44.1226667 L12.8557,44.0546667 C13.0872238,43.9793333 13.6136,43.818 14.3905667,43.6353333 C17.0265333,47.1666667 17.9226667,48.0546667 18.3646048,48.3253333 L18.4524476,48.396 C19.5133714,49.19 20.8650619,49.6326667 22.2562476,49.638 L22.2691857,49.638 L22.2902952,49.638 L22.3039143,49.638 C23.6978238,49.63 25.0461095,49.19 26.1369952,48.3726667 L26.198281,48.3226667 C26.6422619,48.0493333 27.5383952,47.1613333 30.1695952,43.6353333 C30.945881,43.818 31.4729381,43.9793333 31.7044619,44.0546667 L31.8079667,44.1226667 C32.2812286,44.4033333 32.8239476,44.552 33.3802857,44.552 C34.2416905,44.552 35.0636,44.1926667 35.6383238,43.5653333 L40.4792143,37.7213333 L40.6099571,37.544 C41.5380952,36.198 42.0304238,34.6253333 42.0304238,32.9946667 C42.0331476,29.724 40.0434048,26.9033333 37.1888524,25.6146667 L37.1888524,25.6146667 Z M10.7304476,12.1773333 C9.90036667,13.1093333 8.70052857,13.646 7.44008571,13.646 C5.35432857,13.646 3.60700476,12.206 3.18140952,10.2866667 L7.01176667,9.37266667 C7.52792857,9.84133333 8.26471905,10.3306667 9.08935238,10.3306667 C9.49588095,10.3306667 9.88198095,10.2106667 10.2299476,9.97666667 C10.5465905,9.76533333 10.9374571,9.65866667 11.3902905,9.65866667 C12.2598667,9.65866667 13.0763286,10.052 13.2383952,10.1666667 C13.3344095,10.258 13.4964762,10.354 13.7518333,10.354 C14.2891048,10.354 16.1058857,9.73933333 16.4518095,8.62 C16.5634857,8.25533333 16.6063857,7.544 15.6060667,6.89066667 C15.5849571,6.87733333 15.5686143,6.86733333 15.5475048,6.854 C15.5502286,6.84666667 15.5556762,6.84133333 15.5584,6.83333333 C15.7041238,6.482 15.6728,6.08333333 15.4678333,5.76066667 C15.4494476,5.72933333 15.3187048,5.52866667 15.0926286,5.23666667 C15.8907048,5.422 16.6063857,5.672 17.1409333,5.99466667 C17.5821905,6.26066667 18.146019,6.224 18.5450571,5.90133333 C18.5695714,5.88266667 20.1813857,4.594 22.0376619,3.63266667 C21.9184952,4.13 21.8572095,4.664 21.8912571,5.21866667 C21.9184952,5.63 22.1602333,5.99733333 22.5299905,6.19 C22.8997476,6.38266667 23.3491762,6.37466667 23.7107619,6.16933333 C23.7298286,6.15866667 24.7832619,5.56266667 26.1131619,5.07533333 C26.0995429,5.21866667 26.1022667,5.36466667 26.1261,5.51333333 C26.2193905,6.078 26.6211524,6.81533333 27.998719,7.12733333 C28.0443429,7.138 28.0892857,7.146 28.1369524,7.15133333 L28.3126381,7.172 L41.3862429,10.2893333 C40.9606476,12.208 39.2133238,13.6486667 37.1275667,13.6486667 C35.8671238,13.6486667 34.6672857,13.1146667 33.8372048,12.18 C33.6036381,11.9166667 33.2815476,11.776 32.9117905,11.7733333 C32.5576952,11.7786667 32.2226667,11.932 31.9938667,12.2006667 C31.845419,12.3746667 31.1379095,13.31 31.0630048,15.198 C30.1641476,15.3226667 29.2114952,15.8153333 28.8179048,17.1013333 C28.5972762,17.6013333 28.3208095,18.12 28.1825762,18.302 C27.7038667,18.4866667 27.1209714,19.0986667 27.1053095,19.7446667 C27.0678571,21.2526667 29.5335857,21.3673333 30.3425571,21.4033333 C31.4994952,21.4586667 32.3105095,21.492 32.8852333,21.5 C33.3510048,22.698 33.8372048,23.8826667 34.2600762,24.8906667 C34.0823476,24.88 33.9039381,24.8646667 33.7228048,24.8646667 C32.7844524,24.8646667 31.861081,25.018 30.9540524,25.328 L30.6537524,25.4453333 C29.0841571,26.1953333 24.5279048,28.1406667 22.2719095,28.1406667 C21.1095238,28.1406667 19.3111286,27.6093333 17.6332619,26.9946667 C18.1916429,25.5 18.2393095,24.3773333 17.7551524,23.612 C17.3404524,22.956 16.6193238,22.7213333 16.0847762,22.7213333 L15.9547143,22.724 L15.8907048,22.742 C15.8055857,22.742 15.757919,22.7006667 15.7259143,22.6666667 C15.643519,22.578 15.3929286,22.1926667 15.5318429,20.9453333 C15.6482857,19.896 15.4358286,19.0653333 14.8958333,18.4766667 C14.4675143,18.0106667 13.8424,17.7186667 13.0633905,17.6146667 C13.3371333,16.7106667 13.5100952,15.9686667 13.5100952,15.526 C13.5100952,13.4166667 12.727681,12.388 12.5710619,12.2033333 C12.3449857,11.9346667 12.0099571,11.7786667 11.6531381,11.776 C11.3099381,11.7733333 10.9619714,11.9166667 10.7304476,12.1773333 L10.7304476,12.1773333 Z M24.9453286,46.294 C24.8840429,46.328 24.8282048,46.3673333 24.7723667,46.4086667 L24.639581,46.5153333 C23.9926762,47 23.1551048,47.268 22.2828048,47.2706667 C21.4098238,47.268 20.5749762,47 19.9553095,46.5366667 L19.7952857,46.4086667 C19.7421714,46.3673333 19.6836095,46.328 19.6223238,46.294 C19.2525667,45.9686667 18.1596381,44.6146667 17.031981,43.1406667 C18.4817286,42.93 20.2501619,42.7653333 22.2719095,42.7653333 C24.3018286,42.7653333 26.0757095,42.93 27.5336286,43.1406667 C26.4052905,44.6146667 25.3123619,45.9686667 24.9453286,46.294 L24.9453286,46.294 Z M38.6229381,36.1953333 L33.9175571,41.8853333 L33.8215429,42.0026667 C33.747319,42.078 33.6009143,42.182 33.3823286,42.182 C33.2788238,42.182 33.1807667,42.1586667 33.0929238,42.112 L32.8293952,41.932 L32.6829905,41.88 C32.5154762,41.82 28.5203286,40.3986667 22.2719095,40.3986667 C16.0234905,40.3986667 12.0467286,41.82 11.8819381,41.8826667 L11.7355333,41.9346667 L11.4726857,42.1146667 C11.3848429,42.1613333 11.2861048,42.1846667 11.1826,42.1846667 C10.9646952,42.1846667 10.8182905,42.0806667 10.7433857,42.0053333 L5.98489048,36.258 L5.95833333,36.2213333 C5.30121429,35.268 4.95256667,34.1533333 4.95256667,33 C4.95256667,29.82 7.59398095,27.2346667 10.8421238,27.2346667 C11.5094571,27.2346667 12.1638524,27.3413333 12.7596857,27.5466667 L12.9033667,27.5986667 C13.741619,27.9973333 19.1599571,30.5106667 22.293019,30.5106667 C25.4076952,30.5106667 30.8287571,27.9946667 31.6615619,27.5986667 L31.7759619,27.5546667 C32.4010762,27.3413333 33.0527476,27.2346667 33.7207619,27.2346667 C36.9682238,27.2346667 39.6096381,29.82 39.6096381,33 C39.6123619,34.1533333 39.2637143,35.268 38.6229381,36.1953333 L38.6229381,36.1953333 Z" id="Fill-3"></path>
                    <path d="M19.5692095,15.3466667 C20.3489,15.3466667 20.9815048,14.7266667 20.9815048,13.9633333 C20.9815048,13.2006667 20.3489,12.5806667 19.5692095,12.5806667 C18.7902,12.5806667 18.1569143,13.2006667 18.1569143,13.9633333 C18.1596381,14.7266667 18.7929238,15.3466667 19.5692095,15.3466667 L19.5692095,15.3466667 Z" id="Fill-4"></path>
                    <path d="M24.881319,15.3466667 C25.6582857,15.3466667 26.2936143,14.7266667 26.2936143,13.9633333 C26.2936143,13.2006667 25.6610095,12.5806667 24.881319,12.5806667 C24.1023095,12.5806667 23.4690238,13.2006667 23.4690238,13.9633333 C23.4717476,14.7266667 24.1043524,15.3466667 24.881319,15.3466667 L24.881319,15.3466667 Z" id="Fill-5"></path>
                </g>
            </g>
            <g id="Oval-71-+-New-Mask-Group" sketch:type="MSLayerGroup" transform="translate(975.000000, 1214.000000)">
                <g id="Oval-74" fill="#00BCD7" sketch:type="MSShapeGroup">
                    <path d="M50,100 C77.6142375,100 100,77.6142375 100,50 C100,22.3857625 77.6142375,0 50,0 C22.3857625,0 0,22.3857625 0,50 C0,77.6142375 22.3857625,100 50,100 Z"></path>
                </g>
                <g id="Rectangle-39" transform="translate(37.866840, 65.904514)"></g>
                <g id="Imported-Layers-2-+-Oval-85" transform="translate(21.000000, 26.000000)" sketch:type="MSShapeGroup">
                    <path d="M39.7308055,20.4054972 C39.7308055,20.4054972 47.2822757,25.8338716 46.4512171,32 L33.4687165,23.5317605 C33.4687165,23.5317605 16.9703417,43.3720736 0.596005496,20.4079483 C16.9703417,-2.55617708 33.4687165,17.284136 33.4687165,17.284136 L46.4512171,8.81589652 C47.2822757,14.9795739 39.7308055,20.4054972 39.7308055,20.4054972 L39.7308055,20.4054972 Z M1.27201589,12.238732 C0.842842319,12.238732 0.496774612,12.5812606 0.496774612,13.0046726 C0.496774612,13.4280846 0.842842319,13.7706132 1.27201589,13.7706132 C1.70056927,13.7706132 2.04725717,13.4280846 2.04725717,13.0046726 C2.04725717,12.5830989 1.70056927,12.238732 1.27201589,12.238732 L1.27201589,12.238732 Z M1.27201589,6.55606531 C0.73430854,6.55606531 0.297692651,6.98744306 0.297692651,7.51869948 C0.297692651,8.04995589 0.73430854,8.4807209 1.27201589,8.4807209 C1.80972324,8.4807209 2.24571894,8.04995589 2.24571894,7.51869948 C2.24571894,6.98744306 1.81220402,6.55606531 1.27201589,6.55606531 L1.27201589,6.55606531 Z M1.27201589,0.28515625 C0.569337196,0.28515625 0,0.847663042 0,1.54191162 C0,2.2361602 0.569337196,2.79866699 1.27201589,2.79866699 C1.97469459,2.79866699 2.54403178,2.2361602 2.54403178,1.54191162 C2.54403178,0.845212032 1.97717536,0.28515625 1.27201589,0.28515625 L1.27201589,0.28515625 Z" id="Imported-Layers-2" fill="#FFFFFF"></path>
                    <ellipse id="Oval-85" fill="#00BCD7" cx="11.628776" cy="19.6664497" rx="1.76193576" ry="1.76193576"></ellipse>
                </g>
                <g id="Imported-Layers-2-+-Oval-86" transform="translate(51.000000, 60.000000)" sketch:type="MSShapeGroup">
                    <path d="M22.8240797,11.7486196 C22.8240797,11.7486196 27.1621584,14.8740473 26.6847417,18.4242424 L19.2267095,13.5485894 C19.2267095,13.5485894 9.7489197,24.9717999 0.342386136,11.7500308 C9.7489197,-1.47173832 19.2267095,9.95147226 19.2267095,9.95147226 L26.6847417,5.07581921 C27.1621584,8.62460315 22.8240797,11.7486196 22.8240797,11.7486196 L22.8240797,11.7486196 Z M0.730732533,7.04654265 C0.484186013,7.04654265 0.28538116,7.24375611 0.28538116,7.48753876 C0.28538116,7.73132141 0.484186013,7.92853488 0.730732533,7.92853488 C0.976922773,7.92853488 1.17608391,7.73132141 1.17608391,7.48753876 C1.17608391,7.2448145 0.976922773,7.04654265 0.730732533,7.04654265 L0.730732533,7.04654265 Z M0.730732533,3.77470427 C0.421836821,3.77470427 0.171014927,4.02307328 0.171014927,4.32894819 C0.171014927,4.63482309 0.421836821,4.88283931 0.730732533,4.88283931 C1.03962825,4.88283931 1.29009386,4.63482309 1.29009386,4.32894819 C1.29009386,4.02307328 1.04105337,3.77470427 0.730732533,3.77470427 L0.730732533,3.77470427 Z M0.730732533,0.164180871 C0.327066049,0.164180871 0,0.488048418 0,0.887767297 C0,1.28748618 0.327066049,1.61135372 0.730732533,1.61135372 C1.13439902,1.61135372 1.46146507,1.28748618 1.46146507,0.887767297 C1.46146507,0.486637231 1.13582414,0.164180871 0.730732533,0.164180871 L0.730732533,0.164180871 Z" id="Imported-Layers-2" fill="#FFFFFF"></path>
                    <ellipse id="Oval-85" fill="#00BCD7" cx="6.6803607" cy="11.3231074" rx="1.01217586" ry="1.01444786"></ellipse>
                </g>
            </g>
            <path d="M1023,1206.09779 L1023,1045" id="Line-27" stroke="#00BCD7" stroke-width="4" stroke-linecap="round" stroke-linejoin="round" stroke-dasharray="1,7" sketch:type="MSShapeGroup"></path>
            <path d="M911,1127 L978,1043" id="Line-33" stroke="#00A885" stroke-width="4" stroke-linecap="round" stroke-linejoin="round" stroke-dasharray="1,7" sketch:type="MSShapeGroup"></path>
            <path d="M1139,1128 L1074,1041" id="Line-53" stroke="#FA5D60" stroke-width="4" stroke-linecap="round" stroke-linejoin="round" stroke-dasharray="1,7" sketch:type="MSShapeGroup"></path>
            <path d="M1070.55556,997.624385 C1070.55556,980.714199 1056.50779,967 1039.18463,967 C1025.5654,967 1014.00822,975.493648 1009.67071,987.332583 C1006.45076,985.586931 1002.8006,984.49918 998.851292,984.49918 C987.840292,984.49918 978.728319,992.275864 976.846097,1002.49548 C968.917236,1004.30675 963,1011.21061 963,1019.50082 C963,1029.16589 971.026333,1037 980.926486,1037 L1066.07351,1037 C1075.97367,1037 1084,1029.16589 1084,1019.50082 C1084,1011.20241 1078.06596,1004.28707 1070.12197,1002.48727 C1070.38078,1000.89748 1070.55556,999.283083 1070.55556,997.624385 Z" id="Shape" fill="#E7E7E8" sketch:type="MSShapeGroup"></path>
        </g>
        <g id="block-1" sketch:type="MSArtboardGroup"></g>
    </g>
</svg>