<?xml version="1.0" encoding="UTF-8" standalone="no"?>
<svg width="374px" height="260px" viewBox="0 0 374 260" version="1.1" xmlns="http://www.w3.org/2000/svg" xmlns:xlink="http://www.w3.org/1999/xlink" xmlns:sketch="http://www.bohemiancoding.com/sketch/ns">
    <!-- Generator: Sketch 3.2.2 (9983) - http://www.bohemiancoding.com/sketch -->
    <title>block-5</title>
    <desc>Created with Sketch.</desc>
    <defs>
        <path d="M49,0 L79,0 L87.3564751,28.9272751 L97.257072,29.2363774 L98,33 L49,33 L49,0 Z M49,0 L19,0 L10.6435249,28.9272751 L0.742927996,29.2363774 L0,33 L49,33 L49,0 Z" id="path-1"></path>
    </defs>
    <g id="Welcome" stroke="none" stroke-width="1" fill="none" fill-rule="evenodd" sketch:type="MSPage">
        <g id="Desktop-HD-2" sketch:type="MSArtboardGroup" transform="translate(-549.000000, -3006.000000)">
            <g id="Oval-62-+-Group" sketch:type="MSLayerGroup" transform="translate(580.000000, 3013.000000)">
                <ellipse id="Oval-62" fill="#D9DBE0" sketch:type="MSShapeGroup" cx="142.5" cy="225.5" rx="61.5" ry="2.5"></ellipse>
                <g id="Group">
                    <g id="Rectangle-33-+-Rectangle-35" transform="translate(92.000000, 192.000000)">
                        <path d="M49,0 L79,0 L87.3564751,28.9272751 L97.257072,29.2363774 L98,33 L49,33 L49,0 Z M49,0 L19,0 L10.6435249,28.9272751 L0.742927996,29.2363774 L0,33 L49,33 L49,0 Z" id="Rectangle-33" fill="#E8EBF0" sketch:type="MSShapeGroup"></path>
                        <g id="Rectangle-35">
                            <mask id="mask-2" sketch:name="Mask" fill="white">
                                <use xlink:href="#path-1"></use>
                            </mask>
                            <use id="Mask" sketch:type="MSShapeGroup" xlink:href="#path-1"></use>
                            <rect fill="#D9DCE2" sketch:type="MSShapeGroup" mask="url(#mask-2)" x="13" y="0" width="70" height="7"></rect>
                        </g>
                    </g>
                    <g id="Rectangle-32-+-Rectangle-27-+-Rectangle-30-+-Oval-1-+-Oval-4-+-Bitmap-3" sketch:type="MSShapeGroup">
                        <g id="Rectangle-32-+-Rectangle-27-+-Rectangle-30">
                            <rect id="Rectangle-32" fill="#E8EBF0" x="0" y="116" width="281" height="76" rx="8"></rect>
                            <path d="M281,139.997971 L281,8.00405762 C281,3.58664136 277.420776,0 273.00558,0 L7.99442041,0 C3.57844088,0 0,3.58353866 0,8.00405762 L0,139.997971 L0,168 L281,168 L281,139.997971 Z" id="Rectangle-27" fill="#484F5E"></path>
                            <rect id="Rectangle-30" fill="#FAFAFA" x="13" y="11" width="258" height="146"></rect>
                        </g>
                        <g id="Group-3" transform="translate(100.000000, 45.000000)">
                            <g id="Oval-1-+-Oval-3-+-DEMETER" fill="#222837">
                                <path d="M41,82.7333333 C63.6436747,82.7333333 82,64.2128458 82,41.3666667 C82,18.5204875 63.6436747,0 41,0 C18.3563253,0 0,18.5204875 0,41.3666667 C0,64.2128458 18.3563253,82.7333333 41,82.7333333 Z" id="Oval-1"></path>
                            </g>
                            <g id="Layer_x0020_1" transform="translate(5.616438, 3.022222)" stroke-width="0.003">
                                <path d="M35.4411693,22.719883 C34.5509758,21.5726932 33.7233758,20.3199343 34.4397041,18.7082255 C34.7868747,17.9602272 35.2673042,17.4202768 35.7332654,17.1880238 C37.9100643,19.1375417 36.9781451,21.9527183 35.441171,22.7198666 L35.4411693,22.719883 Z" id="Shape" stroke="#1F1A17" fill="#9ECF6F"></path>
                                <path d="M38.9462961,22.9732963 C38.4386092,22.0372451 37.7014164,20.6366911 38.4872908,19.0883455 C38.7793852,18.5675352 39.3844369,17.8778155 40.3650409,17.6525985 C41.2482785,19.341713 41.9854681,21.664256 38.9462961,22.9732963 L38.9462961,22.9732963 Z" id="Shape" stroke="#1F1A17" fill="#9ECF6F"></path>
                                <path d="M42.1595985,24.1555644 C42.0552791,22.6599969 41.9613916,21.2172107 43.1193381,20.2494959 C43.7209135,19.8342549 44.2077359,19.6090411 45.2474554,19.5949659 C45.7725288,22.3925607 44.0130095,24.430053 42.1596018,24.1555546 L42.1595985,24.1555644 Z" id="Shape" stroke="#1F1A17" fill="#9ECF6F"></path>
                                <path d="M44.704811,26.0980726 C45.0177693,24.9192128 45.3411594,23.6136692 46.5825612,22.9732144 C46.8850875,22.7902271 47.855258,22.4172145 49.2114095,23.0576702 C49.1488177,23.4693915 48.4916064,27.153766 44.7048272,26.0980736 L44.704811,26.0980726 Z" id="Shape" stroke="#1F1A17" fill="#9ECF6F"></path>
                                <path d="M46.9517286,28.8862741 C47.4834279,27.9355419 47.9422035,26.7208866 50.129433,26.5203037 C51.0439657,26.5167848 51.7707246,27.041114 52.1740925,27.2804029 C51.7429043,27.8962268 50.7211375,31.036388 46.9517318,28.8862708 L46.9517286,28.8862741 Z" id="Shape" stroke="#1F1A17" fill="#9ECF6F"></path>
                                <path d="M48.5855564,32.4324237 C49.0723788,31.5456407 49.9556164,30.3632613 52.2575924,30.6588545 C52.8939408,30.8277659 53.5094247,31.3556135 53.9267044,31.799005 C52.636621,33.4353315 50.6788812,34.4171314 48.5855434,32.4324237 L48.5855564,32.4324237 Z" id="Shape" stroke="#1F1A17" fill="#9ECF6F"></path>
                                <path d="M48.8359688,36.274877 C50.2547137,35.4584736 51.1101309,34.4520428 53.4677573,35.8526001 C53.728887,36.218432 53.9928307,36.500094 54.1771297,36.9505248 C53.3564823,37.654323 50.7206943,39.4982684 48.8359688,36.2748803 L48.8359688,36.274877 Z" id="Shape" stroke="#1F1A17" fill="#9ECF6F"></path>
                                <path d="M30.6843041,17.610363 C32.4160062,18.1734022 32.895876,19.4965374 32.9376017,20.7774501 C32.8750099,21.3404894 32.5411865,22.4736006 32.1865035,22.8888416 C29.5005392,22.0770905 29.8370624,19.8006432 30.6843041,17.6103793 L30.6843041,17.610363 Z" id="Shape" stroke="#1F1A17" fill="#9ECF6F"></path>
                                <path d="M25.843968,19.6373422 C27.7703997,19.4543549 28.7162275,20.9815952 28.9318216,22.2554687 C29.0639594,23.0226071 28.9387635,23.5789542 28.8900939,24.2401763 C25.4336585,23.6982516 25.4823174,21.3194174 25.843966,19.637352 L25.843968,19.6373422 Z" id="Shape" stroke="#1F1A17" fill="#9ECF6F"></path>
                                <path d="M21.9735756,22.8783481 C21.9318479,23.77569 22.2552381,25.1375378 23.3923204,25.8659669 C24.2511024,26.3509948 25.4960953,26.5099413 26.2611052,26.1404476 C25.7568963,23.1105998 23.8443731,22.6566364 21.9735853,22.8783468 L21.9735756,22.8783481 Z" id="Shape" stroke="#1F1A17" fill="#9ECF6F"></path>
                                <path d="M24.0496692,28.8008207 C23.4411379,27.421378 22.3736045,26.5592259 20.9931107,26.4994053 C20.0890086,26.4255065 19.289863,26.9947072 18.9171562,27.1961643 C20.043805,29.3357062 22.5683245,30.5356871 24.0496724,28.8008207 L24.0496692,28.8008207 Z" id="Shape" stroke="#1F1A17" fill="#9ECF6F"></path>
                                <path d="M22.5057828,32.305717 C21.6538403,31.0072127 20.1342543,30.3632384 18.6146845,30.7327307 C18.1243841,30.8136675 17.4567406,31.4013392 17.1646446,31.7567563 C18.7911994,33.9829597 21.3414201,34.1413136 22.5058055,32.305717 L22.5057828,32.305717 Z" id="Shape" stroke="#1F1A17" fill="#9ECF6F"></path>
                                <path d="M22.1718996,36.3171126 C21.4173235,35.6836939 19.3691862,34.4802032 17.9991358,35.5570134 C17.6882922,35.7695316 17.2063088,36.257292 16.9976706,37.0349861 C18.4929142,38.4109092 21.1669726,38.6044528 22.1719223,36.3171126 L22.1718996,36.3171126 Z" id="Shape" stroke="#1F1A17" fill="#9ECF6E"></path>
                                <path d="M16.9142095,39.0198607 C16.281339,38.3934813 15.3563725,36.6058368 12.1781149,37.541888 C11.3991964,37.872671 10.3907752,38.9002163 10.112591,39.5265957 C12.6927577,42.3558607 15.2311954,41.1945957 16.9141998,39.0198607 L16.9142095,39.0198607 Z" id="Shape" stroke="#1F1A17" fill="#62B739"></path>
                                <path d="M16.7472679,34.3326963 C16.3717172,33.5374041 15.4537066,32.1086964 13.3464473,32.1368501 C11.9694314,31.8764453 10.5506865,33.1573561 10.1125457,33.6992808 C11.3226491,36.1062655 14.2644417,36.866368 16.7472452,34.3326996 L16.7472679,34.3326963 Z" id="Shape" stroke="#1F1A17" fill="#62B739"></path>
                                <path d="M18.2494188,29.4762622 C17.2549063,27.3085665 16.1143489,26.7033016 14.9112014,26.5414281 C13.5967756,26.3373269 12.1571695,26.91444 11.8233478,27.3648708 C13.3464117,32.1366046 16.9002168,30.25044 18.249435,29.4762622 L18.2494188,29.4762622 Z" id="Shape" stroke="#1F1A17" fill="#62B739"></path>
                                <path d="M20.2106592,25.0002756 C20.2941148,21.9598721 18.1868643,21.305352 17.7069945,21.0730892 C16.4760266,20.6156225 15.4954226,20.8337982 14.7025955,21.1575449 C14.7651873,26.0700639 19.1048717,25.3240334 20.2106657,25.0002929 L20.2106592,25.0002756 Z" id="Shape" stroke="#1F1A17" fill="#62B739"></path>
                                <path d="M23.7992568,21.326437 C23.9313946,19.6232473 24.188716,18.4690216 22.484831,17.0403139 C21.6294106,16.4561635 20.3567137,16.0409225 19.2509294,16.1746422 C18.4094207,20.214424 21.6572309,21.7205635 23.7992471,21.3264305 L23.7992568,21.326437 Z" id="Shape" stroke="#1F1A17" fill="#62B739"></path>
                                <path d="M28.3891805,18.8348667 C28.8968674,17.8777042 29.7801049,16.4560325 28.6604107,14.3375985 C28.1457679,13.6549148 27.0678007,12.5921831 25.9272434,12.3317763 C23.3888056,15.7240772 26.4418862,18.3562691 28.3891824,18.8348732 L28.3891805,18.8348667 Z" id="Shape" stroke="#1F1A17" fill="#62B739"></path>
                                <path d="M33.1046339,17.3991852 C33.9878714,16.5898177 35.1840663,15.1259203 34.3981952,12.7752431 C34.0643734,12.1066346 33.3341365,10.9946379 32.4369904,10.5582824 C28.9249077,13.3242038 31.5050712,16.2801525 33.1046339,17.3991983 L33.1046339,17.3991852 Z" id="Shape" stroke="#1F1A17" fill="#62B739"></path>
                                <path d="M38.7379426,10.6005704 C37.8686136,11.0158114 36.2481864,12.4445191 36.4429161,14.9500468 C36.6098272,15.794604 37.1731529,16.723616 37.9451155,17.3570315 C39.8785032,16.3506008 42.0413968,13.1061047 38.7379426,10.6005867 L38.7379426,10.6005704 Z" id="Shape" stroke="#1F1A17" fill="#62B739"></path>
                                <path d="M45.0804296,12.4586074 C43.981598,12.8175441 42.6949926,13.3453904 42.0343017,15.3300981 C41.7328835,17.0462924 42.3032013,18.4326958 42.7436742,18.8349944 C45.8176192,17.9763619 47.347639,14.4362758 45.0804296,12.4586041 L45.0804296,12.4586074 Z" id="Shape" stroke="#1F1A17" fill="#62B739"></path>
                                <path d="M51.7567999,16.3013881 C50.8596537,16.2239704 48.6689463,16.0409834 47.3753915,18.6872616 C46.8398842,19.5810838 47.1460163,20.5957881 47.2084803,21.4109573 C50.435426,21.5235648 52.9112833,19.3347556 51.756798,16.3014045 L51.7567999,16.3013881 Z" id="Shape" stroke="#1F1A17" fill="#62B739"></path>
                                <path d="M50.9224154,25.0425111 C50.8598236,23.6489932 50.964143,21.8331982 53.6764472,20.9886508 C54.8239605,20.7493599 55.679381,20.8901192 56.5556626,21.1575623 C56.2844324,24.9017606 53.9894045,25.6900267 50.9224186,25.0425131 L50.9224154,25.0425111 Z" id="Shape" stroke="#1F1A17" fill="#62B739"></path>
                                <path d="M52.9671266,29.3495556 C53.5351777,28.0164541 53.9025108,26.5892394 56.8060718,26.3513812 C57.814493,26.4287989 58.7603207,26.8440376 59.3931944,27.2803931 C58.8159614,30.6304585 55.2134748,31.2779721 52.9671072,29.3495556 L52.9671266,29.3495556 Z" id="Shape" stroke="#1F1A17" fill="#62B739"></path>
                                <path d="M54.1771297,34.2904607 C54.9769127,33.1855 55.5680542,31.6160333 58.6420089,32.1790693 C59.434836,32.3198286 60.3215515,32.8511941 61.0204901,33.6148163 C60.081615,34.860536 58.9132373,36.6552197 56.0131477,35.5150692 C55.3594128,35.2968921 54.6848134,34.804235 54.1771265,34.290464 L54.1771297,34.2904607 Z" id="Shape" stroke="#1F1A17" fill="#62B739"></path>
                                <path d="M54.3023359,39.0620963 C54.7335241,38.3371868 55.4568051,36.8099459 58.4750997,37.3307561 C59.580884,37.6932125 60.269392,38.4040467 60.9787644,39.2732348 C60.2554834,40.3922707 58.8854234,41.743563 56.5556206,40.9201202 C55.7210646,40.5963736 54.949102,40.0192588 54.302323,39.0620963 L54.3023359,39.0620963 Z" id="Shape" stroke="#1F1A17" fill="#62B739"></path>
                                <path d="M60.6030876,41.9756948 C62.9746161,39.9698726 66.2224198,40.7510896 67.1543487,42.1023782 C68.1071323,43.2425287 68.4340014,44.1926552 68.6982771,45.5228362 C66.0485643,47.2260259 63.5657608,46.5433421 62.1887514,45.311697 C61.2220592,44.4952936 60.6726433,43.2354953 60.6030973,41.9757102 L60.6030876,41.9756948 Z" id="Shape" stroke="#1F1A17" fill="#00923F"></path>
                                <path d="M61.479531,35.7683778 C62.6757259,34.8675163 64.1640168,33.2276701 67.3214197,34.3326308 C68.538479,34.8534411 69.6512193,36.2399197 70.2840897,38.0486721 C68.8792567,39.5055336 65.8470341,40.4134311 63.1903654,38.4287234 C62.4949016,37.7530789 61.7368476,36.9718619 61.4795278,35.7683712 L61.479531,35.7683778 Z" id="Shape" stroke="#1F1A17" fill="#00923F"></path>
                                <path d="M60.3109397,30.1942667 C60.7490806,29.4623179 62.9606525,25.8166332 66.6952916,27.4916855 C67.5437562,27.9984205 68.4548109,28.8218632 69.2406853,29.7719864 C68.7469069,30.4194804 66.7300646,33.2628042 63.5657058,32.4745676 C62.4807827,32.2212007 61.0620411,31.3977574 60.3109268,30.1942667 L60.3109397,30.1942667 Z" id="Shape" stroke="#1F1A17" fill="#00923F"></path>
                                <path d="M57.8074627,24.0288578 C58.7672022,22.1074903 59.7060773,19.6371785 62.6895989,19.8482908 C63.4824259,19.8201389 64.9220352,20.0242402 66.4451057,21.5374053 C65.8674392,22.9365677 64.7815487,25.0732743 62.4809542,25.4223561 C60.9231172,25.7601783 59.4487381,25.485698 57.8074303,24.0288381 L57.8074627,24.0288578 Z" id="Shape" stroke="#1F1A17" fill="#00923F"></path>
                                <path d="M54.3440713,18.4969822 C54.3162528,16.0899976 54.6639842,14.0630674 56.5139143,12.9229039 C57.4806065,12.3880184 58.6976658,11.8742474 61.1039674,12.7117647 C61.4030164,13.5492827 61.2430598,15.9492314 59.560039,17.6946435 C58.5933468,18.321023 56.9381433,19.348565 54.3440843,18.4969717 L54.3440713,18.4969822 Z" id="Shape" stroke="#1F1A17" fill="#00923F"></path>
                                <path d="M48.335144,14.2321733 C52.4522929,14.3588568 53.2729274,11.6140469 53.6763049,10.178313 C53.8362611,9.34783105 53.8710345,7.65168061 53.092116,6.67341674 C49.6356806,6.67341674 48.6411486,8.13027821 47.9178644,9.71382015 C47.4727676,11.4733141 47.6953163,12.7682988 48.3351407,14.2322061 L48.335144,14.2321733 Z" id="Shape" stroke="#1F1A17" fill="#00923F"></path>
                                <path d="M41.9509215,11.4449541 C44.4754507,11.0860173 46.144553,8.7423729 46.0819822,6.50431081 C46.1376194,4.75889538 45.4212914,3.73135015 44.7466952,2.91494341 C41.0051002,3.53428363 40.1427304,6.56062489 40.5321961,8.3201123 C40.7547441,9.44618751 41.3945692,10.5933772 41.9509409,11.4449704 L41.9509215,11.4449541 Z" id="Shape" stroke="#1F1A17" fill="#00923F"></path>
                                <path d="M35.5663755,9.79809481 C36.4148401,9.29839908 39.7878306,6.77176665 37.7362185,3.04165007 C37.2493961,2.1619031 36.5539322,1.45106887 35.6498302,0.845803896 C33.5982148,1.68332187 32.5689292,4.5055639 33.0731414,6.71546567 C33.1774608,7.7218964 34.2728142,9.27728785 35.5663755,9.79809809 L35.5663755,9.79809481 Z" id="Shape" stroke="#1F1A17" fill="#00923F"></path>
                                <path d="M29.0152115,11.4871896 C31.1711459,9.1435452 30.8860058,5.53305674 29.2238503,4.26621926 C28.3162703,3.54130979 27.3043745,3.11199356 26.4698185,2.91493031 C24.7798453,4.34363801 24.7172519,7.79929224 25.9690842,9.4180272 C26.8801389,10.6144819 27.9998351,11.1141776 29.0152121,11.4871896 L29.0152115,11.4871896 Z" id="Shape" stroke="#1F1A17" fill="#00923F"></path>
                                <path d="M22.9231369,14.2744089 C23.1595941,12.6556772 24.4392449,10.1079204 21.5878499,7.47572859 C20.7672024,7.10271661 19.0911378,6.60302087 18.1661616,6.58894563 C17.1933158,8.27219295 17.1834061,10.5608231 18.1661616,11.9941145 C19.0841722,13.134265 20.7115552,14.3588735 22.9231239,14.2744154 L22.9231369,14.2744089 Z" id="Shape" stroke="#1F1A17" fill="#00923F"></path>
                                <path d="M16.8307387,18.4547467 C16.9141943,15.407304 15.5997708,13.056617 13.7011562,12.5428493 C12.0320442,11.9727741 10.6967572,12.4161659 9.82047551,12.6695328 C9.77179327,14.8301892 10.599394,17.2019972 11.7399514,17.6946471 C13.8124312,19.3626471 15.4885023,18.7503428 16.8307322,18.4547463 L16.8307387,18.4547467 Z" id="Shape" stroke="#1F1A17" fill="#00923F"></path>
                                <path d="M13.2421412,23.9443867 C12.2391327,21.0248523 10.271192,19.8942916 8.36000496,19.8060553 C6.28752517,19.9186628 5.21651386,20.960281 4.77140741,21.5373955 C5.42514234,24.0006844 7.08034252,25.0071282 8.36000496,25.3801435 C10.2586196,25.7883452 12.4493303,25.0563968 13.2421412,23.9443965 L13.2421412,23.9443867 Z" id="Shape" stroke="#1F1A17" fill="#00923F"></path>
                                <path d="M10.6966051,30.06756 C9.95245968,28.8781445 7.95648185,26.3163224 4.771278,27.3227531 C4.07581414,27.5057404 2.87961927,28.2799156 1.93379152,29.7719668 C2.58057055,30.799512 3.72808382,32.5660419 6.56558001,32.7279154 C7.98432486,32.6223459 10.008136,31.9467017 10.6966407,30.0675633 L10.6966051,30.06756 Z" id="Shape" stroke="#1F1A17" fill="#00923F"></path>
                                <path d="M9.5700728,35.8106133 C7.67395582,34.5893706 5.83815136,33.1886595 2.97707629,34.8393724 C1.69742355,35.5431706 1.08541755,37.2182065 1.01587149,37.9642305 C2.12165583,38.9988117 4.16631849,40.2445314 6.52394166,39.2310647 C7.53931871,38.9354698 9.20147155,37.8797758 9.57006957,35.8106068 L9.5700728,35.8106133 Z" id="Shape" stroke="#1F1A17" fill="#00923F"></path>
                                <path d="M10.5717225,41.8912237 C8.89565782,41.0537057 5.38025899,39.5598898 3.35282432,42.8624647 C2.89381901,43.6366424 2.55999726,44.5586151 2.47654263,45.5650459 C4.08306121,46.3110698 6.23204944,47.3526903 8.61051443,45.5228182 C9.49663144,44.8366541 10.320155,43.793593 10.5717192,41.8912152 L10.5717225,41.8912237 Z" id="Shape" stroke="#1F1A17" fill="#00923F"></path>
                                <path d="M22.3540471,36.5551378 C21.1612526,40.4401541 22.1070816,44.9163044 23.0737758,47.2177166 C24.4229746,50.075132 26.314643,52.4680545 28.4983751,54.7765059 C30.7377642,57.5916956 32.8102569,60.6602462 35.4669256,60.3083487 C38.6243252,60.3998424 40.0917582,57.3453641 40.6828803,56.5923074 C43.6942352,53.6222835 45.8293083,50.8211625 47.4010507,47.6822422 C49.5569851,43.0090253 48.8962942,39.6237637 48.4651093,36.3862938 C48.2912435,33.4584989 45.5928498,32.6632132 44.1462716,32.2268446 C42.6092991,31.8890224 39.8622135,32.2479585 37.8453906,31.5934259 C36.7187418,31.347097 36.2806009,30.5729199 36.2180075,29.6509472 C37.9010281,31.2978326 39.8344287,31.1289199 41.517433,31.1711489 C43.9940312,30.805975 45.8675561,32.0275779 47.776611,33.1558566 C47.6583187,32.756819 47.5273908,32.3151791 47.4010604,31.8890224 C45.425947,30.5729232 43.5134238,30.2280617 42.4771888,30.2843659 C40.0847958,30.5658849 38.0888244,29.9817331 36.0928369,28.616366 C35.9050619,28.4650497 35.9050619,27.8808976 35.9885175,27.6028992 C37.8523559,29.2568207 40.2377962,29.4644428 41.7678031,29.3975829 C43.9689411,29.3025703 45.6380661,30.1224924 46.9003193,30.7066462 C46.9107513,30.0626718 46.4621785,29.5031522 45.9614442,29.3764684 C44.3795463,28.8638434 42.7970887,28.4967215 41.1836142,28.5952547 C39.0137712,28.6585966 37.5748284,27.8924518 35.9891743,26.9845511 C35.8848548,26.7311842 35.842452,26.3606992 35.9884992,26.0826975 L35.5503583,26.1249252 C35.70336,26.6527715 35.3190979,27.0435486 34.9996548,27.2206825 C33.6574249,28.1244547 32.3860157,28.1763651 31.0437534,28.2785424 C29.2216407,28.4967195 27.3578056,28.4193017 25.5774186,28.9330724 C24.5237938,29.1055028 24.440336,29.6157561 24.2004027,30.1787921 C25.3757331,29.4046143 26.7805694,29.3483101 28.2271249,29.2497801 C30.723837,29.3271979 33.2360526,28.9613008 35.3989494,27.7718827 C35.4684191,28.1114468 35.3502034,28.6082286 35.3260406,28.8696503 C33.1005601,29.784587 31.0576736,30.2562076 29.43724,30.0309938 C27.7959484,29.9746899 26.2798403,30.1084116 25.0140962,30.5588401 C24.0926076,30.847397 23.5675342,31.2731939 23.4075776,31.994587 C24.8993465,31.2450434 26.5162957,31.0444605 28.2897138,30.9177768 C29.8753679,30.7523847 31.6070636,31.1359539 32.9215023,30.7066377 C33.8916724,30.4356759 34.5071564,30.1119283 35.1747999,29.6087129 C35.240869,30.7418274 34.7331811,30.9248121 34.0272866,31.2344839 C31.8991693,32.0227369 27.7576909,31.3646863 26.3285284,32.0156976 C24.207367,32.5505831 22.9416196,34.7112395 22.4061123,36.2173496 C22.4061633,36.2173109 22.4062015,36.2172465 22.3540292,36.5551063 L22.3540471,36.5551378 Z" id="Shape" stroke="#1F1A17" fill="#FFFFFF"></path>
                                <path d="M35.9885825,26.0830119 C35.8425355,26.0970878 35.6964881,26.1111637 35.5504417,26.1252395 C34.45161,26.7727335 33.2380286,27.4307831 31.8679557,27.4554173 C29.7780893,27.6348856 26.8849751,27.6771133 24.9307229,28.6272378 C24.920291,27.8952891 25.4001589,27.5011626 26.4537869,27.26539 C28.5366973,26.7727335 31.412438,27.0507319 33.1093542,26.4208328 C34.1862375,26.050129 35.1192406,25.5199713 35.905115,24.9428601 C37.8002516,26.4841763 40.9135574,26.761235 41.7470036,26.9803524 C42.3207619,27.0577702 46.5561191,27.8319456 46.1284121,28.7222515 C44.4488695,28.0642019 42.8006123,27.8495438 41.1210697,27.7298993 C39.1807293,27.6665574 37.6830431,26.7549586 35.9885534,26.0830138 L35.9885825,26.0830119 Z" id="Shape" stroke="#FFFFFF" fill="#FFFFFF"></path>
                                <path d="M22.2417821,37.1078015 L22.3461016,36.4321308 C24.613311,34.6515256 28.1114753,33.7577034 30.2743721,35.0808419 C33.2718152,36.5728931 33.5361071,39.8174121 33.3205,42.4073684 C33.4039556,43.8923803 33.0973661,44.7577017 32.9449494,45.6589103 C32.4685575,46.5456932 32.5450595,47.4958197 33.6125929,47.2424522 C34.0088786,47.1353229 34.2384589,47.239075 34.4888745,47.4113637 C34.9202665,47.8717836 35.7893885,47.8266047 36.2831668,47.4008067 C36.4987603,47.1861486 36.7039212,47.1720727 36.9925393,47.2002245 C37.6149791,47.3445028 38.422213,47.1947204 37.8583903,45.827821 C38.6477394,46.6090348 38.4147621,47.5802757 38.3173957,47.8230843 C37.7751395,48.6361515 37.2996762,48.4356079 36.8151962,48.3720451 C36.3631468,48.6957917 35.2956102,49.4734862 33.9255501,48.3614881 C32.8580135,48.7661702 32.4059641,47.9356915 32.3190316,47.6436146 C32.3746687,44.7158197 31.382143,42.7718251 30.4830103,41.2672244 C29.8188448,40.4789714 29.4050431,40.4719322 28.6469891,40.5493509 C27.1274031,40.8167937 26.4632375,40.2291232 26.0598665,39.8314774 C27.3708143,40.4156279 28.4939852,40.0390976 29.2729037,39.7470217 C30.2104911,39.3675271 31.2782444,39.2847454 32.0373694,39.5886675 C31.6305236,38.8883889 30.8790405,38.8061114 29.7998147,38.907814 C28.2906593,39.6256875 26.984833,39.5147684 25.7260512,39.1558317 C24.5646294,38.3464642 23.3406141,37.3259582 22.2417922,37.1077837 L22.2417922,37.1078095 L22.2417821,37.1078015 Z" id="Shape" stroke="#1F1A17" fill="#4D2612"></path>
                                <path d="M31.8810425,38.4272533 C31.3524911,36.1012038 28.6002839,34.5032101 26.2686661,35.1440446 C24.7734225,35.4818668 23.2886096,36.2736394 22.3775678,36.9070549 C23.4068534,36.8577893 24.6155301,37.5349928 25.6218968,37.9733062 C26.8320002,38.4976361 28.3548474,38.0549777 29.3148005,37.6777114 C30.1945601,37.4489774 31.0638892,37.7480912 31.8810586,38.427255 L31.8810425,38.4272533 Z" id="Shape" stroke="#1F1A17" fill="#FFFFFF"></path>
                                <path d="M37.5395865,41.3624607 C38.787941,40.1132214 39.8693861,40.489753 41.0342956,40.7607154 C42.1732127,41.1045717 43.3433342,41.3104259 44.7898024,40.2962094 C43.8648359,40.5953232 42.6582104,40.71497 41.5871959,40.2750955 C40.8082774,39.9619058 39.5979184,39.4753047 38.7392755,40.0006148 C38.8146937,39.5114387 40.0172847,39.1341966 40.9717475,39.3302416 C41.2852917,39.3816344 42.3912041,40.0847749 44.2890649,39.7683618 C45.3476333,39.53772 46.2984919,38.7733281 46.709275,38.3326148 C47.0083241,38.082767 47.4116916,37.7273499 48.1697456,37.6147414 C47.4186475,37.484539 46.5840915,37.6182603 45.7912644,38.0792474 C45.5200341,38.2798296 43.7883307,39.3249671 42.2235346,38.3326142 C41.6045727,38.0651715 40.7665387,37.8082843 40.0536916,38.1637027 C39.6294593,38.2903862 39.2939164,38.5830691 38.9687685,38.7971215 C39.4277738,36.7490736 41.3889786,35.5666941 43.2250031,35.5033375 C44.8315216,35.3555402 47.084816,36.3549307 48.4201224,37.4458162 C47.9193882,36.5379187 46.4589176,35.6511325 44.8523926,35.1655153 C42.1609509,34.3843015 40.3666456,35.5455665 39.3443224,36.2423255 C37.8143058,37.5513887 37.2753206,39.6944437 37.5395962,41.3624535 L37.5395865,41.3624607 Z" id="Shape" stroke="#1F1A17" fill="#4D2612"></path>
                                <path d="M32.1838668,52.4023111 C32.8202152,53.0005401 33.5295876,53.5459812 34.3119841,53.5635761 C34.9448545,53.5565381 35.3447476,53.4274957 36.2105987,53.5424622 C37.1711276,53.6348582 37.8657989,52.8668177 38.5056252,52.3389682 C38.2191609,53.2915699 37.6934381,54.0539118 36.6278751,54.3870161 C35.8836552,54.5217816 35.1400565,54.574502 34.353713,54.4292438 C33.0369707,54.1775268 32.5510639,53.3323144 32.18387,52.4023071 L32.1838668,52.4023111 Z" id="Shape" stroke="#1F1A17" fill="#4D2612"></path>
                                <path d="M34.8128736,52.3918341 C35.2361256,52.6078326 35.4671553,52.5692915 35.8143388,52.402391 C36.0786145,52.2510748 36.2490017,52.1525432 36.6071659,52.170138 C37.0850977,52.1926312 37.3066286,52.0858113 37.5356071,52.0117838 C38.1302266,51.7232269 38.766575,50.832924 39.3194688,51.1461121 C39.2081948,50.9701627 39.0134652,50.8047702 38.6413915,50.9666437 C37.9459276,51.1848208 37.3130571,51.8358318 36.5550031,51.6211737 C35.9325633,51.2094523 35.654379,51.346693 35.3448997,51.5578318 C34.7780973,51.1601857 34.4199332,51.4276294 34.0826335,51.5683888 C33.4601936,51.9308452 32.7352076,51.2715308 32.1214287,50.9771991 C31.4607022,50.8012241 31.3521902,50.9792228 31.172123,51.1461105 C31.7693177,50.8679046 32.2843164,51.5347464 32.9351202,51.8850985 C33.5767421,52.4442449 34.2182476,51.9589973 34.8128704,52.3918335 L34.8128736,52.3918341 Z" id="Shape" stroke="#1F1A17" fill="#4D2612"></path>
                            </g>
                        </g>
                    </g>
                    <path d="M271,11 L271,157 L158.003906,157 L271,11 Z" id="Rectangle-36" fill-opacity="0.0299999993" fill="#000000" sketch:type="MSShapeGroup"></path>
                    <circle id="Oval-53" fill="#474E5D" sketch:type="MSShapeGroup" cx="140.5" cy="179.5" r="5.5"></circle>
                </g>
            </g>
            <g id="Oval-63-+-Group" sketch:type="MSLayerGroup" transform="translate(795.000000, 3117.000000)">
                <ellipse id="Oval-63" fill="#D9DBE0" sketch:type="MSShapeGroup" cx="61.5" cy="138.5" rx="61.5" ry="2.5"></ellipse>
                <g id="Group" transform="translate(10.000000, 0.000000)" sketch:type="MSShapeGroup">
                    <rect id="Rectangle-37" fill="#484F5E" x="0" y="0" width="106" height="138" rx="7"></rect>
                    <rect id="Rectangle-38" fill="#FAFAFA" x="10" y="11" width="87" height="114"></rect>
                    <path d="M97.2148438,11 L97,125 L10.2148438,125 L97.2148438,11 Z" id="Rectangle-41" fill-opacity="0.0299999993" fill="#000000"></path>
                    <g id="Group-5" transform="translate(35.000000, 50.000000)">
                        <g id="Oval-1-+-Oval-3-+-DEMETER" transform="translate(0.000000, 1.435897)" fill="#222837">
                            <path d="M18.5,36.3262273 C28.7172679,36.3262273 37,28.1943243 37,18.1631137 C37,8.13190297 28.7172679,0 18.5,0 C8.28273213,0 0,8.13190297 0,18.1631137 C0,28.1943243 8.28273213,36.3262273 18.5,36.3262273 Z" id="Oval-1"></path>
                        </g>
                        <g id="Layer_x0020_1" transform="translate(2.534247, 2.762883)" stroke-width="0.003">
                            <path d="M15.9917471,9.97575705 C15.5900745,9.47205349 15.2166452,8.921997 15.5398665,8.21433422 C15.6965166,7.88590609 15.9132958,7.64882676 16.1235466,7.54685002 C17.1057607,8.40283671 16.6852606,9.63891339 15.9917479,9.97574986 L15.9917471,9.97575705 Z" id="Shape" stroke="#1F1A17" fill="#9ECF6F"></path>
                            <path d="M17.5733287,10.0870248 C17.3442505,9.67602708 17.0116147,9.06107735 17.3662166,8.38123582 C17.4980153,8.15256051 17.7710264,7.84972108 18.2134941,7.75083368 C18.6120281,8.49248343 18.9446624,9.5122565 17.5733287,10.0870248 L17.5733287,10.0870248 Z" id="Shape" stroke="#1F1A17" fill="#9ECF6F"></path>
                            <path d="M19.0232335,10.6061304 C18.9761625,9.9494625 18.9337987,9.31596958 19.4562867,8.89106917 C19.7277292,8.70874678 19.947393,8.60986082 20.4165347,8.60368072 C20.6534581,9.83203766 19.8595287,10.7266518 19.0232349,10.6061261 L19.0232335,10.6061304 Z" id="Shape" stroke="#1F1A17" fill="#9ECF6F"></path>
                            <path d="M20.171683,11.4590393 C20.3128959,10.9414301 20.4588158,10.3681972 21.0189605,10.0869888 C21.1554663,10.0066435 21.5932262,9.84286255 22.2051482,10.1240713 C22.1769055,10.3048483 21.880359,11.922569 20.1716903,11.4590397 L20.171683,11.4590393 Z" id="Shape" stroke="#1F1A17" fill="#9ECF6F"></path>
                            <path d="M21.1855361,12.6832719 C21.4254492,12.2658281 21.6324577,11.732502 22.6193783,11.6444309 C23.0320333,11.6428858 23.3599611,11.8731062 23.5419685,11.9781723 C23.347408,12.2485658 22.8863669,13.6273354 21.1855375,12.6832704 L21.1855361,12.6832719 Z" id="Shape" stroke="#1F1A17" fill="#9ECF6F"></path>
                            <path d="M21.922751,14.2403013 C22.1424148,13.8509361 22.5409489,13.3317816 23.5796453,13.4615695 C23.8667782,13.5357345 24.1444965,13.7674997 24.3327812,13.9621823 C23.7506705,14.6806541 22.8673001,15.111739 21.9227452,14.2403013 L21.922751,14.2403013 Z" id="Shape" stroke="#1F1A17" fill="#9ECF6F"></path>
                            <path d="M22.035742,15.9274306 C22.6759074,15.5689674 23.0618883,15.1270678 24.1256954,15.7420189 C24.2435222,15.902647 24.3626187,16.026318 24.445778,16.2240914 C24.0754859,16.5331124 22.8861669,17.3427447 22.035742,15.9274321 L22.035742,15.9274306 Z" id="Shape" stroke="#1F1A17" fill="#9ECF6F"></path>
                            <path d="M13.8453567,7.73228906 C14.6267345,7.97950612 14.8432611,8.56046312 14.8620886,9.12288126 C14.8338459,9.37009832 14.6832183,9.86762034 14.5231784,10.0499427 C13.3112189,9.69352228 13.4630648,8.69398871 13.8453567,7.73229624 L13.8453567,7.73228906 Z" id="Shape" stroke="#1F1A17" fill="#9ECF6F"></path>
                            <path d="M11.6613026,8.62228715 C12.5305462,8.54194179 12.9573222,9.21251647 13.0546024,9.77184383 C13.1142256,10.108676 13.0577347,10.3529547 13.0357741,10.6432815 C11.476163,10.4053353 11.4981188,9.36084613 11.6613017,8.62229147 L11.6613026,8.62228715 Z" id="Shape" stroke="#1F1A17" fill="#9ECF6F"></path>
                            <path d="M9.91490605,10.0453353 C9.89607773,10.4393367 10.0419977,11.0372915 10.5550714,11.3571272 C10.9425706,11.5700914 11.5043357,11.639881 11.8495231,11.4776452 C11.6220142,10.1473115 10.7590464,9.94798698 9.91491043,10.0453347 L9.91490605,10.0453353 Z" id="Shape" stroke="#1F1A17" fill="#9ECF6F"></path>
                            <path d="M10.85168,12.6457513 C10.5770988,12.040071 10.0954069,11.6615207 9.47250116,11.6352549 C9.06455267,11.6028077 8.70396258,11.8527301 8.53578998,11.9411851 C9.0441559,12.8806068 10.1832684,13.4074897 10.8516815,12.6457513 L10.85168,12.6457513 Z" id="Shape" stroke="#1F1A17" fill="#9ECF6F"></path>
                            <path d="M10.1550484,14.1846675 C9.77063527,13.6145253 9.08496842,13.3317715 8.39930886,13.4940068 C8.17807576,13.5295442 7.87682199,13.7875768 7.74502255,13.9436319 C8.47895581,14.9211046 9.62966517,14.990634 10.1550586,14.1846675 L10.1550484,14.1846675 Z" id="Shape" stroke="#1F1A17" fill="#9ECF6F"></path>
                            <path d="M10.0043937,15.9459753 C9.66391428,15.6678563 8.73975473,15.1394323 8.1215613,15.6122339 C7.98130257,15.7055455 7.76382226,15.9197095 7.66968064,16.2611763 C8.34436372,16.8653112 9.55095105,16.9502916 10.0044039,15.9459753 L10.0043937,15.9459753 Z" id="Shape" stroke="#1F1A17" fill="#9ECF6E"></path>
                            <path d="M7.63202136,17.1326873 C7.34645786,16.8576591 6.92909492,16.0727472 5.49500305,16.4837449 C5.14353983,16.6289838 4.68852053,17.0801543 4.56299837,17.3551825 C5.72721992,18.5974451 6.87261257,18.0875614 7.63201698,17.1326873 L7.63202136,17.1326873 Z" id="Shape" stroke="#1F1A17" fill="#62B739"></path>
                            <path d="M7.55669405,15.0746655 C7.38723825,14.7254718 6.97301395,14.0981604 6.02217744,14.110522 C5.40084099,13.9961845 4.76067563,14.5586018 4.56297793,14.796548 C5.10900021,15.8533974 6.43639445,16.1871402 7.55668383,15.074667 L7.55669405,15.0746655 Z" id="Shape" stroke="#1F1A17" fill="#62B739"></path>
                            <path d="M8.23449387,12.9423215 C7.78575039,11.9905382 7.27110865,11.7247808 6.72822501,11.6537061 C6.13513045,11.5640901 5.4855521,11.8174867 5.33492521,12.0152601 C6.02216138,14.1104142 7.62570759,13.2822445 8.23450117,12.9423215 L8.23449387,12.9423215 Z" id="Shape" stroke="#1F1A17" fill="#62B739"></path>
                            <path d="M9.1194438,10.9770229 C9.15710059,9.64205448 8.20626803,9.35467034 7.98974142,9.2526893 C7.43430469,9.0518266 6.99183702,9.14762237 6.63409798,9.28977178 C6.66234062,11.4467413 8.62049087,11.1191772 9.11944672,10.9770305 L9.1194438,10.9770229 Z" id="Shape" stroke="#1F1A17" fill="#62B739"></path>
                            <path d="M10.738689,9.36392828 C10.7983122,8.61609843 10.9144206,8.10930553 10.1455945,7.48199416 C9.75961208,7.22550767 9.18534644,7.04318528 8.68639497,7.10189842 C8.30668984,8.87566994 9.77216517,9.53697979 10.7386847,9.3639254 L10.738689,9.36392828 Z" id="Shape" stroke="#1F1A17" fill="#62B739"></path>
                            <path d="M12.8097522,8.26993934 C13.0388304,7.8496722 13.4373644,7.22545016 12.9321366,6.29529649 C12.6999197,5.99554639 12.2135198,5.52892633 11.6988781,5.41458795 C10.5534855,6.90406611 11.931095,8.05979858 12.809753,8.26994221 L12.8097522,8.26993934 Z" id="Shape" stroke="#1F1A17" fill="#62B739"></path>
                            <path d="M14.9374567,7.63956595 C15.3359908,7.28419205 15.8757372,6.6414297 15.5211368,5.60930361 C15.37051,5.31573362 15.0410128,4.82748247 14.636203,4.63588921 C13.0514828,5.85033913 14.2157029,7.14822547 14.9374567,7.6395717 L14.9374567,7.63956595 Z" id="Shape" stroke="#1F1A17" fill="#62B739"></path>
                            <path d="M17.4793156,4.65445684 C17.0870573,4.83677922 16.355889,5.46409059 16.4437548,6.56420788 C16.5190684,6.93503276 16.7732519,7.34293969 17.1215765,7.62105726 C17.9939588,7.17915761 18.9698985,5.754577 17.4793156,4.65446402 L17.4793156,4.65445684 Z" id="Shape" stroke="#1F1A17" fill="#62B739"></path>
                            <path d="M20.3411695,5.47027645 C19.8453552,5.62787698 19.2648137,5.85964163 18.9666971,6.73107929 C18.8306913,7.48461916 19.0880299,8.09335572 19.2867798,8.2699954 C20.6738038,7.89299043 21.3641786,6.33862334 20.3411695,5.47027501 L20.3411695,5.47027645 Z" id="Shape" stroke="#1F1A17" fill="#62B739"></path>
                            <path d="M23.353678,7.15754953 C22.9488682,7.12355724 21.9603782,7.04321202 21.376701,8.20512948 C21.1350697,8.59758543 21.2732025,9.04311782 21.3013874,9.40103908 C22.7574483,9.45048235 23.8746034,8.4894286 23.3536771,7.15755672 L23.353678,7.15754953 Z" id="Shape" stroke="#1F1A17" fill="#62B739"></path>
                            <path d="M22.9771874,10.9955675 C22.9489448,10.3837071 22.9960158,9.58643499 24.2198603,9.21561443 C24.7376407,9.1105475 25.1236231,9.17235155 25.5190185,9.2897794 C25.3966341,10.9337673 24.3610728,11.2798761 22.9771889,10.9955684 L22.9771874,10.9955675 Z" id="Shape" stroke="#1F1A17" fill="#62B739"></path>
                            <path d="M23.899801,12.8866877 C24.1561168,12.3013547 24.3218646,11.6746989 25.632008,11.570261 C26.0870273,11.6042533 26.5138033,11.7865747 26.7993682,11.978168 C26.5389094,13.4491015 24.9133971,13.7334092 23.8997923,12.8866877 L23.899801,12.8866877 Z" id="Shape" stroke="#1F1A17" fill="#62B739"></path>
                            <path d="M24.445778,15.0561209 C24.8066557,14.5709591 25.0733903,13.8818438 26.4604187,14.1290595 C26.8181577,14.1908635 27.2182611,14.4241734 27.5336358,14.7594616 C27.109997,15.3064273 26.5828022,16.09443 25.2742252,15.5938172 C24.9792472,15.4980209 24.6748548,15.2817069 24.4457766,15.0561224 L24.445778,15.0561209 Z" id="Shape" stroke="#1F1A17" fill="#62B739"></path>
                            <path d="M24.5022735,17.1512319 C24.696834,16.8329415 25.0231925,16.1623666 26.385106,16.3910419 C26.8840574,16.5501878 27.1947257,16.8622981 27.5148083,17.2439378 C27.1884498,17.7352797 26.570252,18.3285998 25.5189995,17.9670458 C25.1424316,17.8248964 24.794107,17.5714991 24.5022677,17.1512319 L24.5022735,17.1512319 Z" id="Shape" stroke="#1F1A17" fill="#62B739"></path>
                            <path d="M27.3452956,18.4305233 C28.4153755,17.5498148 29.880848,17.8928285 30.3013524,18.486147 C30.731267,18.9867598 30.8787567,19.4039376 30.9980031,19.9879882 C29.802401,20.7358181 28.6821116,20.436068 28.0607781,19.8952821 C27.6245877,19.5368189 27.3766805,18.9836716 27.3453,18.4305301 L27.3452956,18.4305233 Z" id="Shape" stroke="#1F1A17" fill="#00923F"></path>
                            <path d="M27.740764,15.7050389 C28.2805105,15.3094922 28.9520564,14.589475 30.3767382,15.0746368 C30.9258991,15.3033121 31.4279892,15.9120817 31.7135527,16.7062616 C31.0796646,17.3459347 29.7114666,17.7445707 28.5127259,16.8731331 C28.198919,16.5764737 27.8568702,16.23346 27.7407625,15.7050361 L27.740764,15.7050389 Z" id="Shape" stroke="#1F1A17" fill="#00923F"></path>
                            <path d="M27.2134728,13.2575801 C27.4111705,12.9361989 28.4090749,11.335466 30.0942169,12.0709414 C30.4770607,12.2934366 30.8881464,12.6549906 31.2427482,13.072167 C31.0199458,13.3564661 30.1099072,14.6049015 28.6820868,14.2588057 C28.1925483,14.1475584 27.5523844,13.7860041 27.213467,13.2575801 L27.2134728,13.2575801 Z" id="Shape" stroke="#1F1A17" fill="#00923F"></path>
                            <path d="M26.0838551,10.5504966 C26.5169083,9.70687009 26.9405471,8.62221528 28.2867702,8.71490964 C28.6445093,8.70254881 29.2940891,8.79216481 29.9813282,9.45655938 C29.7206738,10.0708981 29.2306988,11.0090749 28.1926257,11.1623483 C27.4896992,11.310678 26.8244306,11.1901602 26.0838405,10.5504879 L26.0838551,10.5504966 Z" id="Shape" stroke="#1F1A17" fill="#00923F"></path>
                            <path d="M24.5211054,8.12158236 C24.5085531,7.06473298 24.6654563,6.17475645 25.5001808,5.67413791 C25.9363712,5.43928249 26.4855322,5.21369794 27.5713024,5.58143176 C27.7062391,5.94916586 27.6340636,7.00292591 26.8746517,7.76929463 C26.4384613,8.04432288 25.6916013,8.49549197 24.5211112,8.12157776 L24.5211054,8.12158236 Z" id="Shape" stroke="#1F1A17" fill="#00923F"></path>
                            <path d="M21.8097601,6.24900681 C23.667498,6.30463047 24.0377843,5.09945013 24.2197961,4.46905374 C24.2919715,4.10440897 24.3076619,3.35966989 23.9561987,2.93013763 C22.3965876,2.93013763 21.9478353,3.56981065 21.6214754,4.26510603 C21.420639,5.03765773 21.5210574,5.60625453 21.8097586,6.24902119 L21.8097601,6.24900681 Z" id="Shape" stroke="#1F1A17" fill="#00923F"></path>
                            <path d="M18.9290743,5.02520552 C20.0681912,4.86760498 20.8213227,3.83856678 20.7930895,2.85588727 C20.8181941,2.08951711 20.494973,1.63834658 20.190582,1.27988191 C18.5023013,1.55181939 18.1131832,2.88061343 18.2889177,3.65316225 C18.3893358,4.14759494 18.6780373,4.6512985 18.9290831,5.02521271 L18.9290743,5.02520552 Z" id="Shape" stroke="#1F1A17" fill="#00923F"></path>
                            <path d="M16.0482426,4.30210902 C16.4310864,4.08270458 17.9530455,2.97332073 17.0273181,1.33551578 C16.8076543,0.949239927 16.4938475,0.637129626 16.085899,0.371372255 C15.1601701,0.739106359 14.6957364,1.97828531 14.9232467,2.94860031 C14.9703177,3.39049997 15.4645625,4.07343514 16.0482426,4.30211046 L16.0482426,4.30210902 Z" id="Shape" stroke="#1F1A17" fill="#00923F"></path>
                            <path d="M13.0922296,5.04375014 C14.0650292,4.01471194 13.9363684,2.42943284 13.1863715,1.87319481 C12.7768537,1.55490441 12.3202665,1.36640192 11.9436986,1.27987616 C11.1811497,1.90718753 11.1529063,3.42448263 11.7177575,4.13523042 C12.1288432,4.66056506 12.6340719,4.8799695 13.0922299,5.04375014 L13.0922296,5.04375014 Z" id="Shape" stroke="#1F1A17" fill="#00923F"></path>
                            <path d="M10.3433666,6.26755143 C10.4500608,5.55680508 11.0274642,4.43814604 9.74085909,3.28241357 C9.37056696,3.11863293 8.61429388,2.89922849 8.19692656,2.89304839 C7.75795958,3.63212201 7.75348811,4.63700477 8.19692656,5.26632873 C8.61115087,5.76694152 9.34545785,6.3046378 10.3433608,6.26755431 L10.3433666,6.26755143 Z" id="Shape" stroke="#1F1A17" fill="#00923F"></path>
                            <path d="M7.59435771,8.10303774 C7.6320145,6.76497857 7.03892097,5.73284817 6.182229,5.50726506 C5.42909311,5.25695867 4.82658556,5.4516414 4.43119017,5.56288872 C4.40922379,6.51158126 4.78265339,7.55298542 5.29729513,7.76929622 C6.23243845,8.50167509 6.98871444,8.23282695 7.59435479,8.1030376 L7.59435771,8.10303774 Z" id="Shape" stroke="#1F1A17" fill="#00923F"></path>
                            <path d="M5.97511247,10.5134073 C5.52253547,9.23150961 4.63456223,8.73510746 3.77219736,8.69636501 C2.83705404,8.74580828 2.35379284,9.20315791 2.15295212,9.45655507 C2.44793008,10.5381263 3.1947887,10.9800317 3.77219736,11.1438138 C4.62888933,11.3230454 5.61738073,11.0016644 5.97511247,10.5134116 L5.97511247,10.5134073 Z" id="Shape" stroke="#1F1A17" fill="#00923F"></path>
                            <path d="M4.82651695,13.2019462 C4.490744,12.6797024 3.59011986,11.5548675 2.15289373,11.9967672 C1.83908687,12.0771126 1.2993404,12.4170343 0.872564466,13.0721583 C1.16440379,13.5233289 1.68218416,14.2989699 2.96251781,14.3700447 C3.60268317,14.3236916 4.51586624,14.0270324 4.82653301,13.2019477 L4.82651695,13.2019462 Z" id="Shape" stroke="#1F1A17" fill="#00923F"></path>
                            <path d="M4.31820358,15.7235836 C3.4626386,15.1873651 2.63428781,14.5723464 1.34331491,15.2971349 C0.765910628,15.6061559 0.489761579,16.3416241 0.458381039,16.6691853 C0.957332509,17.1234452 1.8799242,17.6704109 2.94372978,17.2254219 C3.40188771,17.0956333 4.15188351,16.6321033 4.31820212,15.7235807 L4.31820358,15.7235836 Z" id="Shape" stroke="#1F1A17" fill="#00923F"></path>
                            <path d="M4.77016745,18.3934341 C4.01389438,18.0257 2.42767784,17.3698012 1.51285975,18.8198828 C1.3057476,19.1598057 1.15512072,19.5646219 1.11746436,20.0065215 C1.84235689,20.3340828 2.81202231,20.7914334 3.88523212,19.9879803 C4.2850654,19.6867021 4.65665532,19.2287189 4.77016599,18.3934304 L4.77016745,18.3934341 Z" id="Shape" stroke="#1F1A17" fill="#00923F"></path>
                            <path d="M10.0865822,16.0504864 C9.54837007,17.7563041 9.97514659,19.7216747 10.4113379,20.7321697 C11.0201227,21.9867924 11.8736804,23.0374675 12.8590229,24.0510532 C13.869479,25.2871357 14.8046281,26.6344628 16.0033689,26.4799531 C17.4280492,26.5201258 18.0901836,25.1789774 18.3569094,24.8483282 C19.7156915,23.5442618 20.6790782,22.3143566 21.388279,20.9361318 C22.3610786,18.8842341 22.062962,17.3978467 21.868403,15.9763511 C21.7899513,14.6908264 20.5723834,14.3416355 19.9196591,14.1500364 C19.2261472,14.0017068 17.9866085,14.1593071 17.0765787,13.8719174 C16.5682127,13.7637603 16.3705151,13.4238377 16.3422717,13.0190215 C17.1016834,13.7421295 17.9740715,13.667964 18.7334759,13.6865057 C19.8509653,13.5261666 20.6963363,14.0625432 21.5577391,14.5579434 C21.5043633,14.3827355 21.4452861,14.188822 21.3882833,14.0017068 C20.4970736,13.4238391 19.6341059,13.2724187 19.1665364,13.2971405 C18.087042,13.4207488 17.1864208,13.1642617 16.2857923,12.5647617 C16.2010645,12.4983223 16.2010645,12.2418351 16.2387213,12.1197727 C17.0797215,12.84597 18.1560788,12.9371319 18.8464477,12.9077753 C19.8396442,12.8660576 20.5927859,13.2260658 21.1623392,13.4825537 C21.1670463,13.1998 20.9646415,12.9541283 20.7387005,12.8985045 C20.0249172,12.6734231 19.3108815,12.5122286 18.5828503,12.5554922 C17.6037748,12.5833041 16.9544957,12.2469083 16.2390177,11.8482708 C16.1919467,11.7370235 16.1728137,11.5743523 16.238713,11.4522885 L16.0410153,11.4708296 C16.1100527,11.7025943 15.9366661,11.8741752 15.7925272,11.9519505 C15.1868868,12.3487752 14.6132022,12.3715678 14.0075473,12.4164314 C13.1853745,12.5122278 12.3443757,12.4782355 11.5410304,12.7038199 C11.0656143,12.7795299 11.0279565,13.00357 10.9196939,13.2507856 C11.4500259,12.9108627 12.0839155,12.8861408 12.7366295,12.8428787 C13.8631947,12.876871 14.9967555,12.7162143 15.9726967,12.1939693 C16.0040428,12.3430637 15.9507015,12.5611887 15.9397988,12.6759727 C14.9356186,13.0776996 14.0138283,13.2847769 13.2826571,13.1858909 C12.5420743,13.1611692 11.8579767,13.2198832 11.2868483,13.4176556 C10.8710547,13.544354 10.6341313,13.7313112 10.5619557,14.0480577 C11.235071,13.718951 11.96467,13.6308799 12.7648709,13.5752561 C13.4803489,13.5026364 14.2617238,13.6710524 14.8548242,13.4825499 C15.2925839,13.3635771 15.5703023,13.2214273 15.871556,13.0004775 C15.9013677,13.4980009 15.672289,13.5783451 15.3537757,13.7143146 C14.3935276,14.0604176 12.5248118,13.7714834 11.8799457,14.0573269 C10.9228363,14.2921823 10.3517064,15.2408748 10.1100751,15.9021717 C10.1100981,15.9021547 10.1101153,15.9021264 10.0865741,16.0504726 L10.0865822,16.0504864 Z" id="Shape" stroke="#1F1A17" fill="#FFFFFF"></path>
                            <path d="M16.2387506,11.4524265 C16.1728514,11.4586069 16.1069519,11.4647873 16.041053,11.4709677 C15.5452387,11.7552668 14.9976471,12.0442006 14.3794434,12.0550169 C13.4364549,12.1338171 12.1310253,12.1523583 11.2492286,12.5695352 C11.2445216,12.2481541 11.4610473,12.0751026 11.9364648,11.9715804 C12.8763146,11.7552668 14.173905,11.8773292 14.9395866,11.6007556 C15.4254974,11.4379884 15.8464866,11.2052088 16.2010885,10.9518131 C17.0562111,11.6285682 18.4609954,11.750218 18.8370626,11.8464272 C19.0959535,11.8804195 21.0070293,12.2203414 20.8140396,12.6112535 C20.0561972,12.3223196 19.3124714,12.2280684 18.554629,12.1755353 C17.6791096,12.1477234 17.0033243,11.7474622 16.2387375,11.4524273 L16.2387506,11.4524265 Z" id="Shape" stroke="#FFFFFF" fill="#FFFFFF"></path>
                            <path d="M10.0359261,16.2931478 L10.082997,15.996477 C11.1060062,15.2146559 12.6844462,14.8221999 13.6603874,15.4031584 C15.0128922,16.0582824 15.1321459,17.482873 15.0348598,18.6200609 C15.0725166,19.2720941 14.9341774,19.652036 14.865404,20.0477351 C14.6504467,20.4371003 14.6849659,20.8542781 15.1666578,20.7430305 C15.3454696,20.6959926 15.4490607,20.7415477 15.5620531,20.8171955 C15.7567056,21.0193549 16.1488704,20.9995179 16.3716728,20.8125602 C16.4689528,20.7183089 16.5615254,20.7121285 16.6917555,20.7244893 C16.9726125,20.7878385 17.3368522,20.7220726 17.0824444,20.1218998 C17.4386141,20.4649121 17.3334902,20.8913607 17.2895566,20.9979722 C17.04488,21.3549705 16.8303417,21.2669166 16.6117349,21.2390077 C16.4077613,21.3811571 15.926068,21.7226241 15.3078702,21.2343724 C14.8261768,21.4120586 14.6222033,21.0474153 14.5829777,20.9191713 C14.6080822,19.6336466 14.1602352,18.7800851 13.754529,18.1194509 C13.4548446,17.7733479 13.2681292,17.7702571 12.9260804,17.8042499 C12.2404136,17.9216776 11.9407291,17.6636455 11.7587202,17.4890488 C12.3502455,17.7455353 12.8570421,17.5802098 13.2085053,17.4519663 C13.6315631,17.2853393 14.1133542,17.2489918 14.4558862,17.3824368 C14.2723094,17.0749612 13.9332256,17.0388351 13.4462579,17.0834903 C12.7652975,17.3986913 12.1760832,17.3499894 11.6080963,17.1923889 C11.0840401,16.837015 10.5317405,16.3889352 10.0359306,16.2931401 L10.0359306,16.2931514 L10.0359261,16.2931478 Z" id="Shape" stroke="#1F1A17" fill="#4D2612"></path>
                            <path d="M14.3853484,16.8724876 C14.1468557,15.8511749 12.9050062,15.1495341 11.8529347,15.4309092 C11.1782516,15.5792388 10.5082751,15.9268872 10.0971952,16.2050048 C10.561629,16.1833735 11.1070075,16.4807173 11.5610998,16.6731703 C12.1071221,16.903391 12.7942604,16.7090303 13.22741,16.5433816 C13.6243747,16.44295 14.0166329,16.5742837 14.3853557,16.8724883 L14.3853484,16.8724876 Z" id="Shape" stroke="#1F1A17" fill="#FFFFFF"></path>
                            <path d="M16.9385939,18.1612669 C17.5018758,17.6127558 17.989845,17.7780819 18.5154748,17.8970549 C19.0293765,18.048034 19.5573581,18.1384197 20.2100328,17.6931015 C19.7926699,17.8244352 19.2482169,17.8769693 18.7649542,17.6838309 C18.413491,17.5463167 17.8673534,17.3326619 17.479917,17.563313 C17.5139471,17.3485274 18.0565797,17.1828895 18.4872519,17.2689681 C18.6287292,17.2915335 19.1277384,17.6002656 19.9840903,17.4613362 C20.461737,17.3600669 20.8907829,17.0244407 21.0761363,16.8309341 C21.2110731,16.7212319 21.3930803,16.5651767 21.7351291,16.515733 C21.396219,16.4585643 21.019651,16.5172781 20.661912,16.7196865 C20.5395276,16.8077573 19.7581492,17.2666522 19.0520827,16.8309338 C18.772795,16.7135061 18.3946577,16.6007131 18.0730072,16.7567688 C17.8815853,16.8123925 17.7301818,16.9409025 17.5834687,17.0348878 C17.7905809,16.135639 18.6755147,15.6164845 19.5039648,15.5886661 C20.2288573,15.5237718 21.2455877,15.9625803 21.848104,16.441562 C21.622163,16.0429259 20.9631701,15.6535593 20.2382747,15.4403364 C19.0238437,15.0973242 18.2142182,15.6072078 17.752926,15.913138 C17.0625526,16.4879164 16.819352,17.4288806 16.9385983,18.1612637 L16.9385939,18.1612669 Z" id="Shape" stroke="#1F1A17" fill="#4D2612"></path>
                            <path d="M14.5219887,23.0086011 C14.8091215,23.2712691 15.1292042,23.5107593 15.4822367,23.5184848 C15.7678002,23.5153946 15.9482398,23.4587351 16.3389287,23.5092142 C16.7723381,23.549783 17.0857873,23.2125548 17.3744894,22.9807887 C17.2452311,23.3990533 17.0080148,23.7337795 16.5272119,23.8800376 C16.1914054,23.9392099 15.8558792,23.9623582 15.5010656,23.8985788 C14.9069258,23.7880558 14.6876752,23.4169433 14.5219901,23.0085994 L14.5219887,23.0086011 Z" id="Shape" stroke="#1F1A17" fill="#4D2612"></path>
                            <path d="M15.7082478,23.0040009 C15.8992274,23.0988407 16.0034725,23.0819182 16.1601285,23.0086362 C16.2793748,22.9421969 16.3562569,22.898934 16.5178675,22.9066595 C16.7335197,22.9165357 16.8334788,22.8696336 16.9367983,22.8371299 C17.2051022,22.7104315 17.4922351,22.3195208 17.7417115,22.4570342 C17.6915025,22.379779 17.6036367,22.3071591 17.4357498,22.3782339 C17.1219429,22.4740303 16.8363794,22.7598736 16.4943307,22.6656224 C16.2134737,22.4848454 16.0879515,22.5451045 15.9483084,22.6378105 C15.6925561,22.4632136 15.5309454,22.5806417 15.3787492,22.6424458 C15.0978922,22.8015917 14.7707644,22.5121025 14.4938154,22.3828685 C14.1956827,22.3056021 14.14672,22.3837571 14.0654701,22.4570335 C14.3349361,22.3348799 14.5673135,22.6276742 14.8609689,22.7815054 C15.1504812,23.0270132 15.439941,22.8139526 15.7082464,23.0040006 L15.7082478,23.0040009 Z" id="Shape" stroke="#1F1A17" fill="#4D2612"></path>
                        </g>
                    </g>
                    <circle id="Oval-56" fill="#FFFFFF" cx="53.5" cy="131.5" r="3.5"></circle>
                    <rect id="Rectangle-39" fill="#FFFFFF" x="50" y="5" width="11" height="2"></rect>
                    <rect id="Rectangle-40" fill="#FFFFFF" x="46" y="5" width="2" height="2"></rect>
                </g>
            </g>
            <g id="Oval-64-+-Rectangle-42-+-Rectangle-43" sketch:type="MSLayerGroup" transform="translate(553.000000, 3148.000000)">
                <ellipse id="Oval-64" fill="#D9DBE0" sketch:type="MSShapeGroup" cx="30" cy="96.5" rx="30" ry="2.5"></ellipse>
                <g id="Rectangle-42-+-Rectangle-43" transform="translate(6.000000, 0.000000)" sketch:type="MSShapeGroup">
                    <rect id="Rectangle-42" fill="#48505E" x="0" y="0" width="46" height="97" rx="4"></rect>
                    <rect id="Rectangle-43" fill="#FAFAFA" x="3" y="14" width="40" height="68"></rect>
                    <path d="M43,14 L43,82 L2.89453125,82 L2.89453125,67.5009766 L43,14 Z" id="Rectangle-46" fill-opacity="0.03" fill="#000000"></path>
                    <g id="Group-4" transform="translate(12.000000, 32.000000)">
                        <g id="Oval-1-+-Oval-3-+-DEMETER" transform="translate(0.000000, 1.000000)" fill="#222837">
                            <path d="M12.5,25.2986226 C19.4035594,25.2986226 25,19.635333 25,12.6493113 C25,5.66328957 19.4035594,0 12.5,0 C5.59644063,0 0,5.66328957 0,12.6493113 C0,19.635333 5.59644063,25.2986226 12.5,25.2986226 Z" id="Oval-1"></path>
                        </g>
                        <g id="Layer_x0020_1" transform="translate(1.712329, 1.924151)" stroke-width="0.003">
                            <path d="M10.8052346,6.94740223 C10.5338341,6.59660868 10.281517,6.21353362 10.4999098,5.72069705 C10.6057545,5.49197031 10.7522269,5.32686149 10.8942882,5.25584198 C11.5579464,5.85197557 11.2738247,6.71281469 10.805235,6.94739722 L10.8052346,6.94740223 Z" id="Shape" stroke="#1F1A17" fill="#9ECF6F"></path>
                            <path d="M11.8738708,7.02489226 C11.7190882,6.73866171 11.4943343,6.31039315 11.7339301,5.83693209 C11.8229833,5.67767607 12.0074503,5.46677004 12.3064149,5.39790203 C12.5756947,5.9144081 12.8004476,6.62460721 11.8738708,7.02489226 L11.8738708,7.02489226 Z" id="Shape" stroke="#1F1A17" fill="#9ECF6F"></path>
                            <path d="M12.8535361,7.38641227 C12.8217314,6.92908995 12.7931072,6.48790739 13.1461397,6.1919946 C13.3295468,6.06502008 13.4779683,5.99615307 13.7949559,5.99184907 C13.9550393,6.84731194 13.4186005,7.47034678 12.8535371,7.38640926 L12.8535361,7.38641227 Z" id="Shape" stroke="#1F1A17" fill="#9ECF6F"></path>
                            <path d="M13.6295156,7.98040236 C13.7249297,7.61992456 13.8235242,7.22070875 14.2020004,7.02486723 C14.294234,6.96891242 14.5900177,6.8548507 15.0034785,7.05069253 C14.9843956,7.1765908 14.7840264,8.30321771 13.6295205,7.98040266 L13.6295156,7.98040236 Z" id="Shape" stroke="#1F1A17" fill="#9ECF6F"></path>
                            <path d="M14.3145514,8.8329929 C14.4766549,8.54227314 14.6165255,8.17084962 15.2833637,8.10951436 C15.5621847,8.10843831 15.7837575,8.26877039 15.9067355,8.3419414 C15.7752757,8.53025117 15.4637614,9.49046575 14.3145524,8.8329919 L14.3145514,8.8329929 Z" id="Shape" stroke="#1F1A17" fill="#9ECF6F"></path>
                            <path d="M14.8126696,9.9173527 C14.9610911,9.64618766 15.2303709,9.28463361 15.9321928,9.37502163 C16.1262015,9.42667223 16.313849,9.58808016 16.4410684,9.72366267 C16.0477503,10.224027 15.4508784,10.5242468 14.8126657,9.9173527 L14.8126696,9.9173527 Z" id="Shape" stroke="#1F1A17" fill="#9ECF6F"></path>
                            <path d="M14.8890149,11.0923178 C15.321559,10.8426737 15.582357,10.5349222 16.3011455,10.9631918 C16.3807582,11.0750577 16.4612289,11.1611858 16.5174176,11.2989208 C16.2672202,11.5141318 15.4636263,12.0779829 14.8890149,11.0923188 L14.8890149,11.0923178 Z" id="Shape" stroke="#1F1A17" fill="#9ECF6F"></path>
                            <path d="M9.35497075,5.38498702 C9.88292872,5.55715605 10.0292305,5.9617511 10.0419517,6.35343516 C10.0228689,6.52560419 9.92109345,6.87209273 9.8129584,6.99906725 C8.99406683,6.75084587 9.09666538,6.05474214 9.35497075,5.38499203 L9.35497075,5.38498702 Z" id="Shape" stroke="#1F1A17" fill="#9ECF6F"></path>
                            <path d="M7.87925853,6.00480713 C8.46658528,5.94885232 8.7549474,6.41585968 8.82067731,6.80539124 C8.86096323,7.03997077 8.82279374,7.21009342 8.80795547,7.41228533 C7.75416417,7.2465728 7.76899922,6.5191607 7.87925793,6.00481013 L7.87925853,6.00480713 Z" id="Shape" stroke="#1F1A17" fill="#9ECF6F"></path>
                            <path d="M6.69926084,6.99585852 C6.686539,7.27025231 6.78513357,7.68668512 7.13180501,7.90942791 C7.39362877,8.05774222 7.77319979,8.10634568 8.00643452,7.99336002 C7.85271228,7.06687763 7.26962594,6.92806236 6.6992638,6.99585812 L6.69926084,6.99585852 Z" id="Shape" stroke="#1F1A17" fill="#9ECF6F"></path>
                            <path d="M7.33221622,8.80686254 C7.14668839,8.38504948 6.8212209,8.12141619 6.40033862,8.10312394 C6.12469775,8.08052679 5.8810558,8.2545799 5.76742566,8.31618247 C6.11091615,8.97042256 6.88058673,9.33735887 7.3322172,8.80686254 L7.33221622,8.80686254 Z" id="Shape" stroke="#1F1A17" fill="#9ECF6F"></path>
                            <path d="M6.86151916,9.87860769 C6.60178059,9.48154438 6.13849217,9.2846266 5.67520869,9.39761187 C5.52572686,9.42236112 5.32217702,9.6020624 5.23312334,9.71074367 C5.7290242,10.3914835 6.50653052,10.4399058 6.86152606,9.87860769 L6.86151916,9.87860769 Z" id="Shape" stroke="#1F1A17" fill="#9ECF6F"></path>
                            <path d="M6.75972549,11.1052328 C6.52967181,10.9115427 5.90523969,10.5435332 5.48754142,10.8728057 C5.39277201,10.9377906 5.24582585,11.0869405 5.18221665,11.3247478 C5.63808359,11.7454846 6.4533453,11.8046674 6.7597324,11.1052328 L6.75972549,11.1052328 Z" id="Shape" stroke="#1F1A17" fill="#9ECF6E"></path>
                            <path d="M5.15677119,11.931693 C4.96382288,11.7401554 4.68182089,11.1935203 3.7128399,11.4797509 C3.47536475,11.5808994 3.16791928,11.8951074 3.083107,12.086645 C3.86974319,12.9517921 4.64365714,12.5966945 5.15676823,11.931693 L5.15677119,11.931693 Z" id="Shape" stroke="#1F1A17" fill="#62B739"></path>
                            <path d="M5.10587436,10.4984278 C4.9913772,10.2552393 4.71149591,9.8183617 4.06903881,9.8269707 C3.64921688,9.74734279 3.21667272,10.1390262 3.0830932,10.3047388 C3.45202717,11.0407589 4.34891517,11.2731869 5.10586745,10.4984288 L5.10587436,10.4984278 Z" id="Shape" stroke="#1F1A17" fill="#62B739"></path>
                            <path d="M5.56384721,9.0134025 C5.26064216,8.3505534 4.91291125,8.16547238 4.54609798,8.11597387 C4.14535842,8.05356276 3.70645412,8.23003539 3.6046792,8.36777041 C4.06902796,9.82689561 5.15250513,9.25013453 5.56385214,9.0134025 L5.56384721,9.0134025 Z" id="Shape" stroke="#1F1A17" fill="#62B739"></path>
                            <path d="M6.16178635,7.64471236 C6.18723013,6.71500223 5.54477569,6.5148597 5.39847393,6.44383719 C5.02317884,6.30395067 4.7242142,6.37066558 4.48249864,6.46966249 C4.5015815,7.97183771 5.82465599,7.74371268 6.16178832,7.64471767 L6.16178635,7.64471236 Z" id="Shape" stroke="#1F1A17" fill="#62B739"></path>
                            <path d="M7.25587097,6.52130719 C7.2961569,6.00049712 7.37460854,5.64755207 6.85513141,5.21067451 C6.59433249,5.03204998 6.20631516,4.90507546 5.86918579,4.94596497 C5.61262827,6.18127014 6.60281431,6.64182521 7.25586801,6.52130519 L7.25587097,6.52130719 Z" id="Shape" stroke="#1F1A17" fill="#62B739"></path>
                            <path d="M8.65523794,5.75942204 C8.81002054,5.466736 9.07930029,5.03200993 8.7379301,4.38422434 C8.58102681,4.17546981 8.25237827,3.85050226 7.90464737,3.77087375 C7.13073341,4.8081889 8.06155066,5.61307401 8.65523853,5.75942404 L8.65523794,5.75942204 Z" id="Shape" stroke="#1F1A17" fill="#62B739"></path>
                            <path d="M10.0928762,5.320412 C10.3621559,5.07291946 10.7268495,4.6252814 10.4872546,3.9064793 C10.3854797,3.70202877 10.1628465,3.36199672 9.88932633,3.2285657 C8.81856943,4.07434332 9.60520463,4.97822845 10.0928762,5.320416 L10.0928762,5.320412 Z" id="Shape" stroke="#1F1A17" fill="#62B739"></path>
                            <path d="M11.8103484,3.24149672 C11.545309,3.36847124 11.0512764,3.80534881 11.1106451,4.57150192 C11.1615327,4.82975496 11.3332783,5.113833 11.5686328,5.30752202 C12.1580802,4.99977048 12.817499,4.00765184 11.8103484,3.24150173 L11.8103484,3.24149672 Z" id="Shape" stroke="#1F1A17" fill="#62B739"></path>
                            <path d="M13.7440334,3.80965681 C13.4090238,3.91941433 13.016766,4.08082185 12.8153359,4.68771594 C12.7234401,5.21250263 12.8973175,5.63644416 13.031608,5.75946108 C13.9687863,5.49690405 14.4352558,4.4143984 13.7440334,3.80965581 L13.7440334,3.80965681 Z" id="Shape" stroke="#1F1A17" fill="#62B739"></path>
                            <path d="M15.7795122,4.984722 C15.505992,4.96104879 14.8380934,4.90509408 14.4437169,5.7142866 C14.2804525,5.98760414 14.3737855,6.29788562 14.3928294,6.54715222 C15.3766543,6.58158592 16.1314888,5.91228063 15.7795116,4.984727 L15.7795122,4.984722 Z" id="Shape" stroke="#1F1A17" fill="#62B739"></path>
                            <path d="M15.5251266,7.65762736 C15.5060438,7.2315103 15.5378485,6.67626722 16.3647705,6.41801719 C16.7146221,6.34484558 16.975421,6.38788769 17.2425801,6.4696678 C17.1598879,7.61458796 16.4601843,7.855628 15.5251276,7.65762797 L15.5251266,7.65762736 Z" id="Shape" stroke="#1F1A17" fill="#62B739"></path>
                            <path d="M16.1485142,8.97465748 C16.3217005,8.56701489 16.4336923,8.13059385 17.3189243,8.05786035 C17.6263698,8.08153356 17.9147319,8.20850737 18.1076812,8.34193839 C17.9316956,9.36633854 16.8333764,9.56433857 16.1485083,8.97465748 L16.1485142,8.97465748 Z" id="Shape" stroke="#1F1A17" fill="#62B739"></path>
                            <path d="M16.5174176,10.4855128 C16.7612539,10.1476322 16.9414799,9.66771267 17.8786613,9.8398807 C18.1203768,9.8829228 18.3907169,10.0454065 18.603808,10.2789108 C18.3175656,10.6598333 17.9613528,11.2086209 17.0771792,10.8599798 C16.8778697,10.7932645 16.6721992,10.6426173 16.5174166,10.4855138 L16.5174176,10.4855128 Z" id="Shape" stroke="#1F1A17" fill="#62B739"></path>
                            <path d="M16.5555902,11.944608 C16.68705,11.7229414 16.9075625,11.2559339 17.8277743,11.4151899 C18.1649037,11.5260236 18.3748146,11.7433862 18.5910867,12.009171 C18.3705742,12.3513555 17.952873,12.7645606 17.2425673,12.512764 C16.9881295,12.4137671 16.752775,12.237294 16.5555863,11.944608 L16.5555902,11.944608 Z" id="Shape" stroke="#1F1A17" fill="#62B739"></path>
                            <path d="M18.4765511,12.835543 C19.1995781,12.2221925 20.1897621,12.461077 20.4738868,12.8742809 C20.7643696,13.222922 20.8640248,13.5134565 20.9445967,13.9202061 C20.1367574,14.4410162 19.3798051,14.2322616 18.9599852,13.8556429 C18.6652619,13.6059989 18.4977571,13.2207713 18.476554,12.8355477 L18.4765511,12.835543 Z" id="Shape" stroke="#1F1A17" fill="#00923F"></path>
                            <path d="M18.7437595,10.9374378 C19.108453,10.6619678 19.5622002,10.1605272 20.5248231,10.4984078 C20.8958778,10.6576638 21.2351278,11.0816284 21.4280761,11.6347179 C20.9997734,12.0802045 20.0753153,12.357826 19.2653553,11.7509319 C19.0533237,11.5443299 18.8222096,11.3054454 18.7437585,10.9374358 L18.7437595,10.9374378 Z" id="Shape" stroke="#1F1A17" fill="#00923F"></path>
                            <path d="M18.3874816,9.23295758 C18.5210612,9.00913854 19.1953209,7.89434238 20.3339304,8.40654846 C20.5926086,8.56150048 20.8703692,8.81329702 21.109965,9.10383056 C20.9594228,9.30182459 20.3445319,10.1712707 19.3797884,9.93023967 C19.0490191,9.85276386 18.6164759,9.60096713 18.3874777,9.23295758 L18.3874816,9.23295758 Z" id="Shape" stroke="#1F1A17" fill="#00923F"></path>
                            <path d="M17.6242264,7.34766725 C17.9168299,6.76014167 18.2030723,6.00475707 19.1126826,6.06931207 C19.3543981,6.06070364 19.7933034,6.12311478 20.2576542,6.58581814 C20.0815363,7.01366121 19.7504722,7.66703429 19.0490714,7.77377831 C18.5741211,7.87707932 18.1246153,7.79314731 17.6242166,7.34766125 L17.6242264,7.34766725 Z" id="Shape" stroke="#1F1A17" fill="#00923F"></path>
                            <path d="M16.5683144,5.656102 C16.5598332,4.9200819 16.6658488,4.30027681 17.2298519,3.95163176 C17.5245752,3.78807173 17.8956298,3.63096821 18.6292583,3.88706855 C18.7204318,4.14316908 18.6716646,4.87703769 18.1585485,5.41075876 C17.8638252,5.60229629 17.35919,5.91650333 16.5683184,5.6560988 L16.5683144,5.656102 Z" id="Shape" stroke="#1F1A17" fill="#00923F"></path>
                            <path d="M14.7363244,4.35198689 C15.9915527,4.39072479 16.2417461,3.55140277 16.3647271,3.11237671 C16.4134943,2.85842768 16.4240959,2.3397701 16.1866207,2.04063157 C15.1328294,2.04063157 14.8296185,2.48611813 14.609105,2.9703417 C14.4734048,3.50836878 14.541255,3.90435583 14.7363234,4.3519969 L14.7363244,4.35198689 Z" id="Shape" stroke="#1F1A17" fill="#00923F"></path>
                            <path d="M12.7899151,3.4996967 C13.5595886,3.38993918 14.0684613,2.67328758 14.0493848,1.98892149 C14.0663474,1.45519941 13.8479547,1.14099137 13.6422851,0.891346331 C12.501555,1.08073136 12.2386373,2.00614149 12.3573769,2.54416657 C12.4252269,2.88850362 12.6202955,3.23929717 12.789921,3.49970171 L12.7899151,3.4996967 Z" id="Shape" stroke="#1F1A17" fill="#00923F"></path>
                            <path d="M10.8434072,2.99611164 C11.1020854,2.84331212 12.1304362,2.07070551 11.5049447,0.930091345 C11.3565232,0.661077806 11.1444915,0.443715276 10.8688507,0.258634249 C10.2433582,0.514734786 9.9295516,1.37773441 10.0832748,2.0534895 C10.1150795,2.36124105 10.4490287,2.83685662 10.8434072,2.99611264 L10.8434072,2.99611164 Z" id="Shape" stroke="#1F1A17" fill="#00923F"></path>
                            <path d="M8.84610106,3.5126117 C9.50339814,2.7959601 9.41646517,1.69192644 8.90971046,1.30454639 C8.63300924,1.08287985 8.32450441,0.951601335 8.07006661,0.891342327 C7.55483087,1.32821989 7.53574752,2.38490754 7.91740373,2.87989261 C8.19516431,3.24575067 8.53653509,3.39855019 8.84610126,3.5126117 L8.84610106,3.5126117 Z" id="Shape" stroke="#1F1A17" fill="#00923F"></path>
                            <path d="M6.98876124,4.36490189 C7.06085187,3.86991782 7.4509893,3.09085171 6.58166154,2.28596659 C6.33146416,2.17190508 5.82046884,2.01910556 5.53846389,2.01480156 C5.24186458,2.52951355 5.23884332,3.2293426 5.53846389,3.66762179 C5.81834518,4.01626284 6.31449855,4.3907299 6.98875729,4.36490389 L6.98876124,4.36490189 Z" id="Shape" stroke="#1F1A17" fill="#00923F"></path>
                            <path d="M5.13132277,5.643187 C5.15676655,4.71132436 4.75602768,3.99251926 4.17718176,3.83541674 C3.66830616,3.66109621 3.26120646,3.79667883 2.99404741,3.87415464 C2.97920526,4.53485124 3.23152256,5.26011485 3.57925347,5.41075986 C4.21110706,5.92080944 4.72210435,5.73357591 5.1313208,5.6431869 L5.13132277,5.643187 Z" id="Shape" stroke="#1F1A17" fill="#00923F"></path>
                            <path d="M4.03723816,7.32183725 C3.73144289,6.42908705 3.13146097,6.08337841 2.548782,6.05639706 C1.91692841,6.09083077 1.59040057,6.40934211 1.45469738,6.58581514 C1.65400681,7.33905225 2.15864101,7.64680779 2.548782,7.76087031 C3.12762792,7.88569233 3.79552752,7.6618734 4.03723816,7.32184025 L4.03723816,7.32183725 Z" id="Shape" stroke="#1F1A17" fill="#00923F"></path>
                            <path d="M3.2611601,9.19421256 C3.03428649,8.83050701 2.42575666,8.0471399 1.45465793,8.35489144 C1.24262626,8.41084625 0.877932704,8.64757748 0.589570585,9.10382455 C0.786759314,9.4180326 1.13661092,9.95821117 2.00170122,10.0077097 C2.43424539,9.97542807 3.05126097,9.76882615 3.26117095,9.19421356 L3.2611601,9.19421256 Z" id="Shape" stroke="#1F1A17" fill="#00923F"></path>
                            <path d="M2.91770512,10.9503528 C2.33962068,10.576915 1.77992419,10.1485984 0.907645209,10.6533618 C0.517507181,10.8685728 0.330919986,11.3807739 0.309716918,11.6088969 C0.64684629,11.9252565 1.27021905,12.306179 1.9890066,11.996276 C2.29857278,11.9058875 2.80532669,11.5830719 2.91770414,10.9503508 L2.91770512,10.9503528 Z" id="Shape" stroke="#1F1A17" fill="#00923F"></path>
                            <path d="M3.22308612,12.809713 C2.7120908,12.5536125 1.64032286,12.0968258 1.02220254,13.1067041 C0.882261894,13.3434361 0.78048697,13.6253617 0.755043486,13.9331132 C1.24483574,14.1612362 1.90001507,14.4797483 2.62515684,13.9202006 C2.89531446,13.7103818 3.14638873,13.3914293 3.22308513,12.8097104 L3.22308612,12.809713 Z" id="Shape" stroke="#1F1A17" fill="#00923F"></path>
                            <path d="M6.81525828,11.1780173 C6.4516014,12.3659975 6.73996391,13.7347377 7.03468774,14.4384753 C7.44602883,15.3122304 8.02275702,16.0439506 8.68852901,16.7498407 C9.37126957,17.6106838 10.0031271,18.5490009 10.8130871,18.4413959 C11.7757089,18.4693733 12.223097,17.5353593 12.4033172,17.3050857 C13.3214132,16.3968966 13.9723501,15.5403555 14.4515398,14.5805203 C15.1088369,13.1515201 14.9074068,12.1163575 14.775948,11.1263874 C14.7229401,10.2311112 13.9002591,9.98792469 13.4592292,9.85448967 C12.99064,9.75118865 12.1531139,9.86094599 11.5382288,9.66079964 C11.1947383,9.58547593 11.0611588,9.3487441 11.0420755,9.06681856 C11.5551915,9.57041163 12.1446429,9.51876062 12.657754,9.53167362 C13.4128144,9.42000889 13.984011,9.79355688 14.56604,10.1385677 C14.5299752,10.0165479 14.4900582,9.88150105 14.4515428,9.75118865 C13.8493741,9.3487451 13.2662877,9.24329158 12.9503624,9.26050858 C12.2209743,9.3465929 11.6124465,9.16796797 11.0039137,8.75045901 C10.9466652,8.70418875 10.9466652,8.52556373 10.972109,8.44055597 C11.5403524,8.94630054 12.2676208,9.0097883 12.7340863,8.98934355 C13.405165,8.96029009 13.9140445,9.21101008 14.2988778,9.3896356 C14.3020583,9.19271783 14.1652983,9.02162505 14.0126354,8.98288704 C13.5303495,8.82613393 13.0478929,8.71387351 12.5559799,8.74400351 C11.8944424,8.76337251 11.4557404,8.52909683 10.9723092,8.25147429 C10.9405045,8.17399848 10.9275768,8.06070966 10.9721034,7.9757009 L10.8385239,7.9886135 C10.8851707,8.15002103 10.7680177,8.26951485 10.6706265,8.32367978 C10.26141,8.60003985 9.87378528,8.6159133 9.46455897,8.6471576 C8.90903681,8.71387291 8.34079439,8.6901997 7.79799349,8.84730312 C7.47676642,8.90002978 7.45132194,9.05605765 7.37817156,9.22822568 C7.736504,8.99149364 8.16480775,8.97427664 8.60583077,8.94414764 C9.36702347,8.96782084 10.1329429,8.85593495 10.7923626,8.4922286 C10.8135424,8.59606223 10.777501,8.74797072 10.7701343,8.82790959 C10.0916342,9.10768363 9.46880293,9.25189818 8.97476829,9.18303117 C8.47437451,9.16581427 8.01214645,9.20670437 7.62624883,9.34443869 C7.3453072,9.43267511 7.18522384,9.56287748 7.13645658,9.78346876 C7.59126417,9.55426947 8.08423648,9.49293422 8.62491274,9.45419621 C9.10834387,9.40362175 9.63629987,9.52091152 10.0370434,9.389633 C10.332827,9.30677694 10.5204745,9.20777972 10.7240244,9.05390395 C10.7441674,9.4003935 10.5893845,9.45634751 10.3741727,9.55104052 C9.7253565,9.79207656 8.46271065,9.59085448 8.02699037,9.78992406 C7.38029482,9.95348408 6.99439623,10.6141807 6.83113181,11.0747267 C6.83114735,11.0747149 6.831159,11.0746952 6.81525279,11.1780077 L6.81525828,11.1780173 Z" id="Shape" stroke="#1F1A17" fill="#FFFFFF"></path>
                            <path d="M10.9721288,7.97579701 C10.9276023,7.98010122 10.8830756,7.98440544 10.8385493,7.98870961 C10.5035396,8.18670364 10.1335453,8.38792542 9.71584014,8.39545817 C9.07868578,8.45033693 8.19663874,8.46324953 7.60083017,8.75378347 C7.5976497,8.52996444 7.74395088,8.40944642 8.06517893,8.33735066 C8.70021259,8.18670364 9.57696281,8.2717114 10.0943153,8.07909763 C10.4226334,7.96574193 10.7070855,7.80362759 10.9466814,7.62715556 C11.524467,8.09846713 12.4736455,8.18318756 12.727745,8.2501904 C12.9026713,8.2738636 14.1939387,8.51059494 14.0635403,8.78283723 C13.5514846,8.58161545 13.0489672,8.51597619 12.5369115,8.47939069 C11.9453443,8.46002168 11.4887327,8.18126833 10.9721199,7.97579761 L10.9721288,7.97579701 Z" id="Shape" stroke="#FFFFFF" fill="#FFFFFF"></path>
                            <path d="M6.78103114,11.3470137 L6.81283584,11.1404036 C7.50405823,10.5959211 8.57057175,10.3226035 9.2299915,10.7271996 C10.1438461,11.1834466 10.2244229,12.1755723 10.158689,12.9675424 C10.1841328,13.421637 10.0906604,13.6862394 10.0441919,13.9618155 C9.89895047,14.2329806 9.92227424,14.5235151 10.2477417,14.4460391 C10.3685605,14.4132806 10.4385545,14.4450064 10.5149008,14.4976897 C10.6464227,14.6384793 10.9113989,14.6246642 11.0619411,14.4944616 C11.1276708,14.4288223 11.1902199,14.4245181 11.2782132,14.4331265 C11.4679814,14.4772447 11.7140893,14.4314434 11.5421922,14.0134659 C11.7828474,14.2523495 11.7118177,14.5493405 11.6821328,14.6235878 C11.5168108,14.8722116 11.3718525,14.8108884 11.2241452,14.7914518 C11.0863252,14.8904487 10.7608568,15.1282561 10.3431555,14.7882236 C10.0176871,14.9119694 9.87986711,14.6580214 9.85336328,14.5687086 C9.87032583,13.6734325 9.56772651,13.0789879 9.29360071,12.6189033 C9.09111121,12.3778673 8.96495217,12.3757148 8.73383814,12.3993883 C8.27054972,12.4811683 8.06806023,12.3014674 7.94508125,12.1798733 C8.34476046,12.3584978 8.6871906,12.2433604 8.92466575,12.154048 C9.21051558,12.0380041 9.53605014,12.0126907 9.76749066,12.1056256 C9.64345232,11.8914908 9.41434161,11.8663316 9.08530937,11.8974307 C8.62520102,12.1169458 8.22708324,12.0830284 7.8433083,11.9732708 C7.48921627,11.7257783 7.1160409,11.4137228 6.7810342,11.3470082 L6.7810342,11.3470161 L6.78103114,11.3470137 Z" id="Shape" stroke="#1F1A17" fill="#4D2612"></path>
                            <path d="M9.71983002,11.7504824 C9.5586863,11.0392111 8.71959876,10.5505684 8.00873967,10.746526 C7.55287273,10.849827 7.10018584,11.0919393 6.82242921,11.2856284 C7.13623579,11.2705637 7.50473478,11.4776424 7.8115539,11.6116722 C8.18048788,11.7720044 8.64477056,11.6366461 8.93743918,11.5212836 C9.20565858,11.4513402 9.47069791,11.5428047 9.71983495,11.7504829 L9.71983002,11.7504824 Z" id="Shape" stroke="#1F1A17" fill="#FFFFFF"></path>
                            <path d="M11.4449959,12.6480252 C11.8255918,12.2660264 12.1553006,12.3811641 12.510456,12.4640204 C12.8576868,12.5691666 13.2144312,12.6321137 13.6554276,12.3219814 C13.3734256,12.413446 13.005552,12.4500322 12.6790231,12.3155251 C12.441548,12.2197563 12.0725361,12.0709609 11.8107547,12.231593 C11.8337481,12.0820102 12.2003917,11.9666552 12.4913864,12.0266028 C12.5869792,12.042318 12.9241476,12.2573279 13.5027637,12.1605734 C13.8254979,12.0900466 14.1153939,11.856307 14.2406326,11.7215434 C14.3318061,11.6451436 14.454784,11.5364624 14.685898,11.5020284 C14.4569047,11.4622144 14.2024669,11.5031044 13.9607513,11.6440674 C13.8780592,11.7054024 13.3501008,12.0249899 12.8730288,11.7215432 C12.6843209,11.6397632 12.4288228,11.5612109 12.2114913,11.6698926 C12.0821522,11.7086305 11.9798526,11.7981286 11.8807221,11.8635826 C12.0206627,11.23732 12.618591,10.875766 13.1783546,10.8563925 C13.6681468,10.8111982 14.3551268,11.116797 14.7622324,11.4503735 C14.6095696,11.172752 14.1643042,10.901586 13.6745099,10.7530914 C12.8539484,10.5142079 12.3069042,10.8693055 11.9952202,11.082364 C11.5287518,11.482656 11.364427,12.1379704 11.4449989,12.648023 L11.4449959,12.6480252 Z" id="Shape" stroke="#1F1A17" fill="#4D2612"></path>
                            <path d="M9.8121545,16.0238472 C10.0061632,16.2067767 10.2224352,16.3735645 10.4609707,16.3789447 C10.6539191,16.3767926 10.7758377,16.3373334 11.0398167,16.3724884 C11.3326609,16.4007418 11.5444509,16.1658864 11.7395199,16.0044779 C11.6521832,16.2957693 11.4919019,16.5288821 11.1670351,16.6307405 C10.9401388,16.6719497 10.7134319,16.6880709 10.473693,16.6436531 C10.0722472,16.5666817 9.92410485,16.3082284 9.81215549,16.023846 L9.8121545,16.0238472 Z" id="Shape" stroke="#1F1A17" fill="#4D2612"></path>
                            <path d="M10.613681,16.0206435 C10.7427212,16.0866926 10.8131571,16.0749073 10.9190057,16.0238716 C10.9995776,15.9776014 11.0515249,15.9474719 11.1607213,15.9528521 C11.3064322,15.9597302 11.3739721,15.9270663 11.4437827,15.9044298 C11.6250691,15.8161934 11.8190778,15.543952 11.9876429,15.6397202 C11.9537179,15.5859175 11.8943491,15.535343 11.780912,15.5848415 C11.5688804,15.6515568 11.3759321,15.8506263 11.144818,15.784987 C10.9550498,15.6590887 10.8702375,15.7010549 10.775884,15.765618 C10.6030785,15.6440237 10.4938821,15.725804 10.3910468,15.7688462 C10.2012785,15.8796799 9.98024622,15.6780714 9.79311849,15.5880691 C9.59167751,15.5342586 9.55859457,15.588688 9.50369603,15.6397197 C9.68576761,15.5546485 9.8427794,15.7585588 10.0411952,15.8656913 C10.2368116,16.0366699 10.4323926,15.8882884 10.61368,16.0206433 L10.613681,16.0206435 Z" id="Shape" stroke="#1F1A17" fill="#4D2612"></path>
                        </g>
                    </g>
                    <circle id="Oval-57" fill="#FFFFFF" cx="22.5" cy="89.5" r="3.5"></circle>
                    <rect id="Rectangle-44" fill="#FFFFFF" x="19" y="7" width="11" height="2"></rect>
                    <rect id="Rectangle-45" fill="#FFFFFF" x="15" y="7" width="2" height="2"></rect>
                </g>
            </g>
        </g>
        <g id="block-5" sketch:type="MSArtboardGroup"></g>
    </g>
</svg>