<?xml version="1.0" encoding="UTF-8" standalone="no"?>
<svg width="500px" height="360px" viewBox="0 0 500 360" version="1.1" xmlns="http://www.w3.org/2000/svg" xmlns:xlink="http://www.w3.org/1999/xlink" xmlns:sketch="http://www.bohemiancoding.com/sketch/ns">
    <!-- Generator: Sketch 3.2.2 (9983) - http://www.bohemiancoding.com/sketch -->
    <title>block-2</title>
    <desc>Created with Sketch.</desc>
    <defs></defs>
    <g id="Welcome" stroke="none" stroke-width="1" fill="none" fill-rule="evenodd" sketch:type="MSPage">
        <g id="Desktop-HD-2" sketch:type="MSArtboardGroup" transform="translate(-199.000000, -1476.000000)">
            <g id="Group" sketch:type="MSLayerGroup" transform="translate(222.000000, 1503.000000)">
                <g id="line" transform="translate(48.000000, 19.000000)" stroke="#EAECF0" stroke-linecap="square" sketch:type="MSShapeGroup">
                    <path d="M0.5,120.5 L400.5,120.5" id="Line"></path>
                    <path d="M0.5,90.5 L400.5,90.5" id="Line-2"></path>
                    <path d="M0.5,60.5 L400.5,60.5" id="Line-34"></path>
                    <path d="M0.5,30.5 L400.5,30.5" id="Line-36"></path>
                    <path d="M0.5,0.5 L400.5,0.5" id="Line-52"></path>
                    <path d="M0.5,150.5 L400.5,150.5" id="Line-4"></path>
                    <path d="M0.5,179.5 L400.5,179.5" id="Line-6"></path>
                    <path d="M0.5,209.5 L400.5,209.5" id="Line-7"></path>
                    <path d="M0.5,239.5 L400.5,239.5" id="Line-8"></path>
                    <path d="M0.5,270.5 L400.5,270.5" id="Line-26"></path>
                </g>
                <g id="tree-icon" transform="translate(0.000000, 213.000000)" sketch:type="MSShapeGroup">
                    <path d="M0.169312635,0.443262608 C0.169312635,0.443262608 1.30538517,12.0646302 4.22855287,14.9627524 C7.15172057,17.8608746 11.8911118,17.8608746 14.8142795,14.9627524 C17.7374472,12.0646302 17.7374472,7.36584575 14.8142795,4.46772355 C11.8911118,1.56960135 0.169312635,0.443262608 0.169312635,0.443262608 L0.169312635,0.443262608 Z" id="Oval-45" fill="#00A885"></path>
                    <path d="M30.1785232,4.27810266 C30.1785232,4.27810266 21.5880739,4.95958616 19.4120859,7.06091326 C17.236098,9.16224037 17.1755735,12.6296893 19.2769006,14.8056772 C21.3782277,16.9816651 24.8456766,17.0421897 27.0216645,14.9408626 C29.1976524,12.8395355 30.1785232,4.27810266 30.1785232,4.27810266 L30.1785232,4.27810266 Z" id="Oval-46" fill="#00A885"></path>
                    <path d="M21.8703704,12.6281867 C21.8703704,12.6281867 20.650264,13.3779554 19.3142904,16.5932874 C17.9783168,19.8086194 18.6851852,23.2105263 18.6851852,23.2105263" id="Line" stroke="#00A885" stroke-width="2" stroke-linecap="round"></path>
                    <path d="M18.2964617,21.908335 C17.669289,17.5423595 14.5267333,14.2544326 14.5267333,14.2544326" id="Line-25" stroke="#00A885" stroke-width="2" stroke-linecap="round"></path>
                </g>
                <g id="growth" transform="translate(42.000000, 0.000000)">
                    <path d="M7,228.5 L56,228.5" id="Line" stroke="#00A885" stroke-width="3" stroke-linecap="square" sketch:type="MSShapeGroup"></path>
                    <path d="M105.5,259.5 L58,229" id="Line-5" stroke="#00A885" stroke-width="3" stroke-linecap="square" sketch:type="MSShapeGroup"></path>
                    <path d="M106.5,259.5 L156.5,199.5" id="Line-9" stroke="#00A885" stroke-width="3" stroke-linecap="square" sketch:type="MSShapeGroup"></path>
                    <path d="M206.5,169.5 L157,199" id="Line-10" stroke="#00A885" stroke-width="3" stroke-linecap="square" sketch:type="MSShapeGroup"></path>
                    <path d="M206.5,169.5 L257,199" id="Line-11" stroke="#00A885" stroke-width="3" stroke-linecap="square" sketch:type="MSShapeGroup"></path>
                    <path d="M307,199.5 L258,199.5" id="Line-12" stroke="#00A885" stroke-width="3" stroke-linecap="square" sketch:type="MSShapeGroup"></path>
                    <path d="M306.5,200.5 L358,168" id="Line-13" stroke="#00A885" stroke-width="3" stroke-linecap="square" sketch:type="MSShapeGroup"></path>
                    <path d="M405.5,139.5 L358,168" id="Line-14" stroke="#00A885" stroke-width="3" stroke-linecap="square" sketch:type="MSShapeGroup"></path>
                    <circle id="Oval-26" fill="#00A885" sketch:type="MSShapeGroup" cx="6.5" cy="228.5" r="6.5"></circle>
                    <circle id="Oval-27" fill="#FFFFFF" sketch:type="MSShapeGroup" cx="6.5" cy="228.5" r="3.5"></circle>
                    <g id="Oval-26-+-Oval-36" transform="translate(0.000000, 103.000000)"></g>
                    <g id="Oval-26-+-Oval-37" transform="translate(50.000000, 73.000000)"></g>
                    <g id="Oval-26-+-Oval-38" transform="translate(100.000000, 0.000000)"></g>
                    <g id="Oval-26-+-Oval-39" transform="translate(150.000000, 42.000000)"></g>
                    <g id="Oval-26-+-Oval-40" transform="translate(200.000000, 42.000000)"></g>
                    <g id="Oval-26-+-Oval-42" transform="translate(300.000000, 42.000000)"></g>
                    <g id="Oval-26-+-Oval-43" transform="translate(350.000000, 42.000000)"></g>
                    <g id="Oval-26-+-Oval-44" transform="translate(400.000000, 72.000000)"></g>
                    <circle id="Oval-26" fill="#00A885" sketch:type="MSShapeGroup" cx="56.5" cy="228.5" r="6.5"></circle>
                    <circle id="Oval-27" fill="#FFFFFF" sketch:type="MSShapeGroup" cx="56.5" cy="228.5" r="3.5"></circle>
                    <circle id="Oval-26" fill="#00A885" sketch:type="MSShapeGroup" cx="106.5" cy="258.5" r="6.5"></circle>
                    <circle id="Oval-27" fill="#FFFFFF" sketch:type="MSShapeGroup" cx="106.5" cy="258.5" r="3.5"></circle>
                    <circle id="Oval-26" fill="#00A885" sketch:type="MSShapeGroup" cx="156.5" cy="198.5" r="6.5"></circle>
                    <circle id="Oval-27" fill="#FFFFFF" sketch:type="MSShapeGroup" cx="156.5" cy="198.5" r="3.5"></circle>
                    <circle id="Oval-26" fill="#00A885" sketch:type="MSShapeGroup" cx="206.5" cy="169.5" r="6.5"></circle>
                    <circle id="Oval-27" fill="#FFFFFF" sketch:type="MSShapeGroup" cx="206.5" cy="169.5" r="3.5"></circle>
                    <circle id="Oval-26" fill="#00A885" sketch:type="MSShapeGroup" cx="256.5" cy="199.5" r="6.5"></circle>
                    <circle id="Oval-27" fill="#FFFFFF" sketch:type="MSShapeGroup" cx="256.5" cy="199.5" r="3.5"></circle>
                    <circle id="Oval-26" fill="#00A885" sketch:type="MSShapeGroup" cx="306.5" cy="199.5" r="6.5"></circle>
                    <circle id="Oval-27" fill="#FFFFFF" sketch:type="MSShapeGroup" cx="306.5" cy="199.5" r="3.5"></circle>
                    <circle id="Oval-26" fill="#00A885" sketch:type="MSShapeGroup" cx="356.5" cy="169.5" r="6.5"></circle>
                    <circle id="Oval-27" fill="#FFFFFF" sketch:type="MSShapeGroup" cx="356.5" cy="169.5" r="3.5"></circle>
                    <circle id="Oval-26" fill="#00A885" sketch:type="MSShapeGroup" cx="406.5" cy="139.5" r="6.5"></circle>
                    <circle id="Oval-27" fill="#FFFFFF" sketch:type="MSShapeGroup" cx="406.5" cy="139.5" r="3.5"></circle>
                </g>
                <g id="temperature" transform="translate(42.000000, 72.000000)" sketch:type="MSShapeGroup">
                    <path d="M7,97.5 L57.5,67.5" id="Line-35" stroke="#FA5D60" stroke-width="3" stroke-linecap="square"></path>
                    <path d="M105.5,96.5 L57,67.5" id="Line-37" stroke="#FA5D60" stroke-width="3" stroke-linecap="square"></path>
                    <path d="M106.5,96.5 L155.5,37.5" id="Line-38" stroke="#FA5D60" stroke-width="3" stroke-linecap="square"></path>
                    <path d="M206.5,37.5 L155.5,37.5" id="Line-39" stroke="#FA5D60" stroke-width="3" stroke-linecap="square"></path>
                    <path d="M206.5,37.5 L256.5,68.5" id="Line-40" stroke="#FA5D60" stroke-width="3" stroke-linecap="square"></path>
                    <path d="M306.5,37.5 L256.5,68.5" id="Line-41" stroke="#FA5D60" stroke-width="3" stroke-linecap="square"></path>
                    <path d="M306.5,37.5 L356.5,37.5" id="Line-42" stroke="#FA5D60" stroke-width="3" stroke-linecap="square"></path>
                    <path d="M406.5,6.5 L356.5,37.5" id="Line-43" stroke="#FA5D60" stroke-width="3" stroke-linecap="square"></path>
                    <circle id="Oval-26" fill="#FA5D60" cx="6.5" cy="97.5" r="6.5"></circle>
                    <circle id="Oval-27" fill="#FFFFFF" cx="6.5" cy="97.5" r="3.5"></circle>
                    <circle id="Oval-26" fill="#FA5D60" cx="56.5" cy="67.5" r="6.5"></circle>
                    <circle id="Oval-27" fill="#FFFFFF" cx="56.5" cy="67.5" r="3.5"></circle>
                    <circle id="Oval-26" fill="#FA5D60" cx="106.5" cy="97.5" r="6.5"></circle>
                    <circle id="Oval-27" fill="#FFFFFF" cx="106.5" cy="97.5" r="3.5"></circle>
                    <circle id="Oval-26" fill="#FA5D60" cx="156.5" cy="36.5" r="6.5"></circle>
                    <circle id="Oval-27" fill="#FFFFFF" cx="156.5" cy="36.5" r="3.5"></circle>
                    <circle id="Oval-26" fill="#FA5D60" cx="206.5" cy="36.5" r="6.5"></circle>
                    <circle id="Oval-27" fill="#FFFFFF" cx="206.5" cy="36.5" r="3.5"></circle>
                    <g id="Oval-26-+-Oval-41" transform="translate(250.000000, 60.000000)">
                        <circle id="Oval-26" fill="#FA5D60" cx="6.5" cy="6.5" r="6.5"></circle>
                        <circle id="Oval-27" fill="#FFFFFF" cx="6.5" cy="6.5" r="3.5"></circle>
                    </g>
                    <circle id="Oval-26" fill="#FA5D60" cx="306.5" cy="36.5" r="6.5"></circle>
                    <circle id="Oval-27" fill="#FFFFFF" cx="306.5" cy="36.5" r="3.5"></circle>
                    <circle id="Oval-26" fill="#FA5D60" cx="356.5" cy="36.5" r="6.5"></circle>
                    <circle id="Oval-27" fill="#FFFFFF" cx="356.5" cy="36.5" r="3.5"></circle>
                    <circle id="Oval-26" fill="#FA5D60" cx="406.5" cy="6.5" r="6.5"></circle>
                    <circle id="Oval-27" fill="#FFFFFF" cx="406.5" cy="6.5" r="3.5"></circle>
                </g>
            </g>
            <g id="moisture" sketch:type="MSLayerGroup" transform="translate(264.000000, 1516.000000)">
                <path d="M7,96.5 L56.5,96.5" id="Line-44" stroke="#54B1D9" stroke-width="3" stroke-linecap="square" sketch:type="MSShapeGroup"></path>
                <path d="M107.5,6.5 L57.5,94.5" id="Line-45" stroke="#54B1D9" stroke-width="3" stroke-linecap="square" sketch:type="MSShapeGroup"></path>
                <path d="M105.5,5.5 L155.5,63.5" id="Line-46" stroke="#54B1D9" stroke-width="3" stroke-linecap="square" sketch:type="MSShapeGroup"></path>
                <path d="M206.5,65.5 L155.5,65.5" id="Line-47" stroke="#54B1D9" stroke-width="3" stroke-linecap="square" sketch:type="MSShapeGroup"></path>
                <path d="M206.5,65.5 L255.5,95.5" id="Line-48" stroke="#54B1D9" stroke-width="3" stroke-linecap="square" sketch:type="MSShapeGroup"></path>
                <path d="M308.5,127.5 L255.5,97.5" id="Line-49" stroke="#54B1D9" stroke-width="3" stroke-linecap="square" sketch:type="MSShapeGroup"></path>
                <path d="M307.5,123.5 L358.5,36.5" id="Line-50" stroke="#54B1D9" stroke-width="3" stroke-linecap="square" sketch:type="MSShapeGroup"></path>
                <path d="M406.5,35.5 L356.5,35.5" id="Line-51" stroke="#54B1D9" stroke-width="3" stroke-linecap="square" sketch:type="MSShapeGroup"></path>
                <g id="Oval-28-+-Oval-30" transform="translate(0.000000, 90.000000)" sketch:type="MSShapeGroup">
                    <circle id="Oval-28" fill="#54B1D9" cx="6.5" cy="6.5" r="6.5"></circle>
                    <circle id="Oval-30" fill="#FFFFFF" cx="6.5" cy="6.5" r="3.5"></circle>
                </g>
                <g id="Oval-28-+-Oval-31" transform="translate(50.000000, 90.000000)" sketch:type="MSShapeGroup">
                    <circle id="Oval-28" fill="#54B1D9" cx="6.5" cy="6.5" r="6.5"></circle>
                    <circle id="Oval-30" fill="#FFFFFF" cx="6.5" cy="6.5" r="3.5"></circle>
                </g>
                <g id="Oval-28-+-Oval-32" transform="translate(100.000000, 0.000000)" sketch:type="MSShapeGroup">
                    <circle id="Oval-28" fill="#54B1D9" cx="6.5" cy="6.5" r="6.5"></circle>
                    <circle id="Oval-30" fill="#FFFFFF" cx="6.5" cy="6.5" r="3.5"></circle>
                </g>
                <g id="Oval-28-+-Oval-33" transform="translate(150.000000, 60.000000)" sketch:type="MSShapeGroup">
                    <circle id="Oval-28" fill="#54B1D9" cx="6.5" cy="6.5" r="6.5"></circle>
                    <circle id="Oval-30" fill="#FFFFFF" cx="6.5" cy="6.5" r="3.5"></circle>
                </g>
                <g id="Oval-28-+-Oval-34" transform="translate(200.000000, 60.000000)" sketch:type="MSShapeGroup">
                    <circle id="Oval-28" fill="#54B1D9" cx="6.5" cy="6.5" r="6.5"></circle>
                    <circle id="Oval-30" fill="#FFFFFF" cx="6.5" cy="6.5" r="3.5"></circle>
                </g>
                <g id="Oval-28-+-Oval-35" transform="translate(250.000000, 90.000000)" sketch:type="MSShapeGroup">
                    <circle id="Oval-28" fill="#54B1D9" cx="6.5" cy="6.5" r="6.5"></circle>
                    <circle id="Oval-30" fill="#FFFFFF" cx="6.5" cy="6.5" r="3.5"></circle>
                </g>
                <g id="Oval-28-+-Oval-36" transform="translate(300.000000, 120.000000)" sketch:type="MSShapeGroup">
                    <circle id="Oval-28" fill="#54B1D9" cx="6.5" cy="6.5" r="6.5"></circle>
                    <circle id="Oval-30" fill="#FFFFFF" cx="6.5" cy="6.5" r="3.5"></circle>
                </g>
                <g id="Oval-28-+-Oval-37" transform="translate(350.000000, 30.000000)" sketch:type="MSShapeGroup">
                    <circle id="Oval-28" fill="#54B1D9" cx="6.5" cy="6.5" r="6.5"></circle>
                    <circle id="Oval-30" fill="#FFFFFF" cx="6.5" cy="6.5" r="3.5"></circle>
                </g>
                <g id="Oval-28-+-Oval-38" transform="translate(400.000000, 30.000000)" sketch:type="MSShapeGroup">
                    <circle id="Oval-28" fill="#54B1D9" cx="6.5" cy="6.5" r="6.5"></circle>
                    <circle id="Oval-30" fill="#FFFFFF" cx="6.5" cy="6.5" r="3.5"></circle>
                </g>
            </g>
            <g id="tem" sketch:type="MSLayerGroup" transform="translate(225.000000, 1650.000000)" fill="#FA5D60">
                <path d="M0.198461538,15.3859467 L3.65179487,13.2564267 L0.198461538,11.1269067 L0.198461538,15.3859467 Z M15.9533333,25.9925067 L15.9533333,13.2564267 L10.0282051,13.2564267 L10.0282051,26.0416533 C8.13487179,27.09096 6.84102564,29.0679733 6.84102564,31.36368 C6.84102564,34.7461867 9.61538462,37.4872533 13.0369231,37.4872533 C16.4625641,37.4872533 19.2389744,34.74416 19.2389744,31.36368 C19.2389744,29.0325067 17.8984615,27.0256 15.9533333,25.9925067 L15.9533333,25.9925067 Z" id="Fill-19" sketch:type="MSShapeGroup"></path>
                <path d="M16.5723077,25.6221333 L16.5723077,3.49346667 C16.5723077,1.56357333 14.9917949,0 13.0389744,0 C11.0897436,0 9.50512821,1.56357333 9.50512821,3.49346667 L9.50512821,25.6221333 C7.57025641,26.7981067 6.27794872,28.9078667 6.27794872,31.31808 C6.27589744,35.0096533 9.30307692,38 13.0389744,38 C16.7748718,38 19.8035897,35.0096533 19.8035897,31.31656 C19.8015385,28.9078667 18.5097436,26.7981067 16.5723077,25.6221333 L16.5723077,25.6221333 Z M13.0389744,36.9947733 C9.87179487,36.9947733 7.29384615,34.4472533 7.29384615,31.31656 C7.29384615,29.3273867 8.32153846,27.5201067 10.0379487,26.4773867 L10.5230769,26.1825067 L10.5230769,3.49346667 C10.5230769,2.12192 11.6528205,1.00522667 13.0410256,1.00522667 C14.4292308,1.00522667 15.5589744,2.12192 15.5589744,3.49346667 L15.5589744,26.1845333 L16.0435897,26.4773867 C17.7625641,27.5201067 18.7882051,29.3294133 18.7882051,31.31656 C18.7841026,34.4472533 16.2076923,36.9947733 13.0389744,36.9947733 L13.0389744,36.9947733 Z M8.13692308,2.99034667 L5.02,2.99034667 L5.02,3.99608 L8.13692308,3.99608 L8.13692308,2.99034667 Z M8.13692308,8.8768 L8.13692308,7.87106667 L6.02153846,7.87106667 L6.02153846,8.8768 L8.13692308,8.8768 Z M8.13692308,22.5167733 L5.02,22.5167733 L5.02,23.5225067 L8.13692308,23.5225067 L8.13692308,22.5167733 Z M8.13692308,12.7538133 L5.02,12.7538133 L5.02,13.75904 L8.13692308,13.75904 L8.13692308,12.7538133 Z M8.13692308,18.6417867 L8.13692308,17.63656 L6.02153846,17.63656 L6.02153846,18.6417867 L8.13692308,18.6417867 Z" id="Fill-20" sketch:type="MSShapeGroup"></path>
            </g>
            <g id="Imported-Layers" sketch:type="MSLayerGroup" transform="translate(221.000000, 1596.000000)" fill="#54B1D9">
                <path d="M26.4274244,8.2026359 C26.4818317,7.85316718 26.5216883,7.49875897 26.5216883,7.13447179 C26.5216883,3.27302769 23.3141848,0.14448 19.3601618,0.14448 C16.2114943,0.14448 13.5423706,2.12953641 12.5839154,4.88638769 C11.9759448,4.43318974 11.219303,4.16028308 10.3968662,4.16028308 C8.40214069,4.16028308 6.78636874,5.74030154 6.78636874,7.68645949 C6.78636874,7.85316718 6.80091954,8.01431795 6.82306207,8.17361641 L6.69969655,8.17361641 C3.33403218,8.17361641 0.602909425,10.8390872 0.602909425,14.1213764 C0.602909425,17.4086051 3.33403218,20.0716062 6.69969655,20.0716062 L25.8396984,20.0716062 C29.2053628,20.0716062 31.9358529,17.4086051 31.9358529,14.1213764 C31.9339549,11.0317272 29.5166234,8.49221333 26.4274244,8.2026359 L26.4274244,8.2026359 Z" id="Fill-1" sketch:type="MSShapeGroup"></path>
                <path d="M10.3696625,22.1363118 C10.3696625,22.1363118 5.19969839,25.8940267 8.43440552,27.0949395 C11.6665821,28.2958523 10.3696625,22.1363118 10.3696625,22.1363118 L10.3696625,22.1363118 Z" id="Fill-2" sketch:type="MSShapeGroup"></path>
                <path d="M16.300697,22.1363118 C16.300697,22.1363118 11.1307329,25.8940267 14.36544,27.0949395 C17.5976166,28.2958523 16.300697,22.1363118 16.300697,22.1363118 L16.300697,22.1363118 Z" id="Fill-3" sketch:type="MSShapeGroup"></path>
                <path d="M22.2317315,22.1363118 C22.2317315,22.1363118 17.0617674,25.8940267 20.2964745,27.0949395 C23.528651,28.2958523 22.2317315,22.1363118 22.2317315,22.1363118 L22.2317315,22.1363118 Z" id="Fill-4" sketch:type="MSShapeGroup"></path>
            </g>
        </g>
        <g id="block-2" sketch:type="MSArtboardGroup"></g>
    </g>
</svg>