<?xml version="1.0" encoding="UTF-8" standalone="no"?>
<svg width="330px" height="360px" viewBox="0 0 330 360" version="1.1" xmlns="http://www.w3.org/2000/svg" xmlns:xlink="http://www.w3.org/1999/xlink" xmlns:sketch="http://www.bohemiancoding.com/sketch/ns">
    <!-- Generator: Sketch 3.2.2 (9983) - http://www.bohemiancoding.com/sketch -->
    <title>block-3</title>
    <desc>Created with Sketch.</desc>
    <defs></defs>
    <g id="Welcome" stroke="none" stroke-width="1" fill="none" fill-rule="evenodd" sketch:type="MSPage">
        <g id="Desktop-HD-2" sketch:type="MSArtboardGroup" transform="translate(-793.000000, -1972.000000)">
            <g id="Group" sketch:type="MSLayerGroup" transform="translate(792.000000, 1972.000000)">
                <polygon id="Polygon-11" fill="#FA5D60" sketch:type="MSShapeGroup" transform="translate(165.000000, 121.000000) rotate(-270.000000) translate(-165.000000, -121.000000) " points="165 58 219.5596 89.5 219.5596 152.5 165 184 110.4404 152.5 110.4404 89.5 "></polygon>
                <polygon id="Polygon-12" fill="#F6A623" sketch:type="MSShapeGroup" transform="translate(264.000000, 180.000000) rotate(-270.000000) translate(-264.000000, -180.000000) " points="264 117 318.5596 148.5 318.5596 211.5 264 243 209.4404 211.5 209.4404 148.5 "></polygon>
                <polygon id="Polygon-14" fill="#F2F2F2" sketch:type="MSShapeGroup" transform="translate(267.000000, 64.000000) rotate(-270.000000) translate(-267.000000, -64.000000) " points="267 1 321.5596 32.5 321.5596 95.5 267 127 212.4404 95.5 212.4404 32.5 "></polygon>
                <polygon id="Polygon-15" fill="#F2F2F2" sketch:type="MSShapeGroup" transform="translate(263.000000, 295.000000) rotate(-270.000000) translate(-263.000000, -295.000000) " points="263 232 317.5596 263.5 317.5596 326.5 263 358 208.4404 326.5 208.4404 263.5 "></polygon>
                <polygon id="Polygon-16" fill="#F2F2F2" sketch:type="MSShapeGroup" transform="translate(64.000000, 176.000000) rotate(-270.000000) translate(-64.000000, -176.000000) " points="64 113 118.5596 144.5 118.5596 207.5 64 239 9.44039956 207.5 9.44039956 144.5 "></polygon>
                <polygon id="Polygon-13" fill="#54B1D9" sketch:type="MSShapeGroup" transform="translate(163.000000, 236.000000) rotate(-270.000000) translate(-163.000000, -236.000000) " points="163 173 217.5596 204.5 217.5596 267.5 163 299 108.4404 267.5 108.4404 204.5 "></polygon>
                <g id="noun_2660_cc" transform="translate(249.000000, 165.000000)" fill="#FFFFFF" sketch:type="MSShapeGroup">
                    <path d="M29.4140891,16.624901 L26.8573564,16.624901 C26.150802,16.624901 25.5780693,16.0521683 25.5780693,15.3465347 C25.5780693,14.6405941 26.150802,14.0675545 26.8573564,14.0675545 L29.4140891,14.0675545 C30.1203366,14.0675545 30.6930693,14.6405941 30.6930693,15.3465347 C30.6930693,16.0521683 30.1218713,16.624901 29.4140891,16.624901 L29.4140891,16.624901 Z" id="Shape"></path>
                    <path d="M24.3911683,8.11248515 C23.8914851,8.61155446 23.0802673,8.61155446 22.5821188,8.11248515 C22.0827426,7.61310891 22.0827426,6.80342574 22.5821188,6.30374257 L24.3911683,4.49530693 C24.888703,3.99593069 25.7002277,3.99593069 26.1999109,4.49530693 C26.6974455,4.99468317 26.6974455,5.80436634 26.1999109,6.30374257 L24.3911683,8.11248515 L24.3911683,8.11248515 Z" id="Shape"></path>
                    <path d="M15.3471485,7.6729604 C11.1084356,7.6729604 7.6729604,11.1084356 7.6729604,15.3465347 C7.6729604,19.5840198 11.1090495,23.019495 15.3471485,23.019495 C19.5852475,23.019495 23.0201089,19.5840198 23.0201089,15.3465347 C23.0201089,11.1084356 19.5852475,7.6729604 15.3471485,7.6729604 L15.3471485,7.6729604 Z M15.3471485,20.4621485 C12.5224653,20.4621485 10.2312277,18.1712178 10.2312277,15.3465347 C10.2312277,12.5212376 12.5218515,10.2309208 15.3471485,10.2309208 C18.1724455,10.2309208 20.4621485,12.5212376 20.4621485,15.3465347 C20.4621485,18.1712178 18.1718317,20.4621485 15.3471485,20.4621485 L15.3471485,20.4621485 Z" id="Shape"></path>
                    <path d="M15.3471485,5.11561386 C14.6405941,5.11561386 14.0681683,4.54257426 14.0681683,3.83663366 L14.0681683,1.2789802 C14.0681683,0.573039604 14.6405941,0 15.3471485,0 C16.053703,0 16.6261287,0.573039604 16.6261287,1.2789802 L16.6261287,3.83663366 C16.6261287,4.54257426 16.0521683,5.11561386 15.3471485,5.11561386 L15.3471485,5.11561386 Z" id="Shape"></path>
                    <path d="M6.30374257,8.11248515 L4.49530693,6.30374257 C3.99593069,5.80467327 3.99593069,4.99468317 4.49530693,4.49530693 C4.99468317,3.99593069 5.80436634,3.99593069 6.30374257,4.49530693 L8.11248515,6.30374257 C8.61155446,6.80342574 8.61155446,7.61310891 8.11248515,8.11248515 C7.61310891,8.61155446 6.80342574,8.61155446 6.30374257,8.11248515 L6.30374257,8.11248515 Z" id="Shape"></path>
                    <path d="M5.11561386,15.3465347 C5.11561386,16.0521683 4.54257426,16.624901 3.83663366,16.624901 L1.27836634,16.624901 C0.572425743,16.624901 0,16.0521683 0,15.3465347 C0,14.6405941 0.573039604,14.0675545 1.27836634,14.0675545 L3.83663366,14.0675545 C4.54318812,14.0675545 5.11561386,14.6405941 5.11561386,15.3465347 L5.11561386,15.3465347 Z" id="Shape"></path>
                    <path d="M6.30374257,22.5808911 C6.80342574,22.0818218 7.61310891,22.0818218 8.11248515,22.5808911 C8.61155446,23.0799604 8.61155446,23.8899505 8.11248515,24.3896337 L6.30374257,26.1977624 C5.80467327,26.6974455 4.99468317,26.6974455 4.49530693,26.1977624 C3.99593069,25.699 3.99593069,24.888703 4.49530693,24.3896337 L6.30374257,22.5808911 L6.30374257,22.5808911 Z" id="Shape"></path>
                    <path d="M15.3471485,25.5774554 C16.053703,25.5774554 16.6261287,26.1495743 16.6261287,26.8558218 L16.6261287,29.4140891 C16.6261287,30.1203366 16.053703,30.6930693 15.3471485,30.6930693 C14.6405941,30.6930693 14.0681683,30.1203366 14.0681683,29.4140891 L14.0681683,26.8558218 C14.0681683,26.1495743 14.6405941,25.5774554 15.3471485,25.5774554 L15.3471485,25.5774554 Z" id="Shape"></path>
                    <path d="M24.3911683,22.5808911 L26.1999109,24.3896337 C26.6974455,24.888703 26.6974455,25.699 26.1999109,26.1977624 C25.7002277,26.6974455 24.8890099,26.6974455 24.3911683,26.1977624 L22.5821188,24.3896337 C22.0827426,23.8899505 22.0827426,23.0799604 22.5821188,22.5808911 C23.0799604,22.0812079 23.8899505,22.0812079 24.3911683,22.5808911 L24.3911683,22.5808911 Z" id="Shape"></path>
                </g>
                <g id="noun_151568_cc" transform="translate(151.000000, 221.000000)" fill="#FFFFFF" sketch:type="MSShapeGroup">
                    <path d="M15.2162424,19.4221739 L15.2218182,19.4221739 L8.1259697,7.53805435 L1.02977273,19.4221739 L1.03569697,19.4221739 C0.439787879,20.506837 0.100712121,21.7434674 0.100712121,23.0572609 C0.100712121,27.3430109 3.69359091,30.8173696 8.1259697,30.8173696 C12.5583485,30.8173696 16.1515758,27.3426739 16.1515758,23.0572609 C16.1515758,21.7434674 15.8128485,20.506837 15.2162424,19.4221739 L15.2162424,19.4221739 Z M6.61981818,28.8097826 C6.50656061,28.821913 6.36925758,28.8279783 6.21383333,28.8145 C6.05631818,28.8087717 5.87615152,28.799337 5.68622727,28.7592391 C5.59039394,28.7417174 5.4900303,28.7231848 5.38687879,28.6999348 C5.28616667,28.6696087 5.1819697,28.6386087 5.07498485,28.6062609 C4.85683333,28.5456087 4.64669697,28.4401413 4.42157576,28.341413 C4.20969697,28.2228043 3.98143939,28.1079022 3.77862121,27.9529022 C3.56325758,27.8123913 3.37263636,27.6375109 3.17713636,27.4683587 C2.99836364,27.2833696 2.81122727,27.1044457 2.66172727,26.9012609 C2.49933333,26.7081848 2.36795455,26.4982609 2.2425,26.2964239 C2.12645455,26.0888587 2.01842424,25.8866848 1.93827273,25.6855217 C1.85742424,25.4846957 1.78668182,25.2943152 1.74277273,25.1113478 C1.6905,24.9330978 1.65983333,24.7619239 1.64101515,24.6086087 C1.61487879,24.4579891 1.6054697,24.327587 1.60616667,24.2211087 C1.60233333,24.0074783 1.61174242,23.8821304 1.61174242,23.8821304 C1.61174242,23.8821304 1.68945455,23.9828804 1.80480303,24.1655109 C1.85881818,24.2591848 1.93862121,24.3639783 2.0170303,24.48225 C2.09404545,24.6011957 2.18848485,24.730587 2.29268182,24.8721087 C2.38886364,25.0159891 2.50665152,25.1629022 2.62443939,25.318913 C2.74013636,25.4759348 2.87709091,25.6309348 3.00742424,25.7946957 C3.14890909,25.9517174 3.28586364,26.1181739 3.43989394,26.2748587 C3.58556061,26.4382826 3.75004545,26.5882283 3.90651515,26.744913 C4.07169697,26.892837 4.23269697,27.0454783 4.40380303,27.1812717 C4.56863636,27.326163 4.74601515,27.4471304 4.91015152,27.5798913 C5.08648485,27.6914239 5.24574242,27.8251957 5.41545455,27.9205543 C5.57959091,28.0277065 5.7385,28.1267717 5.89218182,28.2083152 C6.04237879,28.2999674 6.18595455,28.3747717 6.31628788,28.4408152 C6.44592424,28.5082065 6.56057576,28.5715543 6.65919697,28.612663 C6.85434848,28.7036413 6.96934848,28.768 6.96934848,28.768 C6.96934848,28.768 6.84493939,28.790913 6.61981818,28.8097826 L6.61981818,28.8097826 Z" id="Shape"></path>
                    <path d="M22.4079242,7.68968478 L22.4114091,7.68968478 L18.0114394,0.321119565 L13.6114697,7.68968478 L13.6149545,7.68968478 C13.2452121,8.36225 13.0350758,9.12882609 13.0350758,9.94358696 C13.0350758,12.6008261 15.2629394,14.7553261 18.0110909,14.7553261 C20.7595909,14.7553261 22.9871061,12.6008261 22.9871061,9.94358696 C22.987803,9.12882609 22.7776667,8.36225 22.4079242,7.68968478 L22.4079242,7.68968478 Z M17.0775,13.5102717 C17.0074545,13.5180217 16.9220758,13.5213913 16.8255455,13.5133043 C16.7279697,13.5095978 16.6161061,13.5038696 16.4986667,13.4789348 C16.4394242,13.4681522 16.3770455,13.4566957 16.3129242,13.4422065 C16.2505455,13.423337 16.1857273,13.4041304 16.1195152,13.38425 C15.984303,13.3465109 15.8539697,13.2811413 15.7142273,13.2198152 C15.5828485,13.1463587 15.4413636,13.0749239 15.3155606,12.9788913 C15.1820909,12.8919565 15.0639545,12.7834565 14.9426818,12.6783261 C14.8318636,12.5634239 14.7158182,12.4529022 14.6231212,12.3268804 C14.5224091,12.2072609 14.4408636,12.0768587 14.3631515,11.9518478 C14.2910152,11.8231304 14.2241061,11.6977826 14.1746212,11.5731087 C14.1244394,11.4484348 14.0805303,11.3305 14.0533485,11.2169457 C14.0209394,11.1064239 14.0021212,11.0002826 13.9902727,10.9052609 C13.9738939,10.8119239 13.9683182,10.7310543 13.9686667,10.6650109 C13.9662273,10.532587 13.9721515,10.45475 13.9721515,10.45475 C13.9721515,10.45475 14.0202424,10.5174239 14.0916818,10.6303043 C14.1251364,10.6885978 14.1746212,10.7532935 14.2230606,10.82675 C14.270803,10.9005435 14.3293485,10.9807391 14.3941667,11.0683478 C14.4537576,11.1576413 14.5269394,11.2486196 14.5997727,11.3453261 C14.6715606,11.4427065 14.7562424,11.5387391 14.8374394,11.640163 C14.9252576,11.7375435 15.0099394,11.8406522 15.1054242,11.9380326 C15.1956818,12.0394565 15.2977879,12.1324565 15.3946667,12.2295 C15.4971212,12.3211522 15.5967879,12.415837 15.7030758,12.5000761 C15.8051818,12.5900435 15.915303,12.6651848 16.0170606,12.7474022 C16.1264848,12.8164783 16.2251061,12.8993696 16.3303485,12.9586739 C16.4321061,13.0250543 16.5307273,13.0863804 16.6262121,13.1372609 C16.7192576,13.1942065 16.8084697,13.2403696 16.8893182,13.2814783 C16.9698182,13.3232609 17.0409091,13.3626848 17.1018939,13.3879565 C17.2228182,13.4442283 17.2942576,13.4843261 17.2942576,13.4843261 C17.2942576,13.4843261 17.2172424,13.4988152 17.0775,13.5102717 L17.0775,13.5102717 Z" id="Shape"></path>
                </g>
                <g id="Imported-Layers" transform="translate(147.000000, 103.000000)" fill="#FFFFFF" sketch:type="MSShapeGroup">
                    <path d="M30.7809332,15.7968255 C29.5693948,15.0891589 28.1559332,14.7371589 26.7424717,14.7371589 C25.289164,14.7371589 23.8757025,15.130016 22.664164,15.8382065 C22.2603179,14.8948255 21.5323179,14.0703493 20.6449332,13.5198255 C20.6847794,13.323397 20.6847794,13.1657303 20.6847794,12.9693017 C20.6050871,10.7698255 21.7746256,8.76677791 23.7136256,7.66573029 C24.2795486,7.35039695 24.8853179,7.11520648 25.4910871,6.99892076 C26.5803948,6.76320648 27.4306256,5.93873029 27.6325486,4.87696838 C27.8344717,3.81677791 27.3902409,2.79377791 26.4210102,2.20449219 C24.3193948,0.868254098 21.5323179,0.082539812 18.5460102,0.00501600245 C16.2446256,-0.0725078071 14.1037025,0.751968383 12.4479332,2.2432541 C10.8325486,3.73715886 9.94516401,5.70144457 9.94516401,7.86215886 C9.94516401,10.7698255 11.6003948,13.323397 14.0234717,14.698397 C13.3778563,15.4841112 13.0138563,16.4662541 12.9740102,17.5667779 C12.8119332,17.6448255 12.6498563,17.6856827 12.4899332,17.8024922 C11.5207025,18.3917779 10.3910102,18.7065874 9.25916401,18.7065874 C8.20970248,18.7065874 7.16024094,18.4326351 6.23031786,17.9208731 C5.66493324,17.6060636 5.18085632,17.2132065 4.73716401,16.7423017 C4.21108709,16.153016 3.4857794,15.8382065 2.71793324,15.8382065 C1.26462555,15.8382065 0.0530870908,16.9387303 0.013240937,18.3524922 C-0.108989832,20.7876827 0.619010168,23.5785398 2.03247171,26.0912541 C3.52562555,28.7632065 6.35254863,30.4514446 9.38139478,30.4514446 C10.7550102,30.4514446 12.1286256,30.0973493 13.2976256,29.4305398 C15.8827794,27.9774922 17.3360871,25.3055398 17.3360871,22.5943017 C17.5783948,22.6330636 17.7803179,22.6330636 18.0220871,22.6330636 C18.8696256,22.6330636 19.6773179,22.4366351 20.4053179,22.0437779 C20.5668563,22.1626827 20.6869332,22.2402065 20.8490102,22.3591112 C22.8283948,23.380016 24.0797794,25.3830636 24.0797794,27.5437779 C24.0797794,28.1718255 23.9575486,28.800397 23.7976256,29.3896827 C23.5160102,30.2141589 23.6360871,31.0794922 24.1616256,31.7855874 C24.6877025,32.4932541 25.4953948,32.8861112 26.3429332,32.8861112 C26.7866256,32.8861112 27.1904717,32.7677303 27.5943179,32.5713017 C29.8553179,31.4314922 31.9149332,29.4672065 33.4899332,26.9932541 C34.7014717,25.0682541 35.0654717,22.7498731 34.4995486,20.630016 C33.9718563,18.5468255 32.6380871,16.8203493 30.7809332,15.7968255 L30.7809332,15.7968255 Z M11.9622409,7.86215886 C11.9622409,6.29073029 12.6078563,4.79682553 13.8193948,3.69839695 C15.0309332,2.59734934 16.6064717,1.96930172 18.3015486,1.96930172 L18.5034717,1.96930172 C21.1284717,2.04682553 23.5515486,2.7162541 25.3688563,3.85606362 C25.7328563,4.0912541 25.6930102,4.40606362 25.6930102,4.52287315 C25.6930102,4.64177791 25.5707794,4.9932541 25.1270871,5.07339695 C24.2795486,5.23106362 23.5117025,5.54377791 22.7438563,5.97749219 C20.2410871,7.39177791 18.7053948,10.0249684 18.7053948,12.8137303 C18.4636256,12.7749684 18.2617025,12.7749684 18.0199332,12.7749684 C17.2122409,12.7749684 16.4045486,12.971397 15.7190871,13.3254922 C13.5377794,12.4187779 11.9622409,10.3382065 11.9622409,7.86215886 L11.9622409,7.86215886 Z M12.3262409,27.7014446 C11.4383179,28.2132065 10.4287025,28.448397 9.41908709,28.448397 C7.11824094,28.448397 4.9767794,27.1917779 3.84547171,25.1478731 C2.59408709,22.9096351 1.98831786,20.5111112 2.06801017,18.4305398 C2.10785632,17.9596351 2.51170248,17.8024922 2.75347171,17.8024922 C2.87570248,17.8024922 3.11747171,17.8412541 3.27954863,18.0376827 C3.84547171,18.6657303 4.53093324,19.1774922 5.25893324,19.6091112 C6.47047171,20.3167779 7.88393324,20.6687779 9.29739478,20.6687779 C10.7507025,20.6687779 12.164164,20.2759208 13.3757025,19.5682541 C13.7795486,20.5111112 14.425164,21.2968255 15.3152409,21.8064922 C15.5968563,24.0882065 14.5075486,26.4841112 12.3262409,27.7014446 L12.3262409,27.7014446 Z M18.0199332,20.630016 C16.3647025,20.630016 14.9910871,19.2937779 14.9910871,17.6835874 C14.9910871,16.073397 16.3647025,14.7371589 18.0199332,14.7371589 C19.675164,14.7371589 21.0487794,16.073397 21.0487794,17.6835874 C21.0487794,19.2937779 19.675164,20.630016 18.0199332,20.630016 L18.0199332,20.630016 Z M31.7507025,25.9335874 C30.3770871,28.0943017 28.5597794,29.823397 26.6627794,30.8055398 C26.5405486,30.8443017 26.4608563,30.8830636 26.3386256,30.8830636 C26.1367025,30.8830636 25.8949332,30.7646827 25.7727025,30.6091112 C25.6930102,30.4514446 25.6133179,30.255016 25.6930102,29.9396827 C25.9746256,29.1539684 26.0968563,28.3294922 26.0968563,27.505016 C26.0968563,24.6774922 24.5213179,22.0825398 22.0185486,20.6687779 C22.6243179,19.8830636 23.028164,18.9396827 23.0680102,17.9187779 C24.1174717,17.1330636 25.4113948,16.6626827 26.7823179,16.6626827 C27.8323179,16.6626827 28.8817794,16.9366351 29.811164,17.448397 C31.1847794,18.2341112 32.1943948,19.4902065 32.5583948,21.0228731 C32.9622409,22.7132065 32.6806256,24.4810636 31.7507025,25.9335874 L31.7507025,25.9335874 Z"></path>
                </g>
            </g>
        </g>
        <g id="block-3" sketch:type="MSArtboardGroup"></g>
    </g>
</svg>