<?xml version="1.0" encoding="UTF-8" standalone="no"?>
<svg width="337px" height="360px" viewBox="0 0 337 360" version="1.1" xmlns="http://www.w3.org/2000/svg" xmlns:xlink="http://www.w3.org/1999/xlink" xmlns:sketch="http://www.bohemiancoding.com/sketch/ns">
    <!-- Generator: Sketch 3.2.2 (9983) - http://www.bohemiancoding.com/sketch -->
    <title>block-4</title>
    <desc>Created with Sketch.</desc>
    <defs></defs>
    <g id="Welcome" stroke="none" stroke-width="1" fill="none" fill-rule="evenodd" sketch:type="MSPage">
        <g id="Desktop-HD-2" sketch:type="MSArtboardGroup" transform="translate(-230.000000, -2472.000000)">
            <g id="Group" sketch:type="MSLayerGroup" transform="translate(231.000000, 2472.000000)">
                <polygon id="Polygon-17" stroke="#128D74" stroke-width="8" sketch:type="MSShapeGroup" points="167.5 40 295.238747 113.75 295.238747 261.25 167.5 335 39.7612529 261.25 39.7612529 113.75 "></polygon>
                <g id="Oval-49-+-Imported-Layers" transform="translate(255.000000, 73.000000)" sketch:type="MSShapeGroup">
                    <path d="M40,80 C62.09139,80 80,62.09139 80,40 C80,17.90861 62.09139,0 40,0 C17.90861,0 0,17.90861 0,40 C0,62.09139 17.90861,80 40,80 Z" id="Oval-49" fill="#118D74"></path>
                    <g id="Imported-Layers" transform="translate(24.347826, 24.347826)" fill-opacity="0.87" fill="#FFFFFF">
                        <path d="M4.1088,14.7389217 L3.7824,14.7389217 C1.8912,14.7389217 0.391513043,13.1737043 0.391513043,11.3480348 L0.391513043,7.56521739 C0.391513043,7.17412174 0.651965217,6.91283478 1.04347826,6.91283478 L6.91283478,6.91283478 C7.30434783,6.91283478 7.56521739,7.17412174 7.56521739,7.56521739 L7.56521739,11.3480348 C7.56521739,13.2392348 6,14.7389217 4.1088,14.7389217 L4.1088,14.7389217 Z M1.69544348,8.2176 L1.69544348,11.3480348 C1.69544348,12.5217391 2.6738087,13.4349913 3.7824,13.4349913 L4.1088,13.4349913 C5.28250435,13.4349913 6.19575652,12.4566261 6.19575652,11.3480348 L6.19575652,8.2176 L1.69544348,8.2176 Z" id="Fill-1"></path>
                        <path d="M9.97815652,14.7389217 L9.65217391,14.7389217 C7.76097391,14.7389217 6.26086957,13.1737043 6.26086957,11.3480348 L6.26086957,7.56521739 C6.26086957,7.17412174 6.52173913,6.91283478 6.91283478,6.91283478 L12.7826087,6.91283478 C13.1737043,6.91283478 13.4349913,7.17412174 13.4349913,7.56521739 L13.4349913,11.3480348 C13.4349913,13.2392348 11.8697739,14.7389217 9.97815652,14.7389217 L9.97815652,14.7389217 Z M7.56521739,8.2176 L7.56521739,11.3480348 C7.56521739,12.5217391 8.54358261,13.4349913 9.65217391,13.4349913 L9.97815652,13.4349913 C11.1522783,13.4349913 12.065113,12.4566261 12.065113,11.3480348 L12.065113,8.2176 L7.56521739,8.2176 Z" id="Fill-2"></path>
                        <path d="M15.8479304,14.7389217 L15.5219478,14.7389217 C13.6303304,14.7389217 12.1302261,13.1737043 12.1302261,11.3480348 L12.1302261,7.56521739 C12.1302261,7.17412174 12.391513,6.91283478 12.7826087,6.91283478 L18.6523826,6.91283478 C19.0434783,6.91283478 19.3043478,7.17412174 19.3043478,7.56521739 L19.3043478,11.3480348 C19.3043478,13.2392348 17.7391304,14.7389217 15.8479304,14.7389217 L15.8479304,14.7389217 Z M13.4349913,8.2176 L13.4349913,11.3480348 C13.4349913,12.5217391 14.4129391,13.4349913 15.5219478,13.4349913 L15.8479304,13.4349913 C17.0216348,13.4349913 17.934887,12.4566261 17.934887,11.3480348 L17.934887,8.2176 L13.4349913,8.2176 Z" id="Fill-3"></path>
                        <path d="M21.717287,14.7389217 L21.3913043,14.7389217 C19.5001043,14.7389217 18,13.1737043 18,11.3480348 L18,7.56521739 C18,7.17412174 18.2608696,6.91283478 18.6523826,6.91283478 L24.5217391,6.91283478 C24.9132522,6.91283478 25.1737043,7.17412174 25.1737043,7.56521739 L25.1737043,11.3480348 C25.1737043,13.2392348 23.608487,14.7389217 21.717287,14.7389217 L21.717287,14.7389217 Z M19.3043478,8.2176 L19.3043478,11.3480348 C19.3043478,12.5217391 20.282713,13.4349913 21.3913043,13.4349913 L21.717287,13.4349913 C22.8914087,13.4349913 23.8042435,12.4566261 23.8042435,11.3480348 L23.8042435,8.2176 L19.3043478,8.2176 Z" id="Fill-4"></path>
                        <path d="M27.5870609,14.7389217 L27.2606609,14.7389217 C25.3694609,14.7389217 23.8697739,13.1737043 23.8697739,11.3480348 L23.8697739,7.56521739 C23.8697739,7.17412174 24.1302261,6.91283478 24.5217391,6.91283478 L30.3910957,6.91283478 C30.7826087,6.91283478 31.0434783,7.17412174 31.0434783,7.56521739 L31.0434783,11.3480348 C31.0434783,13.2392348 29.4782609,14.7389217 27.5870609,14.7389217 L27.5870609,14.7389217 Z M25.1737043,8.2176 L25.1737043,11.3480348 C25.1737043,12.5217391 26.1520696,13.4349913 27.2606609,13.4349913 L27.5870609,13.4349913 C28.7607652,13.4349913 29.6740174,12.4566261 29.6740174,11.3480348 L29.6740174,8.2176 L25.1737043,8.2176 Z" id="Fill-5"></path>
                        <path d="M30.3910957,8.2176 L1.04347826,8.2176 C0.782608696,8.2176 0.586852174,8.08695652 0.456626087,7.8912 C0.325982609,7.69586087 0.325982609,7.43457391 0.52173913,7.23923478 L4.8914087,0.717495652 C5.02163478,0.52173913 5.2173913,0.391513043 5.41314783,0.391513043 L25.9567304,0.391513043 C26.1520696,0.391513043 26.3478261,0.52173913 26.4784696,0.651965217 L30.8477217,7.17412174 C30.9783652,7.36946087 30.9783652,7.63033043 30.9128348,7.82608696 C30.8477217,8.08695652 30.5868522,8.2176 30.3910957,8.2176 L30.3910957,8.2176 Z M24.9783652,6.91283478 L29.1522783,6.91283478 L25.6303304,1.69544348 L22.8262957,1.69544348 L24.9783652,6.91283478 Z M19.2392348,6.91283478 L23.5433739,6.91283478 L21.4564174,1.69544348 L18.5217391,1.69544348 L19.2392348,6.91283478 Z M13.5001043,6.91283478 L17.8693565,6.91283478 L17.1522783,1.69544348 L14.1520696,1.69544348 L13.5001043,6.91283478 Z M7.8912,6.91283478 L12.1957565,6.91283478 L12.9132522,1.69544348 L9.97815652,1.69544348 L7.8912,6.91283478 Z M2.28271304,6.91283478 L6.45662609,6.91283478 L8.54358261,1.69544348 L5.73913043,1.69544348 L2.28271304,6.91283478 Z" id="Fill-6"></path>
                        <path d="M28.1088,31.0434783 L3.3261913,31.0434783 L3.3261913,14.0869565 L4.63053913,14.0869565 L4.63053913,29.7391304 L26.8044522,29.7391304 L26.8044522,14.0869565 L28.1088,14.0869565 L28.1088,31.0434783 Z" id="Fill-7"></path>
                        <path d="M24.1957565,31.0434783 L17.6740174,31.0434783 L17.6740174,19.3043478 L24.1957565,19.3043478 L24.1957565,31.0434783 Z M18.9783652,29.7391304 L22.8914087,29.7391304 L22.8914087,20.6086957 L18.9783652,20.6086957 L18.9783652,29.7391304 Z" id="Fill-8"></path>
                    </g>
                </g>
                <g id="Group-2" transform="translate(119.000000, 137.000000)" sketch:type="MSShapeGroup">
                    <g id="Oval-1-+-Oval-3-+-DEMETER" fill="#222837">
                        <path d="M49,98.7238095 C76.0619527,98.7238095 98,76.623732 98,49.3619048 C98,22.1000775 76.0619527,0 49,0 C21.9380473,0 0,22.1000775 0,49.3619048 C0,76.623732 21.9380473,98.7238095 49,98.7238095 Z" id="Oval-1"></path>
                    </g>
                    <g id="Layer_x0020_1" transform="translate(6.712329, 3.606349)" stroke-width="0.003">
                        <path d="M42.3565194,27.1111208 C41.2926297,25.7422054 40.3035466,24.2473165 41.1596464,22.324101 C41.5745576,21.4315317 42.1487294,20.787221 42.7056099,20.5100788 C45.30715,22.8363943 44.1933929,26.1956807 42.3565214,27.1111013 L42.3565194,27.1111208 Z" id="Shape" stroke="#1F1A17" fill="#9ECF6F"></path>
                        <path d="M46.5455734,27.4135132 C45.9388256,26.2965445 45.0577903,24.6252953 45.997006,22.7776896 C46.3460945,22.1562185 47.0692051,21.3331916 48.2411465,21.0644453 C49.2967231,23.0800273 50.1777545,25.8514651 46.5455734,27.4135132 L46.5455734,27.4135132 Z" id="Shape" stroke="#1F1A17" fill="#9ECF6F"></path>
                        <path d="M50.3858617,28.824287 C50.2611872,27.0396601 50.1489802,25.3180161 51.5328675,24.163264 C52.2518234,23.6677663 52.8336356,23.3990239 54.0762271,23.3822282 C54.7037539,26.7205346 52.6009138,29.1518279 50.3858655,28.8242753 L50.3858617,28.824287 Z" id="Shape" stroke="#1F1A17" fill="#9ECF6F"></path>
                        <path d="M53.427701,31.1422379 C53.8017242,29.7355312 54.1882149,28.1776556 55.6718414,27.4134156 C56.0333973,27.1950609 57.1928693,26.7499534 58.8136357,27.5141947 C58.7388309,28.0054924 57.9533833,32.4019729 53.4277203,31.1422391 L53.427701,31.1422379 Z" id="Shape" stroke="#1F1A17" fill="#9ECF6F"></path>
                        <path d="M56.1130415,34.4693354 C56.748487,33.3348483 57.2967798,31.8854277 59.9107858,31.6460767 C61.0037639,31.6418776 61.8723295,32.2675478 62.3544032,32.5530859 C61.8390807,33.2879345 60.6179448,37.0350176 56.1130454,34.4693315 L56.1130415,34.4693354 Z" id="Shape" stroke="#1F1A17" fill="#9ECF6F"></path>
                        <path d="M58.0656649,38.7008753 C58.6474771,37.6426974 59.7030538,36.2317908 62.4541958,36.5845155 C63.2147097,36.7860737 63.9502881,37.4159421 64.4489881,37.9450311 C62.9071812,39.8976225 60.5674434,41.069182 58.0656495,38.7008753 L58.0656649,38.7008753 Z" id="Shape" stroke="#1F1A17" fill="#9ECF6F"></path>
                        <path d="M58.3649383,43.2859877 C60.0605114,42.311792 61.0828393,41.110841 63.9004904,42.7820942 C64.2125722,43.2186331 64.5280172,43.5547341 64.748277,44.0922229 C63.7675032,44.9320493 60.6174151,47.1323876 58.3649383,43.2859916 L58.3649383,43.2859877 Z" id="Shape" stroke="#1F1A17" fill="#9ECF6F"></path>
                        <path d="M36.6714853,21.0140466 C38.7410806,21.6859085 39.3145835,23.2647757 39.3644508,24.7932598 C39.289646,25.4651218 38.8906863,26.8172376 38.4667969,27.3127353 C35.256742,26.3440912 35.6589283,23.6276583 36.6714853,21.0140661 L36.6714853,21.0140466 Z" id="Shape" stroke="#1F1A17" fill="#9ECF6F"></path>
                        <path d="M30.8866934,23.4327949 C33.1890143,23.2144403 34.3193938,25.0368615 34.577055,26.5569458 C34.7349759,27.4723547 34.5853514,28.136231 34.5271854,28.9252524 C30.3963236,28.2785859 30.4544769,25.4399771 30.8866911,23.4328066 L30.8866934,23.4327949 Z" id="Shape" stroke="#1F1A17" fill="#9ECF6F"></path>
                        <path d="M26.2611025,27.3002138 C26.2112329,28.3709914 26.5977236,29.9960536 27.9566756,30.8652715 C28.9830248,31.4440442 30.4709432,31.6337115 31.3852233,31.192803 C30.7826321,27.5773544 28.4969337,27.0356501 26.2611141,27.3002122 L26.2611025,27.3002138 Z" id="Shape" stroke="#1F1A17" fill="#9ECF6F"></path>
                        <path d="M28.7422876,34.3673659 C28.0150185,32.7213082 26.7391859,31.6925217 25.0893274,31.6211391 C24.0088152,31.5329574 23.0537387,32.2121717 22.6083086,32.4525658 C23.9547913,35.0056326 26.9719,36.4375426 28.7422914,34.3673659 L28.7422876,34.3673659 Z" id="Shape" stroke="#1F1A17" fill="#9ECF6F"></path>
                        <path d="M26.8971551,38.5496792 C25.8789799,37.0002034 24.0628893,36.2317634 22.2468181,36.6726703 C21.6608493,36.7692502 20.8629339,37.4705056 20.5138435,37.8946168 C22.4577749,40.5510948 25.5055996,40.7400548 26.8971822,38.5496792 L26.8971551,38.5496792 Z" id="Shape" stroke="#1F1A17" fill="#9ECF6F"></path>
                        <path d="M26.4981239,43.3363865 C25.5963135,42.5805422 23.1485396,41.1444441 21.5111624,42.4293773 C21.1396663,42.6829704 20.5636373,43.2650039 20.3142893,44.1930086 C22.1012877,45.8348664 25.2971136,46.0658176 26.498151,43.3363865 L26.4981239,43.3363865 Z" id="Shape" stroke="#1F1A17" fill="#9ECF6E"></path>
                        <path d="M20.2145431,46.5615145 C19.4581857,45.8140701 18.3527379,43.6809145 14.5543324,44.7978832 C13.6234298,45.192599 12.4182436,46.4187454 12.0857795,47.1661899 C15.1693933,50.5422875 18.203136,49.1565764 20.2145315,46.5615145 L20.2145431,46.5615145 Z" id="Shape" stroke="#1F1A17" fill="#62B739"></path>
                        <path d="M20.0150275,40.9684275 C19.5661986,40.0194233 18.469064,38.3145788 15.9506321,38.3481741 C14.3049302,38.037439 12.6093571,39.5659207 12.0857253,40.2125872 C13.5319465,43.0847874 17.0477475,43.9918005 20.0150004,40.9684314 L20.0150275,40.9684275 Z" id="Shape" stroke="#1F1A17" fill="#62B739"></path>
                        <path d="M21.8102811,35.1733549 C20.6217172,32.5866928 19.2586121,31.8644439 17.8207041,31.6712839 C16.249805,31.4277346 14.5293002,32.1163906 14.1303425,32.6538794 C15.9505896,38.3478811 20.1978201,36.0971636 21.8103004,35.1733549 L21.8102811,35.1733549 Z" id="Shape" stroke="#1F1A17" fill="#62B739"></path>
                        <path d="M24.1542025,29.8322616 C24.2539421,26.2042172 21.7355207,25.4231931 21.1620178,25.1460392 C19.6908611,24.6001545 18.5189197,24.8604987 17.5713947,25.2468183 C17.6461995,31.1088157 22.8326515,30.2185944 24.1542102,29.8322823 L24.1542025,29.8322616 Z" id="Shape" stroke="#1F1A17" fill="#62B739"></path>
                        <path d="M28.4430142,25.4483534 C28.600935,23.4159758 28.9084655,22.0386645 26.8721151,20.33382 C25.8497834,19.6367665 24.3287554,19.1412688 23.0072083,19.3008335 C22.0015028,24.1214135 25.8830321,25.9186556 28.4430026,25.4483456 L28.4430142,25.4483534 Z" id="Shape" stroke="#1F1A17" fill="#62B739"></path>
                        <path d="M33.9285327,22.475219 C34.5352805,21.3330588 35.5908571,19.6366102 34.252686,17.108731 C33.6376251,16.2941 32.3493228,15.0259664 30.9862177,14.7152289 C27.952475,18.7631846 31.6012786,21.9041194 33.9285351,22.4752269 L33.9285327,22.475219 Z" id="Shape" stroke="#1F1A17" fill="#62B739"></path>
                        <path d="M39.5640746,20.7620529 C40.6196512,19.7962531 42.04925,18.0494174 41.1100381,15.2444077 C40.7110804,14.4465724 39.8383583,13.119652 38.7661592,12.5989589 C34.5687922,15.8994701 37.6524021,19.4267366 39.5640746,20.7620685 L39.5640746,20.7620529 Z" id="Shape" stroke="#1F1A17" fill="#62B739"></path>
                        <path d="M46.2965655,12.6494201 C45.2576113,13.1449178 43.3210033,14.8497622 43.5537289,17.8395517 C43.7532082,18.8473426 44.4264511,19.9559115 45.3490405,20.7117519 C47.6596746,19.5108009 50.2445961,15.6392173 46.2965655,12.6494396 L46.2965655,12.6494201 Z" id="Shape" stroke="#1F1A17" fill="#62B739"></path>
                        <path d="M53.876611,14.8665735 C52.5633732,15.2948846 51.0257228,15.9247515 50.2361167,18.2930582 C49.8758851,20.3409539 50.5574845,21.9953177 51.0839033,22.4753714 C54.7576425,21.4507848 56.5862028,17.2264804 53.876611,14.8665696 L53.876611,14.8665735 Z" id="Shape" stroke="#1F1A17" fill="#62B739"></path>
                        <path d="M61.8556877,19.4520766 C60.7834886,19.3596957 58.1653261,19.1413415 56.6193703,22.2990853 C55.9793738,23.365663 56.345239,24.5764867 56.4198911,25.5492095 C60.2764847,25.6835815 63.2354361,23.0717251 61.8556854,19.4520961 L61.8556877,19.4520766 Z" id="Shape" stroke="#1F1A17" fill="#62B739"></path>
                        <path d="M60.8584964,29.8826603 C60.7836916,28.219807 60.908366,26.0530601 64.1499004,25.0452808 C65.5213187,24.7597404 66.5436504,24.9277053 67.5909139,25.246839 C67.2667606,29.714706 64.5239225,30.655326 60.8585003,29.8826627 L60.8584964,29.8826603 Z" id="Shape" stroke="#1F1A17" fill="#62B739"></path>
                        <path d="M63.3021757,35.0221587 C63.9810661,33.431399 64.4200738,31.728336 67.8901834,31.4445052 C69.0953696,31.5368861 70.2257491,32.032381 70.9821104,32.5530742 C70.2922466,36.5506311 65.9868357,37.3232944 63.3021525,35.0221587 L63.3021757,35.0221587 Z" id="Shape" stroke="#1F1A17" fill="#62B739"></path>
                        <path d="M64.748277,40.9180288 C65.7041151,39.5995042 66.4106014,37.7266952 70.0843521,38.3985533 C71.0318772,38.5665182 72.0916104,39.2005846 72.9269272,40.1117976 C71.804857,41.5982866 70.4085031,43.739842 66.9425424,42.3793263 C66.1612494,42.1189805 65.3550209,41.5311039 64.7482731,40.9180327 L64.748277,40.9180288 Z" id="Shape" stroke="#1F1A17" fill="#62B739"></path>
                        <path d="M64.8979137,46.6119132 C65.4132361,45.7468952 66.2776451,43.9244732 69.8848752,44.5459443 C71.2064224,44.9784552 72.0292733,45.8266776 72.8770599,46.86386 C72.0126509,48.1991802 70.3752621,49.8116466 67.5908636,48.829051 C66.5934674,48.4427315 65.670878,47.7540735 64.8978982,46.6119132 L64.8979137,46.6119132 Z" id="Shape" stroke="#1F1A17" fill="#62B739"></path>
                        <path d="M72.4280803,50.0886442 C75.262346,47.6951421 79.1438675,48.6273506 80.2576362,50.2398127 C81.3963289,51.6003284 81.7869773,52.7340927 82.102819,54.3213675 C78.9360891,56.3537452 75.9688361,55.5391141 74.3231419,54.06942 C73.1678268,53.0952242 72.5112079,51.5919356 72.4280919,50.0886626 L72.4280803,50.0886442 Z" id="Shape" stroke="#1F1A17" fill="#00923F"></path>
                        <path d="M73.4755371,42.6815937 C74.9051358,41.6066161 76.683825,39.6498248 80.4573065,40.9683494 C81.9118408,41.5898204 83.2417011,43.244274 83.9980585,45.4026172 C82.3191116,47.1410569 78.6952359,48.2244304 75.5201929,45.8561237 C74.6890287,45.0498925 73.7830617,44.117684 73.4755332,42.6815858 L73.4755371,42.6815937 Z" id="Shape" stroke="#1F1A17" fill="#00923F"></path>
                        <path d="M72.078928,36.0301333 C72.6025597,35.1567155 75.2456579,30.8064026 79.709007,32.8052045 C80.7230256,33.4098799 81.8118471,34.3924754 82.7510629,35.5262359 C82.1609375,36.2988758 79.750565,39.6917495 75.9687704,38.7511647 C74.672155,38.4488278 72.9765857,37.4662315 72.0789125,36.0301333 L72.078928,36.0301333 Z" id="Shape" stroke="#1F1A17" fill="#00923F"></path>
                        <path d="M69.0869676,28.6730908 C70.2339734,26.3803666 71.3560436,23.4325996 74.9217157,23.6845151 C75.8692407,23.6509221 77.5897494,23.8944715 79.4100043,25.700097 C78.7196224,27.3696859 77.4218509,29.9193693 74.6723599,30.3359207 C72.8105547,30.7390363 71.0484919,30.4115051 69.0869289,28.6730674 L69.0869676,28.6730908 Z" id="Shape" stroke="#1F1A17" fill="#00923F"></path>
                        <path d="M64.9477926,22.0720292 C64.914546,19.199829 65.3301274,16.7811393 67.5410195,15.420608 C68.6963346,14.7823412 70.1508689,14.16927 73.0266927,15.1686604 C73.3840928,16.1680516 73.1929252,19.0318559 71.18151,21.1146166 C70.0261949,21.8620611 68.048025,23.0882036 64.947808,22.0720167 L64.9477926,22.0720292 Z" id="Shape" stroke="#1F1A17" fill="#00923F"></path>
                        <path d="M57.7663916,16.9829295 C62.6868866,17.134098 63.6676449,13.8587787 64.1497302,12.14555 C64.3408975,11.1545547 64.3824559,9.13057686 63.4515533,7.96323678 C59.3206914,7.96323678 58.1321044,9.70167652 57.2676915,11.5912812 C56.7357467,13.6908454 57.0017195,15.2361213 57.7663877,16.9829686 L57.7663916,16.9829295 Z" id="Shape" stroke="#1F1A17" fill="#00923F"></path>
                        <path d="M50.1364672,13.657004 C53.1535874,13.228693 55.1483682,10.4320752 55.0735885,7.76144652 C55.1400817,5.67868188 54.2839824,4.45253547 53.4777577,3.47833583 C49.0060954,4.21738047 47.9754582,7.82864483 48.4409173,9.92820123 C48.7068893,11.2719212 49.4715583,12.6408367 50.1364904,13.6570236 L50.1364672,13.657004 Z" id="Shape" stroke="#1F1A17" fill="#00923F"></path>
                        <path d="M42.5061561,11.6918442 C43.5201747,11.0955687 47.5513098,8.0805955 45.0993831,3.62953202 C44.5175709,2.57974991 43.6864068,1.73152756 42.6058946,1.0092786 C40.1539641,2.00866979 38.9238423,5.37638717 39.5264373,8.01341282 C39.6511117,9.21436377 40.9601926,11.0703771 42.5061561,11.6918481 L42.5061561,11.6918442 Z" id="Shape" stroke="#1F1A17" fill="#00923F"></path>
                        <path d="M34.6767162,13.7074028 C37.2533207,10.910785 36.9125435,6.60247107 34.926065,5.09078265 C33.8413962,4.22576463 32.6320573,3.7134713 31.6346611,3.4783202 C29.614937,5.18316469 29.5401303,9.30671847 31.0362226,11.2383182 C32.1250441,12.6660204 33.4632175,13.262296 34.6767169,13.7074028 L34.6767162,13.7074028 Z" id="Shape" stroke="#1F1A17" fill="#00923F"></path>
                        <path d="M27.395944,17.0333283 C27.6785393,15.1017325 29.2078781,12.0615521 25.8001133,8.92061731 C24.8193395,8.47551057 22.8162379,7.87923499 21.7107785,7.86243932 C20.5481091,9.87102016 20.5362658,12.6019906 21.7107785,14.3123047 C22.8079131,15.6728204 24.7528343,17.1341179 27.3959286,17.0333361 L27.395944,17.0333283 Z" id="Shape" stroke="#1F1A17" fill="#00923F"></path>
                        <path d="M20.1147853,22.0216305 C20.2145249,18.3851863 18.6436285,15.5801649 16.3745525,14.9670975 C14.3797601,14.2868397 12.7839293,14.8159291 11.7366659,15.118266 C11.6784846,17.6965283 12.6675684,20.526753 14.0306736,21.1146209 C16.5075397,23.1050074 18.5106491,22.3743587 20.1147775,22.0216301 L20.1147853,22.0216305 Z" id="Shape" stroke="#1F1A17" fill="#00923F"></path>
                        <path d="M15.8259736,28.5722933 C14.6272561,25.0884792 12.275327,23.7394067 9.99122544,23.6341164 C7.51435935,23.7684884 6.23437022,25.0114277 5.70241374,25.7000853 C6.4837067,28.6394721 8.46187277,29.8404387 9.99122544,30.2855493 C12.2603015,30.7726472 14.8784679,29.8992298 15.8259736,28.5723051 L15.8259736,28.5722933 Z" id="Shape" stroke="#1F1A17" fill="#00923F"></path>
                        <path d="M12.7837476,35.8789371 C11.894403,34.4596347 9.50896612,31.4026704 5.70225907,32.6036213 C4.87109494,32.821976 3.4414962,33.7457816 2.31111669,35.5262124 C3.08409651,36.7523589 4.45551481,38.860319 7.84666879,39.0534789 C9.54224191,38.9275052 11.960943,38.1212743 12.7837901,35.878941 L12.7837476,35.8789371 Z" id="Shape" stroke="#1F1A17" fill="#00923F"></path>
                        <path d="M11.4374041,42.7319924 C9.17131306,41.2747111 6.97730284,39.6032744 3.55796922,41.5730326 C2.02862815,42.412859 1.29720635,44.4116414 1.21409032,45.3018549 C2.53563746,46.5363972 4.97925868,48.0228862 7.79690589,46.8135394 C9.01040529,46.4608128 10.9968806,45.201077 11.4374002,42.7319846 L11.4374041,42.7319924 Z" id="Shape" stroke="#1F1A17" fill="#00923F"></path>
                        <path d="M12.6344976,49.9878468 C10.6313959,48.9884556 6.43006562,47.2059189 4.00703394,51.1468066 C3.45846662,52.0706153 3.05950892,53.1707844 2.95977047,54.3717354 C4.87975608,55.2619489 7.44805908,56.5048909 10.2906148,54.321346 C11.3496327,53.502562 12.3338438,52.2579009 12.6344937,49.9878366 L12.6344976,49.9878468 Z" id="Shape" stroke="#1F1A17" fill="#00923F"></path>
                        <path d="M26.7158124,43.6204165 C25.2902775,48.2563183 26.4206585,53.597607 27.5759759,56.3438299 C29.188433,59.7535189 31.4492075,62.608939 34.0590337,65.3635617 C36.7353767,68.7228637 39.2122583,72.3844955 42.3873013,71.9645842 C46.1607789,72.0737615 47.9145402,68.4289219 48.6210033,67.5303164 C52.2199396,63.9862543 54.7716124,60.6437401 56.6500362,56.8981378 C59.2266407,51.3216941 58.4370346,47.2821382 57.921716,43.4189388 C57.7139252,39.9252676 54.4890156,38.9762712 52.7601783,38.4555625 C50.9233087,38.0524468 47.6402063,38.4807572 45.229857,37.6997182 C43.8833743,37.4057796 43.3597426,36.4819716 43.2849358,35.3818025 C45.2963506,37.3469935 47.6070001,37.1454338 49.6183956,37.1958247 C52.5782324,36.760071 54.8173231,38.217782 57.0988766,39.5641314 C56.9575028,39.0879688 56.8010281,38.56097 56.6500478,38.0524468 C54.2895464,36.4819755 52.003848,36.0704601 50.7654207,36.1376467 C47.9062194,36.4735769 45.5207902,35.7765218 43.1353417,34.1472602 C42.9109276,33.966698 42.9109276,33.2696425 43.0106672,32.9379134 C45.2381814,34.9115003 48.0890735,35.1592511 49.9176183,35.0794687 C52.5482467,34.9660923 54.5430546,35.9444867 56.0516012,36.6415442 C56.0640686,35.8731042 55.5279694,35.2054421 54.9295309,35.0542733 C53.03897,34.4425694 51.1477401,34.0044912 49.2194414,34.1220687 C46.6262144,34.1976531 44.9065022,33.2834299 43.0114522,32.2000525 C42.8867777,31.8977156 42.8361012,31.4556242 43.0106454,31.1238912 L42.4870136,31.1742805 C42.6698693,31.8041475 42.2106292,32.2704529 41.8288558,32.4818228 C40.2247273,33.5602736 38.7052383,33.6222172 37.1010711,33.744143 C34.9234243,34.0044888 32.695914,33.9121079 30.5681345,34.5251788 C29.3089243,34.7309361 29.209182,35.3398098 28.9224325,36.0116679 C30.3270957,35.0878591 32.0060464,35.0206726 33.7348566,34.903099 C36.718732,34.9954798 39.7211361,34.5588631 42.3060615,33.1395575 C42.3890863,33.5447516 42.2478041,34.1375501 42.2189265,34.4494987 C39.559206,35.5412719 37.1177075,36.104046 35.1810917,35.8353036 C33.2195481,35.7681174 31.4076141,35.9276844 29.8948954,36.4651705 C28.7936042,36.8094989 28.1660774,37.3175927 27.9749098,38.1784148 C29.7577555,37.2840014 31.690207,37.0446504 33.8096579,36.8934816 C35.704708,36.6961229 37.7742955,37.1538273 39.34521,36.641534 C40.5046817,36.3182015 41.2402601,35.9318808 42.0381755,35.3314053 C42.1171361,36.6835251 41.5103872,36.9018767 40.6667572,37.2714009 C38.1233975,38.2120053 33.1738258,37.4267685 31.4658022,38.2036055 C28.9307557,38.8418722 27.4180332,41.4201345 26.7780367,43.2173415 C26.7780976,43.2172954 26.7781433,43.2172185 26.7157909,43.620379 L26.7158124,43.6204165 Z" id="Shape" stroke="#1F1A17" fill="#FFFFFF"></path>
                        <path d="M43.010745,31.1242662 C42.8362009,31.1410627 42.6616565,31.1578593 42.4871132,31.1746556 C41.1738754,31.9472955 39.7234976,32.7325311 38.0860933,32.7619265 C35.5884482,32.976082 32.1308239,33.0264714 29.7952543,34.1602334 C29.7827868,33.2868156 30.3562874,32.8165134 31.6155014,32.5351713 C34.1048334,31.9472955 37.5416942,32.2790246 39.569716,31.5273803 C40.8567229,31.0850279 41.9717753,30.4524027 42.910991,29.763749 C45.1759105,31.6029667 48.8966905,31.9335745 49.8927604,32.1950424 C50.5784715,32.2874232 55.6402398,33.2112292 55.1290778,34.273611 C53.1218196,33.4883753 51.1519512,33.2322287 49.144693,33.0894596 C46.8257497,33.0138752 45.035832,31.926085 43.0107102,31.1242686 L43.010745,31.1242662 Z" id="Shape" stroke="#FFFFFF" fill="#FFFFFF"></path>
                        <path d="M26.5816421,44.2798976 L26.7063165,43.4736351 C29.4159082,41.3488793 33.5966413,40.2823015 36.1815667,41.8611726 C39.7638767,43.6416035 40.0797377,47.5132144 39.822061,50.6037505 C39.9218006,52.3757816 39.5553887,53.40835 39.3732322,54.4837417 C38.8038858,55.5419197 38.895315,56.675684 40.1711476,56.3733463 C40.6447573,56.2455113 40.9191338,56.3693164 41.218411,56.5749045 C41.7339771,57.1243132 42.7726838,57.0704022 43.3628092,56.5623072 C43.6204696,56.3061605 43.8656619,56.2893641 44.2105957,56.322957 C44.9544872,56.495121 45.9192301,56.3163891 45.2453933,54.6852991 C46.1887618,55.6175037 45.9103254,56.7764635 45.7939607,57.0662015 C45.1458985,58.0364161 44.5776619,57.797112 43.9986491,57.7212639 C43.4583949,58.1075834 42.1825585,59.0355885 40.5451697,57.7086665 C39.2693333,58.1915645 38.7290791,57.2005731 38.6251841,56.8520443 C38.6916773,53.3583731 37.5054879,51.0386485 36.4309148,49.2432426 C35.637156,48.3026382 35.1426125,48.2942384 34.2366455,48.3866204 C32.4205549,48.7057538 31.6267961,48.0045 31.1447185,47.5299983 C32.711461,48.2270518 34.0537871,47.7777467 34.9846897,47.4292192 C36.1052211,46.9763768 37.3813165,46.8775953 38.2885634,47.2402587 C37.8023331,46.4046322 36.9042191,46.3064523 35.6144127,46.4278117 C33.810788,47.2844338 32.2501663,47.1520766 30.7457685,46.7237655 C29.3577278,45.7579657 27.8948803,44.540219 26.5816541,44.2798764 L26.5816541,44.2799072 L26.5816421,44.2798976 Z" id="Shape" stroke="#1F1A17" fill="#4D2612"></path>
                        <path d="M38.1017337,45.8543695 C37.4700503,43.0787474 34.1808271,41.1718977 31.3942595,41.936591 C29.6072611,42.3397066 27.8327285,43.2845109 26.7439225,44.0403512 C27.9740443,43.9815637 29.4185603,44.7896553 30.6212913,45.3126848 C32.0675125,45.9383557 33.8875006,45.4101414 35.0347616,44.9599581 C36.0861816,44.687015 37.1251358,45.0439408 38.101753,45.8543715 L38.1017337,45.8543695 Z" id="Shape" stroke="#1F1A17" fill="#FFFFFF"></path>
                        <path d="M44.8643839,49.3568859 C46.3563197,47.866197 47.6487785,48.3155036 49.0409874,48.6388369 C50.4021322,49.0491528 51.8005702,49.2947939 53.5292761,48.0845524 C52.4238283,48.4414782 50.9817637,48.58425 49.7017707,48.0593576 C48.7708681,47.6856354 47.3243414,47.1049854 46.2981586,47.7318261 C46.3882924,47.1481033 47.8255354,46.6979489 48.9662348,46.9318849 C49.3409583,46.9932108 50.6626586,47.8322524 52.9308337,47.4546838 C54.195952,47.1794642 55.332344,46.2673327 55.8232799,45.7414396 C56.18068,45.4433018 56.6627533,45.0191906 57.5687203,44.8848174 C56.6710665,44.7294499 55.6736703,44.8890165 54.7261453,45.4391019 C54.401992,45.6784521 52.3323952,46.9255909 50.462273,45.7414388 C49.7225381,45.4223054 48.7209853,45.1157679 47.8690461,45.5398806 C47.3620367,45.691049 46.961022,46.0403009 46.5724306,46.2957248 C47.120998,43.8518357 49.4648769,42.4409291 51.65915,42.3653271 C53.5791356,42.188964 56.2720972,43.3815139 57.8679512,44.6832428 C57.2695127,43.5998694 55.5240723,42.5416875 53.6040789,41.9622115 C50.3874779,41.0300069 48.2430643,42.415718 47.0212634,43.2471447 C45.1927069,44.8092201 44.5485538,47.366479 44.8643955,49.3568773 L44.8643839,49.3568859 Z" id="Shape" stroke="#1F1A17" fill="#4D2612"></path>
                        <path d="M38.4636456,62.5304889 C39.2241596,63.244342 40.0719462,63.8952045 41.0070053,63.9162 C41.7633627,63.9078018 42.2412837,63.7538184 43.2760814,63.8910053 C44.4240306,64.0012593 45.2542474,63.084774 46.018918,62.4549032 C45.6765581,63.5916212 45.0482553,64.5013065 43.7747775,64.8987923 C42.885344,65.0596049 41.9966529,65.122515 41.0568765,64.9491817 C39.4832089,64.6488135 38.902491,63.6402407 38.4636495,62.5304841 L38.4636456,62.5304889 Z" id="Shape" stroke="#1F1A17" fill="#4D2612"></path>
                        <path d="M41.6056294,62.5179869 C42.1114671,62.775733 42.3875758,62.7297428 42.8025025,62.5305843 C43.1183442,62.350022 43.3219777,62.2324465 43.7500275,62.253442 C44.3212143,62.2802826 44.5859707,62.1528169 44.859628,62.0644816 C45.5702708,61.7201531 46.3307848,60.6577749 46.9915603,61.0314951 C46.8585743,60.8215387 46.6258486,60.6241796 46.1811752,60.8173396 C45.350011,61.0776854 44.5936536,61.854522 43.6876866,61.5983754 C42.9437951,61.1070776 42.611331,61.2708438 42.2414655,61.5227909 C41.5640675,61.0482888 41.1360177,61.3674234 40.7329034,61.5353883 C39.9890119,61.9678993 39.1225652,61.1811544 38.3890245,60.829935 C37.5993759,60.6199481 37.4696907,60.8323499 37.2544884,61.0314932 C37.968209,60.6995164 38.5836953,61.4952436 39.3614851,61.9133108 C40.1283016,62.5805275 40.8949789,62.0014926 41.6056255,62.5179862 L41.6056294,62.5179869 Z" id="Shape" stroke="#1F1A17" fill="#4D2612"></path>
                    </g>
                </g>
                <g id="Oval-48-+-Imported-Layers" transform="translate(0.000000, 208.000000)" sketch:type="MSShapeGroup">
                    <path d="M40,80 C62.09139,80 80,62.09139 80,40 C80,17.90861 62.09139,0 40,0 C17.90861,0 0,17.90861 0,40 C0,62.09139 17.90861,80 40,80 Z" id="Oval-48" fill="#128D74"></path>
                    <g id="Imported-Layers" transform="translate(24.761905, 26.666667)" fill-opacity="0.87" fill="#FFFFFF">
                        <path d="M21.362714,0.743130647 C20.8834098,0.279003663 20.2495193,0.0227887668 19.5728801,0.0227887668 C18.8966727,0.0227887668 18.2623504,0.279003663 17.7817509,0.744810745 L16.3546337,2.13467155 C15.8774886,2.59879853 15.61236,3.21749451 15.61236,3.87525275 C15.61236,4.33979976 15.7423334,4.78250549 15.9884626,5.16808791 L2.24668406,10.5233993 C1.32737013,10.9157021 0.669730345,11.722989 0.484053976,12.6777045 C0.29708219,13.6391404 0.61057299,14.6253578 1.32737013,15.3225983 L14.2007878,27.7065983 C14.7556579,28.2467497 15.4927499,28.5516874 16.2704316,28.5697485 C16.2889992,28.5714286 16.3326116,28.5714286 16.349452,28.5714286 C16.553696,28.5714286 16.7609626,28.5500073 16.9669339,28.510525 C17.9721771,28.3072332 18.7969256,27.6314139 19.1700056,26.7107204 L24.5757787,13.5425348 C24.9821077,13.80337 25.4614118,13.9428181 25.9588518,13.9428181 C26.6372182,13.9428181 27.2711087,13.6853431 27.7486856,13.2207961 L29.1736438,11.8359756 C29.6564024,11.3701685 29.9210991,10.7497924 29.9210991,10.0903541 C29.9210991,9.43091575 29.6564024,8.81053968 29.1805527,8.34935287 L21.362714,0.743130647 Z M17.290788,25.9790379 C17.1659962,26.2873358 16.8892089,26.514149 16.5554232,26.5813529 C16.4776982,26.5977338 16.3999732,26.6023541 16.3244073,26.6023541 C16.0679148,26.5960537 15.8200584,26.4960879 15.6343821,26.3154774 L2.75276012,13.9230769 C2.51656251,13.6933236 2.41206557,13.3652845 2.47424557,13.0435458 C2.53685737,12.7251673 2.75621456,12.4546716 3.06322828,12.324884 L9.35463455,9.87362149 C13.5932374,11.2454212 17.8339993,9.92444444 22.0760567,14.3250403 L17.290788,25.9790379 Z M27.7486856,10.4381343 L26.318114,11.8296752 C26.1207789,12.0233065 25.8003792,12.0233065 25.6030441,11.8296752 L23.8132102,10.0903541 L22.3645027,13.6227595 L22.4841129,13.3241221 C19.4381568,10.3658901 16.3429749,9.99374847 13.5496251,9.65898901 C12.6523332,9.55230281 11.7818133,9.43889621 10.9268384,9.25996581 L19.5206316,5.91153114 L17.7852053,4.22303297 C17.5874384,4.03108181 17.5874384,3.71942369 17.7852053,3.52747253 L19.2153452,2.13467155 C19.4126803,1.94272039 19.73308,1.94272039 19.9304151,2.13467155 L27.7486856,9.74089377 C27.947748,9.93452503 27.947748,10.2461832 27.7486856,10.4381343 L27.7486856,10.4381343 Z" id="Fill-1"></path>
                        <path d="M17.1305882,17.742779 C18.52532,17.742779 19.6605366,16.6385348 19.6605366,15.2814359 C19.6605366,13.924757 18.52532,12.8205128 17.1305882,12.8205128 C15.7354246,12.8205128 14.6002079,13.924757 14.6002079,15.2814359 C14.6002079,16.6385348 15.7354246,17.742779 17.1305882,17.742779 L17.1305882,17.742779 Z M17.1305882,13.8050501 C17.9687226,13.8050501 18.6488163,14.4661685 18.6488163,15.2814359 C18.6488163,16.0971233 17.9687226,16.7582418 17.1305882,16.7582418 C16.2920219,16.7582418 15.61236,16.0971233 15.61236,15.2814359 C15.61236,14.4661685 16.2920219,13.8050501 17.1305882,13.8050501 L17.1305882,13.8050501 Z" id="Fill-2"></path>
                        <path d="M8.5281588,13.8050501 C8.5281588,14.8912332 9.43581398,15.7737045 10.552463,15.7737045 C11.6686803,15.7737045 12.5763355,14.8912332 12.5763355,13.8050501 C12.5763355,12.7188669 11.6686803,11.8359756 10.552463,11.8359756 C9.43581398,11.8359756 8.5281588,12.7188669 8.5281588,13.8050501 L8.5281588,13.8050501 Z M10.552463,12.8205128 C11.1103557,12.8205128 11.5641833,13.2602784 11.5641833,13.8050501 C11.5641833,14.3498217 11.1103557,14.7895873 10.552463,14.7895873 C9.99413851,14.7895873 9.54031092,14.3498217 9.54031092,13.8050501 C9.54031092,13.2602784 9.99413851,12.8205128 10.552463,12.8205128 L10.552463,12.8205128 Z" id="Fill-4"></path>
                        <path d="M14.6002079,19.7114335 C14.6002079,21.0240098 12.5763355,21.0240098 12.5763355,19.7114335 C12.5763355,18.3988571 14.6002079,18.3988571 14.6002079,19.7114335" id="Fill-5"></path>
                        <path d="M30.7929145,4.94505495 C30.7929145,6.25763126 28.769042,6.25763126 28.769042,4.94505495 C28.769042,3.63247863 30.7929145,3.63247863 30.7929145,4.94505495" id="Fill-6"></path>
                    </g>
                </g>
                <g id="Oval-50-+-Imported-Layers" transform="translate(0.000000, 73.000000)" sketch:type="MSShapeGroup">
                    <circle id="Oval-50" fill="#128D74" cx="40" cy="40" r="40"></circle>
                    <path d="M46.1698824,46.9411765 C46.1698824,47.4561129 45.7350588,47.8904094 45.2206494,47.8904094 L40.5161224,47.8904094 C40.0011859,47.8904094 39.5668894,47.4561129 39.5668894,46.9411765 C39.5668894,46.4267671 40.0011859,45.9924706 40.5161224,45.9924706 L45.2206494,45.9924706 C45.7329506,45.9945788 46.1698824,46.4288753 46.1698824,46.9411765 L46.1698824,46.9411765 Z M37.9467106,45.8749365 C37.9467106,49.6302306 34.904,52.7145788 31.1070682,52.7145788 C27.3127718,52.7145788 24.3090635,49.6302306 24.3090635,45.8749365 C24.3090635,42.1196424 27.3517741,39.0352941 31.1487059,39.0352941 C34.9430024,39.0352941 37.9467106,42.1196424 37.9467106,45.8749365 L37.9467106,45.8749365 Z M36.0482447,45.8749365 C36.0482447,43.14688 33.8351247,40.93376 31.1070682,40.93376 C28.3795388,40.93376 26.1658918,43.14688 26.1658918,45.8749365 C26.1658918,48.6029929 28.3795388,50.8161129 31.1070682,50.8161129 C33.8351247,50.8161129 36.0482447,48.6029929 36.0482447,45.8749365 L36.0482447,45.8749365 Z M59.0949459,47.0608188 C59.0949459,50.1841694 56.5645365,52.7145788 53.4411859,52.7145788 C50.3183624,52.7145788 47.7879529,50.1841694 47.7879529,47.0608188 C47.7879529,43.9374682 50.3183624,41.4070588 53.4411859,41.4070588 C56.5624282,41.4070588 59.0949459,43.9374682 59.0949459,47.0608188 L59.0949459,47.0608188 Z M57.19648,47.0608188 C57.19648,45.0063435 55.4961882,43.3055247 53.4411859,43.3055247 C51.3867106,43.3055247 49.6858918,45.0063435 49.6858918,47.0608188 C49.6858918,49.1152941 51.3867106,50.8161129 53.4411859,50.8161129 C55.5372988,50.8161129 57.19648,49.1152941 57.19648,47.0608188 L57.19648,47.0608188 Z M31.1070682,35.5192847 C30.0408282,35.5192847 29.0525929,35.6774024 28.0643576,35.9925835 L30.5947671,29.0749365 L38.6982965,29.0749365 L41.9797647,37.8910494 C42.0994071,38.2468141 42.4535906,38.4839906 42.8488847,38.4839906 L53.048,38.4839906 L55.1441129,40.5795765 C55.34176,40.7772235 55.5784094,40.8557553 55.8150588,40.8557553 C56.0522353,40.8557553 56.2888847,40.7772235 56.4865318,40.5795765 C56.8428235,40.2232847 56.8428235,39.6303435 56.4865318,39.2350494 L54.1537694,36.9028141 C53.9951247,36.7441694 53.7194729,36.6266353 53.4828235,36.6266353 L52.0597647,36.6266353 L52.0597647,31.6443482 C52.0597647,31.1294118 51.6254682,30.6951153 51.1110588,30.6951153 C50.5961224,30.6951153 50.1618259,31.1294118 50.1618259,31.6443482 L50.1618259,36.5855247 L43.5198306,36.5855247 L40.2383624,27.7694118 C40.11872,27.4136471 39.7645365,27.1764706 39.3692424,27.1764706 L29.9211859,27.1764706 C29.5258918,27.1764706 29.1701271,27.4136471 29.0525929,27.8089412 L25.6535906,37.0983529 C24.9821176,37.5326494 24.3480659,38.0080565 23.7962353,38.5598871 C23.4404706,38.9161788 23.4404706,39.50912 23.7962353,39.9044141 C24.1525271,40.2607059 24.7454682,40.2607059 25.1407624,39.9044141 C25.6145882,39.4305882 26.1289976,39.0352941 26.6829365,38.6795294 C26.8020518,38.64 26.9585882,38.5598871 27.0392282,38.4818824 C28.2641129,37.8104094 29.6476424,37.4541176 31.1112847,37.4541176 C33.3639341,37.4541176 35.4985224,38.3232376 37.0796988,39.9455247 C37.2773459,40.1431718 37.5145224,40.2211765 37.7511718,40.2211765 C37.9878212,40.2211765 38.2244706,40.1431718 38.4221176,39.9455247 C38.7784094,39.5892329 38.7784094,38.9962918 38.4221176,38.6009976 C36.4851765,36.6245271 33.8741271,35.5192847 31.1070682,35.5192847 L31.1070682,35.5192847 Z M31.1070682,44.6890541 C30.7903059,44.6890541 30.4751247,44.8086965 30.2774776,45.0453459 C30.0408282,45.2819953 29.9211859,45.5597553 29.9211859,45.8749365 C29.9211859,46.1922259 30.0408282,46.50688 30.2774776,46.7045271 C30.4751247,46.9411765 30.7924141,47.0608188 31.1070682,47.0608188 C31.4243576,47.0608188 31.7000094,46.9411765 31.9371859,46.7045271 C32.1738353,46.50688 32.2929506,46.1901176 32.2929506,45.8749365 C32.2929506,45.5576471 32.1738353,45.2819953 31.9371859,45.0453459 C31.7416471,44.8476988 31.4243576,44.6890541 31.1070682,44.6890541 L31.1070682,44.6890541 Z M53.4411859,45.6382871 C53.1244235,45.6382871 52.8092424,45.7574024 52.6115953,45.9945788 C52.3749459,46.2312282 52.2553035,46.5089882 52.2553035,46.8241694 C52.2553035,47.1409318 52.3749459,47.4171106 52.6115953,47.65376 C52.8482447,47.8904094 53.1265318,48.0100518 53.4411859,48.0100518 C53.7584753,48.0100518 54.0341271,47.8904094 54.2713035,47.65376 C54.5079529,47.4171106 54.6270682,47.1388235 54.6270682,46.8241694 C54.6270682,46.50688 54.5079529,46.1922259 54.2713035,45.9945788 C54.0757647,45.7552941 53.7584753,45.6382871 53.4411859,45.6382871 L53.4411859,45.6382871 Z" id="Imported-Layers" fill-opacity="0.87" fill="#FFFFFF"></path>
                </g>
                <g id="Oval-51-+-Imported-Layers" transform="translate(128.000000, 279.000000)" sketch:type="MSShapeGroup">
                    <circle id="Oval-51" fill="#128D74" cx="40" cy="40" r="40"></circle>
                    <path d="M49.3103448,39.6551724 L41.1205517,39.6551724 L41.1205517,30.1291034 C45.4697931,29.6937931 48.8794483,26.0148966 48.8794483,21.552 C48.8794483,21.0753103 48.4937931,20.6896552 48.0171034,20.6896552 C43.2628966,20.6896552 39.3969655,24.5561379 39.3969655,29.3103448 L39.3969655,29.3318621 C37.8234483,27.2303448 35.3213793,25.862069 32.5004138,25.862069 C32.0237241,25.862069 31.638069,26.2477241 31.638069,26.7238621 C31.638069,31.1873103 35.0477241,34.8662069 39.3969655,35.3015172 L39.3969655,39.6551724 L31.2071724,39.6551724 C30.7304828,39.6551724 30.3448276,40.0408276 30.3448276,40.5169655 L30.3448276,44.8275862 C30.3448276,45.3037241 30.7304828,45.689931 31.2071724,45.689931 L31.7197241,45.689931 L32.9357241,57.8449655 C32.9787586,58.2846897 33.3511724,58.6206897 33.7931034,58.6206897 L46.7244138,58.6206897 C47.1663448,58.6206897 47.5387586,58.2846897 47.5817931,57.8449655 L48.7977931,45.689931 L49.3103448,45.689931 C49.7870345,45.689931 50.1726897,45.3037241 50.1726897,44.8275862 L50.1726897,40.5169655 C50.1726897,40.0408276 49.7870345,39.6551724 49.3103448,39.6551724 L49.3103448,39.6551724 Z M33.4245517,27.6485517 C36.4893793,28.0601379 38.9246897,30.4937931 39.3362759,33.5602759 C36.2697931,33.1464828 33.8361379,30.7133793 33.4245517,27.6485517 L33.4245517,27.6485517 Z M47.0929655,22.4761379 C46.6813793,25.5409655 44.2477241,27.9762759 41.1812414,28.3878621 C41.5950345,25.3213793 44.0281379,22.8877241 47.0929655,22.4761379 L47.0929655,22.4761379 Z M32.0689655,41.3793103 L48.4485517,41.3793103 L48.4485517,43.9652414 L32.0689655,43.9652414 L32.0689655,41.3793103 Z M45.9442759,56.8965517 L34.5732414,56.8965517 L33.4526897,45.689931 L47.0648276,45.689931 L45.9442759,56.8965517 Z" id="Imported-Layers" fill="#ECECEC"></path>
                </g>
                <g id="Oval-47-+-Imported-Layers" transform="translate(128.000000, 0.000000)" sketch:type="MSShapeGroup">
                    <circle id="Oval-47" fill="#128D74" cx="40" cy="40" r="40"></circle>
                    <path d="M26.4126984,50.8952381 L26.4126984,45.3059048 L33.5989841,41.1987302 L43.3132698,46.055619 L52.6110476,36.7583492 L57.7559365,41.9012063 L59.3706667,40.2859683 L52.6110476,33.5258413 L42.8606984,43.2741587 L33.5273651,38.6072381 L26.4126984,42.6727619 L26.4126984,33.015873 L24.1269841,33.015873 L24.1269841,53.1809524 L59.7536508,53.1809524 L59.7536508,50.8952381 L26.4126984,50.8952381 Z" id="Imported-Layers" fill-opacity="0.87" fill="#FFFFFF"></path>
                </g>
                <g id="Oval-45-+-Imported-Layers" transform="translate(255.000000, 208.000000)" sketch:type="MSShapeGroup">
                    <path d="M40,80 C62.09139,80 80,62.09139 80,40 C80,17.90861 62.09139,0 40,0 C17.90861,0 0,17.90861 0,40 C0,62.09139 17.90861,80 40,80 Z" id="Oval-45" fill="#128D74"></path>
                    <path d="M50.6291412,25.9176577 C48.4315074,25.8665178 46.4066436,26.7248389 44.9277328,28.1367149 C43.4723187,29.5271675 42.5407431,31.4545891 42.4654154,33.6114492 C42.4626511,33.64393 42.4626511,33.6757196 42.4654154,33.7082004 L42.4654154,33.7572671 L42.4654154,33.7897478 C42.4115112,38.1463149 45.8883337,41.7689553 50.2566492,41.8719262 C54.6512257,41.974206 58.3174042,38.47596 58.419684,34.0806924 C58.5219638,29.6861159 55.0237178,26.0199375 50.6291412,25.9176577 L50.6291412,25.9176577 Z M50.5966605,27.4242117 C54.1785272,27.5078323 56.9967506,30.466345 56.91313,34.0489027 C56.8295093,37.6307694 53.8709966,40.4489929 50.2884389,40.3653722 C46.7121009,40.2817516 43.8987149,37.3336051 43.9719694,33.7572671 L43.9719694,33.7406811 C44.012052,31.9480201 44.765329,30.3474793 45.9643525,29.2058154 C47.1626849,28.0634605 48.8039995,27.383438 50.5966605,27.4242117 L50.5966605,27.4242117 Z M62.7603563,27.505068 L62.7603563,27.505068 C62.6684426,27.5154342 62.5820577,27.5430774 62.5012013,27.5859243 L59.3588614,29.1567487 C58.9863694,29.3461046 58.8377873,29.7966887 59.0271431,30.1691807 C59.2158079,30.5416727 59.667083,30.6902549 60.039575,30.5015901 L63.1819149,28.9300746 C63.8944182,28.5741685 63.6380276,27.4995394 62.8412126,27.505068 C62.8142605,27.5023037 62.7873084,27.5023037 62.7603563,27.505068 L62.7603563,27.505068 Z M50.4342567,28.1691957 L50.4342567,28.1691957 C50.0106248,28.17196 49.6761422,28.5223375 49.6892727,28.9466605 L49.6892727,29.4159037 C49.6194736,29.4297253 49.5517478,29.4324896 49.4784934,29.4483844 L49.4625985,29.4483844 C49.4570699,29.4483844 49.4515412,29.4649703 49.4467037,29.4649703 C48.488176,29.6377403 47.4432633,30.1857666 47.0493478,31.2949497 L47.0493478,31.3115356 C46.6602699,32.4290117 47.1170736,33.7545027 48.2967469,34.2265103 C48.3071131,34.2320389 48.3181703,34.2375675 48.3285365,34.2430962 L48.3451225,34.2430962 C48.774283,34.4289966 49.2303957,34.5209103 49.6892727,34.5672126 L49.6892727,36.9313966 C49.1039281,36.8940783 48.5310229,36.7966361 47.9885253,36.6079713 C47.0382905,36.2838549 46.5524614,37.7088614 47.5026962,38.0329779 C48.2075976,38.2790023 48.947053,38.3999412 49.6892727,38.4379506 L49.6892727,38.8588182 C49.6892727,39.8636483 51.1958267,39.8636483 51.1958267,38.8588182 L51.1958267,38.389575 C52.2213891,38.2326999 53.2794323,37.6473553 53.787376,36.5754905 C53.7977422,36.5540671 53.8087995,36.5319525 53.8198567,36.510529 C54.2946286,35.1449553 53.5821253,33.8484896 52.5399769,33.4331506 C52.5240821,33.427622 52.5074962,33.4220934 52.4916013,33.4172558 C52.1813065,33.3198135 51.7894642,33.2009478 51.2442023,33.1574098 L51.1958267,33.1574098 L51.1958267,30.8740821 C51.6063281,30.9279863 52.0541478,31.0357948 52.6208333,31.1657178 C53.5199281,31.2818192 53.8198567,30.0019394 52.9615356,29.7075394 C52.3347262,29.5644858 51.7708051,29.4241966 51.1958267,29.3675281 L51.1958267,28.9466605 C51.2089572,28.5174999 50.8634173,28.1636671 50.4342567,28.1691957 L50.4342567,28.1691957 Z M49.6892727,30.9549384 L49.6892727,33.0281779 C49.3520257,32.9874041 49.0631544,32.9334999 48.9118079,32.8664652 C48.8959131,32.8554079 48.8793272,32.8443506 48.8634323,32.8339844 C48.5393159,32.7123544 48.3368295,32.1587995 48.4584596,31.7973647 C48.6042774,31.3896276 49.1308802,31.0655112 49.6892727,30.9549384 L49.6892727,30.9549384 Z M51.1958267,34.6805497 C51.5199431,34.7102661 51.7272671,34.7448201 51.9891863,34.8263675 C51.9919506,34.8263675 51.986422,34.8422624 51.9891863,34.8422624 C52.2082586,34.934176 52.5938811,35.3467506 52.410745,35.9597384 C52.20273,36.3702398 51.7058436,36.6915919 51.1958267,36.8346455 L51.1958267,34.6805497 Z M41.639575,37.5312539 L41.639575,37.5312539 C41.5421328,37.5388558 41.4502192,37.5685722 41.3638342,37.6121103 L34.7882098,40.6735938 C34.3777084,40.8270135 34.1862793,41.2969478 34.3694154,41.6936276 C34.556007,42.0903074 35.0363074,42.2471826 35.4198567,42.0336389 L39.760529,40.025361 L39.760529,53.66313 L35.5166079,53.66313 C34.5124689,53.66313 34.5124689,55.169684 35.5166079,55.169684 L45.4944182,55.169684 C46.4985572,55.169684 46.4985572,53.66313 45.4944182,53.66313 L41.2504971,53.66313 L41.2504971,39.3287525 L42.0120671,38.9728464 C42.7542868,38.64873 42.5303769,37.5416201 41.7204314,37.5312539 C41.6934793,37.5284896 41.6665272,37.5284896 41.639575,37.5312539 L41.639575,37.5312539 Z M26.0902793,38.0004971 L26.0902793,38.0004971 C25.7689272,37.9977328 25.4828201,38.2002192 25.377776,38.5029121 L22.3812539,46.779284 C22.2057196,47.2706417 22.572683,47.7861872 23.0937572,47.784114 L34.0266398,47.784114 C34.547714,47.7861872 34.9146774,47.2706417 34.7391431,46.779284 L31.7426211,38.5029121 C31.6375769,38.2002192 31.3514699,37.9977328 31.0301178,38.0004971 L26.0902793,38.0004971 Z M26.624484,39.5070511 L30.4959131,39.5070511 L32.9575394,46.27756 L24.1628577,46.27756 L26.624484,39.5070511 Z M20.4697272,47.5567487 L20.4697272,47.5567487 C20.3508614,47.5622774 20.23476,47.5947581 20.1297159,47.654191 L17.3757628,49.030822 C16.9687168,49.1932257 16.7848896,49.6679976 16.979083,50.0619131 C17.1732765,50.4565196 17.6618699,50.6023375 18.0398905,50.3756633 L20.8097384,48.9824464 C21.5222417,48.6258492 21.2658511,47.5519112 20.4697272,47.5567487 L20.4697272,47.5567487 Z" id="Imported-Layers" fill-opacity="0.87" fill="#FFFFFF"></path>
                </g>
            </g>
        </g>
        <g id="block-4" sketch:type="MSArtboardGroup"></g>
    </g>
</svg>