<?xml version="1.0" encoding="UTF-8" standalone="no"?>
<svg width="56px" height="56px" viewBox="0 0 56 56" version="1.1" xmlns="http://www.w3.org/2000/svg" xmlns:xlink="http://www.w3.org/1999/xlink" xmlns:sketch="http://www.bohemiancoding.com/sketch/ns">
    <!-- Generator: Sketch 3.2.2 (9983) - http://www.bohemiancoding.com/sketch -->
    <title>icon-5</title>
    <desc>Created with Sketch.</desc>
    <defs></defs>
    <g id="Welcome" stroke="none" stroke-width="1" fill="none" fill-rule="evenodd" sketch:type="MSPage">
        <g id="Desktop-HD-2" sketch:type="MSArtboardGroup" transform="translate(-783.000000, -3905.000000)" fill="#FFFFFF">
            <g id="Polygon-23-+-Imported-Layers" sketch:type="MSLayerGroup" transform="translate(763.000000, 3882.000000)">
                <path d="M61.3211332,31.003343 C58.8621065,31.128903 54.7140398,33.3368097 54.8441865,36.526263 C54.8934932,37.7468897 55.9100132,39.3705697 55.0454265,40.2351564 L39.2030798,56.077503 C38.3384932,56.9420897 36.6161998,56.003543 35.3462665,56.0511297 C33.4513998,56.120503 31.9647465,57.3474364 31.0061332,58.8455564 C29.6977865,60.8929297 29.6977865,63.6787564 30.8180798,65.766263 C30.8513332,65.8310497 30.8960532,65.8958364 30.9522398,65.9543164 C31.0755065,66.084463 31.2497998,66.1761964 31.4091865,66.1022364 C33.0907732,65.3184897 33.2564665,61.1881964 36.2062665,62.0172364 C37.5232132,62.386463 39.2455065,63.6139697 38.7593198,65.1482097 C38.3092532,66.5723697 37.2789732,67.7775164 36.4482132,69.0182097 C36.1907865,69.4034897 36.5777865,69.6695164 36.8512665,69.6901564 C36.9252265,69.696463 37.0014798,69.703343 37.0794532,69.703343 C39.4960532,69.718823 43.9330798,67.4747964 43.7983465,64.180423 C43.7490398,62.9597964 42.7325198,61.3361164 43.5971065,60.4715297 L59.4394532,44.629183 C60.3040398,43.7645964 62.0263332,44.703143 63.2962665,44.6555564 C65.1911332,44.586183 66.6777865,43.3592497 67.6363998,41.8611297 C68.9447465,39.8137564 68.9447465,37.0279297 67.8244532,34.940423 C67.7149465,34.7368897 67.4661198,34.4972364 67.2333465,34.6044497 C65.5517598,35.3864764 65.3860665,39.5184897 62.4362665,38.6894497 C61.1193198,38.320223 59.3970265,37.0927164 59.8832132,35.5584764 C60.3332798,34.1343164 61.3635598,32.9429297 62.1943198,31.7022364 C62.4517465,31.3169564 62.0509865,31.0371697 61.7780798,31.0165297 C61.6301598,31.0056364 61.4845332,30.9941697 61.3211332,31.003343 L61.3211332,31.003343 Z M35.2923732,31.782503 C34.8893198,31.7985564 34.5309865,31.9418897 34.2580798,32.212503 L31.1804265,35.2901564 C30.4551598,36.015423 30.6701598,37.3994497 31.6643198,38.394183 L43.2341865,49.9634764 C43.2542532,49.983543 43.2811998,49.9995964 43.3012665,50.0173697 C45.2024398,48.122503 47.0904265,46.2213297 48.9852932,44.3201564 C48.9675198,44.3018097 48.9497465,44.2840364 48.9313998,44.266263 L37.3621065,32.6963964 C36.7394665,32.0737564 35.9620265,31.7555564 35.2923732,31.782503 L35.2923732,31.782503 Z M53.4601598,52.570423 C52.7905065,53.2400764 52.1277332,53.9011297 51.4580798,54.572503 L60.2191865,63.3473697 C60.1136932,63.452863 60.0580798,63.5893164 60.0580798,63.7372364 C60.0580798,63.8868764 60.1136932,64.0347964 60.2191865,64.1402897 L64.8282132,68.762503 C64.9331332,68.8679964 65.0833465,68.924183 65.2312665,68.924183 C65.3814798,68.924183 65.5293998,68.8679964 65.6343198,68.762503 L67.7304265,66.6663964 C67.8359198,66.5614764 67.8921065,66.4135564 67.8921065,66.263343 C67.8921065,66.115423 67.8359198,65.9652097 67.7304265,65.8602897 L63.0812665,61.2111297 C62.9757732,61.1056364 62.8284265,61.0494497 62.6782132,61.0494497 C62.5279998,61.0494497 62.3800798,61.118823 62.2751598,61.2243164 L62.1943198,61.2913964 L53.4601598,52.570423 Z" id="Imported-Layers" sketch:type="MSShapeGroup"></path>
            </g>
        </g>
        <g id="icon-5" sketch:type="MSArtboardGroup"></g>
    </g>
</svg>