<?xml version="1.0" encoding="UTF-8" standalone="no"?>
<svg width="53px" height="42px" viewBox="0 0 53 42" version="1.1" xmlns="http://www.w3.org/2000/svg" xmlns:xlink="http://www.w3.org/1999/xlink" xmlns:sketch="http://www.bohemiancoding.com/sketch/ns">
    <!-- Generator: Sketch 3.2.2 (9983) - http://www.bohemiancoding.com/sketch -->
    <title>icon-chart</title>
    <desc>Created with Sketch.</desc>
    <defs></defs>
    <g id="Page-1" stroke="none" stroke-width="1" fill="none" fill-rule="evenodd" sketch:type="MSPage">
        <g id="icon-chart" sketch:type="MSArtboardGroup" fill="#FFFFFF">
            <path d="M43.5463467,15.3665067 L37.4731733,25.3035733 C38.67296,26.4666667 39.4264533,28.0897067 39.4264533,29.8962133 C39.4264533,33.43328 36.5601067,36.2996267 33.0196267,36.2996267 C29.4868267,36.2996267 26.6170667,33.43328 26.6170667,29.8962133 C26.6170667,28.4301867 27.12992,27.0930133 27.9568,26.0135467 L23.8932267,22.3169067 C22.8504533,23.0533333 21.5866667,23.4936533 20.2136533,23.4936533 C19.0334933,23.4936533 17.9403733,23.1531733 16.98976,22.5968 L12.2034133,28.25952 C13.1898667,29.3867733 13.81024,30.8468267 13.81024,32.46304 C13.81024,36.0001067 10.94304,38.8698667 7.40341333,38.8698667 C3.86634667,38.8698667 1,36.00352 1,32.46304 C1,28.9268267 3.86634667,26.0562133 7.40341333,26.0562133 C8.39669333,26.0562133 9.32341333,26.30368 10.1630933,26.70304 L15.08,20.8901333 C14.2932267,19.82688 13.81024,18.5195733 13.81024,17.0936533 C13.81024,13.5565867 16.6765867,10.69024 20.2136533,10.69024 C23.7498667,10.69024 26.6196267,13.5565867 26.6196267,17.0936533 C26.6196267,18.34976 26.2433067,19.5102933 25.6203733,20.50016 L29.8631467,24.3632 C30.8001067,23.8264533 31.8667733,23.4962133 33.0196267,23.4962133 C33.86016,23.4962133 34.6597333,23.6702933 35.3970133,23.9629867 L41.4497067,14.05664 C40.2098133,12.88672 39.4264533,11.2432 39.4264533,9.40682667 C39.4264533,5.86976 42.2936533,3 45.83328,3 C49.3703467,3 52.2366933,5.86634667 52.2366933,9.40341333 C52.2366933,12.9396267 49.3703467,15.8068267 45.83328,15.8068267 C45.02688,15.8068267 44.25632,15.6395733 43.5463467,15.3665067 Z" id="Imported-Layers" sketch:type="MSShapeGroup"></path>
        </g>
    </g>
</svg>