<?xml version="1.0" encoding="UTF-8" standalone="no"?>
<svg width="56px" height="56px" viewBox="0 0 56 56" version="1.1" xmlns="http://www.w3.org/2000/svg" xmlns:xlink="http://www.w3.org/1999/xlink" xmlns:sketch="http://www.bohemiancoding.com/sketch/ns">
    <!-- Generator: Sketch 3.2.2 (9983) - http://www.bohemiancoding.com/sketch -->
    <title>icon-1</title>
    <desc>Created with Sketch.</desc>
    <defs></defs>
    <g id="Welcome" stroke="none" stroke-width="1" fill="none" fill-rule="evenodd" sketch:type="MSPage">
        <g id="Desktop-HD-2" sketch:type="MSArtboardGroup" transform="translate(-235.000000, -3713.000000)">
            <g id="Imported-Layers-+-Polygon-22" sketch:type="MSLayerGroup" transform="translate(214.000000, 3691.000000)">
                <g id="Polygon-22"></g>
                <path d="M66.4306718,36.5542436 C57.7698583,29.7311196 47.8112267,32.2373448 47.8112267,32.2373448 C46.0975183,30.2402686 42.9134842,29 40.1453403,29 C38.4577086,29 37.9562333,29.5302264 37.9562333,31.1591081 L37.9562333,35.4760069 C35.0075583,37.516555 32.6492869,41.1214356 31.3822258,44.1058525 L29.1911129,44.1058525 C27.5041499,44.1058525 27,44.6360788 27,46.2643019 L27,52.5374396 C27,54.1656626 29.1911129,55.9750189 31.3822258,55.9750189 C32.6466123,58.9594358 35.0075583,61.4860797 37.9535587,63.5259691 L37.9535587,66.7626552 C37.9535587,68.3915369 38.4577086,70 40.1426657,70 L45.6194451,70 C47.3044023,70 47.8112267,68.3915369 47.8112267,66.7626552 C48.8168519,66.8838498 50.3968335,67.2803669 51.4231864,67.2803669 C52.4495393,67.2803669 53.3769343,66.8838498 54.3825595,66.7626552 C54.3825595,68.3915369 55.9805943,70 57.668226,70 L62.0484459,70 C63.7327344,70 65.3341124,68.3915369 65.3341124,66.7626552 L65.3341124,63.5259691 C70.1422579,60.1865311 72.9999987,54.7604383 72.9999987,49.500988 C73.0020046,44.6742815 70.5969289,39.9094896 66.4306718,36.5542436 L66.4306718,36.5542436 Z M62.0792031,61.1099812 L62.0484459,66.7626552 L57.668226,66.7626552 L57.668226,62.4483911 C55.9337899,62.9496361 53.0426174,63.5286038 51.0968931,63.5286038 C49.1531747,63.5286038 47.3565557,62.9522708 45.6221196,62.4483911 L45.6221196,66.7626552 L41.2398938,66.7626552 L41.2398938,61.3675197 C37.9014053,59.4073289 35.5170572,56.1495654 34.6678923,52.7376741 L30.2856664,52.7376741 L30.2856664,47.3425386 L34.6678923,47.3425386 C35.5143827,43.9306473 37.9014053,40.6735425 41.2398938,38.7133516 L41.2398938,32.2393208 C43.5092369,32.2393208 45.8574787,34.6401594 46.7166732,36.5568782 C48.1843243,36.2097611 49.4928406,35.4786415 51.0968931,35.4786415 C60.2825841,35.4786415 69.7163382,41.9987791 69.7163382,49.5036227 C69.7163382,54.0477613 66.276886,58.6426173 62.0792031,61.1099812 L62.0792031,61.1099812 Z M41.3101003,41.9500378 C40.056412,41.9500378 39.0400886,42.9169599 39.0400886,44.1111218 C39.0400886,45.3046251 40.056412,46.2722059 41.3101003,46.2722059 C42.5637887,46.2722059 43.5801121,45.3046251 43.5801121,44.1111218 C43.5774375,42.9169599 42.5611142,41.9500378 41.3101003,41.9500378 L41.3101003,41.9500378 Z M46.7166732,40.8691664 L56.5736725,40.8691664 L56.5736725,39.788295 L46.7166732,39.788295 L46.7166732,40.8691664 Z" id="Imported-Layers" fill="#FEFEFE" sketch:type="MSShapeGroup"></path>
            </g>
        </g>
        <g id="icon-1" sketch:type="MSArtboardGroup"></g>
    </g>
</svg>