<?xml version="1.0" encoding="UTF-8" standalone="no"?>
<svg width="56px" height="56px" viewBox="0 0 56 56" version="1.1" xmlns="http://www.w3.org/2000/svg" xmlns:xlink="http://www.w3.org/1999/xlink" xmlns:sketch="http://www.bohemiancoding.com/sketch/ns">
    <!-- Generator: Sketch 3.2.2 (9983) - http://www.bohemiancoding.com/sketch -->
    <title>icon-3</title>
    <desc>Created with Sketch.</desc>
    <defs></defs>
    <g id="Welcome" stroke="none" stroke-width="1" fill="none" fill-rule="evenodd" sketch:type="MSPage">
        <g id="Desktop-HD-2" sketch:type="MSArtboardGroup" transform="translate(-236.000000, -4096.000000)" fill="#FFFDFE">
            <g id="Polygon-20-+-Imported-Layers" sketch:type="MSLayerGroup" transform="translate(214.000000, 4074.000000)">
                <g id="Imported-Layers" transform="translate(28.128178, 27.284000)" sketch:type="MSShapeGroup">
                    <path d="M35.8711733,1.49741176 C32.6754133,-0.311960784 28.6466,0.584013072 26.5390267,3.46023529 C25.70368,3.34837908 24.85916,3.29104575 24.0083333,3.29104575 C17.1438133,3.29104575 11.1329867,6.93396078 7.87416,12.3485882 C9.40381333,12.4233464 10.8348533,12.8533464 12.0916,13.5537124 C14.7117333,9.85402614 19.07652,7.42579085 24.0083333,7.42579085 C24.4045067,7.42579085 24.8012533,7.44321569 25.1951333,7.47413072 C25.1750667,9.90686275 26.45188,12.2805752 28.7538133,13.5823791 C32.1582667,15.5103529 36.51216,14.3664967 38.47812,11.026549 C40.44236,7.6939085 39.27792,3.42538562 35.8711733,1.49741176 L35.8711733,1.49741176 Z" id="Fill-1"></path>
                    <path d="M0.28208,21.6427712 C0.28208,25.259268 3.08854667,28.2338562 6.68277333,28.5851634 C7.00326667,29.3496078 7.37478667,30.0960654 7.79848,30.8183529 C11.2293067,36.6455556 17.45284,39.9304183 23.865,39.9877516 C23.1661067,38.6527843 22.82784,37.2211373 22.8215333,35.8046667 C18.2434667,35.4291895 13.9148,32.9396863 11.4488933,28.7498562 C11.2493733,28.4142876 11.0682,28.0697255 10.89792,27.7178562 C13.05652,26.5194771 14.5145067,24.2491895 14.5145067,21.6427712 C14.5145067,17.7890719 11.32792,14.6649673 7.39485333,14.6649673 C3.46924,14.6649673 0.28208,17.7890719 0.28208,21.6427712 L0.28208,21.6427712 Z" id="Fill-2"></path>
                    <path d="M35.86716,41.783634 C39.06292,39.9765098 40.28584,36.1053856 38.7986133,32.8778562 C39.31576,32.2235817 39.7881867,31.5344575 40.21188,30.8138562 C43.645,24.9866536 43.4322933,18.0616863 40.27896,12.5857908 C39.4482,13.846 38.3531333,14.847085 37.10556,15.5631895 C39.06292,19.6383529 39.0245067,24.5566536 36.5591733,28.7459216 C36.3596533,29.0837386 36.1469467,29.4108758 35.92048,29.7295817 C33.7819467,28.4952288 31.0471467,28.3946144 28.7452133,29.6964183 C25.34076,31.6243922 24.1740267,35.8923529 26.1382667,39.2300523 C28.1088133,42.5655033 32.4627067,43.7116078 35.86716,41.783634 L35.86716,41.783634 Z" id="Fill-3"></path>
                </g>
            </g>
        </g>
        <g id="icon-3" sketch:type="MSArtboardGroup"></g>
    </g>
</svg>