<?xml version="1.0" encoding="UTF-8" standalone="no"?>
<svg width="14px" height="14px" viewBox="0 0 14 14" version="1.1" xmlns="http://www.w3.org/2000/svg" xmlns:xlink="http://www.w3.org/1999/xlink" xmlns:sketch="http://www.bohemiancoding.com/sketch/ns">
    <!-- Generator: Sketch 3.2.2 (9983) - http://www.bohemiancoding.com/sketch -->
    <title>icon-instagram</title>
    <desc>Created with Sketch.</desc>
    <defs></defs>
    <g id="Welcome" stroke="none" stroke-width="1" fill="none" fill-rule="evenodd" sketch:type="MSPage">
        <g id="Desktop-HD-2" sketch:type="MSArtboardGroup" transform="translate(-349.000000, -4738.000000)" fill="#FFFFFF">
            <g id="Imported-Layers" sketch:type="MSLayerGroup" transform="translate(349.000000, 4738.000000)">
                <path d="M11.1139467,0.00373333333 L2.57973333,0.00373333333 C1.21408,0.00373333333 0.1036,1.11850667 0.1036,2.48864 L0.1036,11.0512267 C0.1036,12.42136 1.21408,13.53632 2.57973333,13.53632 L11.1139467,13.53632 C12.4796,13.53632 13.5902667,12.42136 13.5902667,11.0512267 L13.5902667,2.48864 C13.5902667,1.11850667 12.47904,0.00373333333 11.1139467,0.00373333333 L11.1139467,0.00373333333 Z M2.49237333,1.42184 L2.49237333,2.97285333 C2.49237333,3.17632 2.65701333,3.34170667 2.85973333,3.34170667 C3.06245333,3.34170667 3.22728,3.17706667 3.22728,2.97285333 L3.22728,1.41754667 L3.54162667,1.41754667 L3.54162667,2.97285333 C3.54162667,3.17632 3.70626667,3.34170667 3.90898667,3.34170667 C4.11170667,3.34170667 4.27653333,3.17706667 4.27653333,2.97285333 L4.27653333,1.41754667 L4.54122667,1.41754667 L4.54122667,2.97285333 C4.54122667,3.17632 4.70605333,3.34170667 4.90877333,3.34170667 C5.11224,3.34170667 5.27632,3.17706667 5.27632,2.97285333 L5.27632,1.41754667 L11.1117067,1.41754667 C11.7002667,1.41754667 12.1792533,1.89802667 12.1792533,2.48789333 L12.1792533,5.51898667 L9.69210667,5.51898667 C9.19184,4.43557333 8.09890667,3.68162667 6.83293333,3.68162667 C5.56714667,3.68162667 4.47346667,4.43557333 3.97394667,5.51898667 L1.51237333,5.51898667 L1.51237333,2.48864 C1.51237333,1.92789333 1.94469333,1.46701333 2.49237333,1.42184 L2.49237333,1.42184 Z M8.45170667,6.84245333 C8.45170667,7.73714667 7.72632,8.46570667 6.83368,8.46570667 C5.94197333,8.46570667 5.2164,7.73789333 5.2164,6.84245333 C5.2164,5.94776 5.94197333,5.21938667 6.83368,5.21938667 C7.72632,5.21938667 8.45170667,5.94701333 8.45170667,6.84245333 L8.45170667,6.84245333 Z M11.1139467,12.12176 L2.57973333,12.12176 C1.99136,12.12176 1.51293333,11.6410933 1.51293333,11.0512267 L1.51293333,6.62666667 L3.69394667,6.62666667 C3.68890667,6.69816 3.68592,6.7704 3.68592,6.84245333 C3.68592,8.58517333 5.09898667,10.00272 6.83517333,10.00272 C8.57210667,10.00272 9.98442667,8.58517333 9.98442667,6.84245333 C9.98442667,6.76965333 9.98088,6.69816 9.9764,6.62666667 L12.1814933,6.62666667 L12.1814933,11.0512267 C12.1807467,11.6410933 11.70232,12.12176 11.1139467,12.12176 L11.1139467,12.12176 Z" id="Fill-1" sketch:type="MSShapeGroup"></path>
                <path d="M9.73373333,4.31237333 L10.6917067,4.31237333 C10.9433333,4.31237333 11.1475467,4.10741333 11.1475467,3.85504 L11.1475467,2.89408 C11.1475467,2.64096 10.9433333,2.43618667 10.6917067,2.43618667 L9.73373333,2.43618667 C9.48210667,2.43618667 9.27789333,2.64096 9.27789333,2.89408 L9.27789333,3.85504 C9.27789333,4.10741333 9.48210667,4.31237333 9.73373333,4.31237333 L9.73373333,4.31237333 Z" id="Fill-2" sketch:type="MSShapeGroup"></path>
            </g>
        </g>
        <g id="icon-instagram" sketch:type="MSArtboardGroup"></g>
    </g>
</svg>