<?xml version="1.0" encoding="UTF-8" standalone="no"?>
<svg width="53px" height="52px" viewBox="0 0 53 52" version="1.1" xmlns="http://www.w3.org/2000/svg" xmlns:xlink="http://www.w3.org/1999/xlink" xmlns:sketch="http://www.bohemiancoding.com/sketch/ns">
    <!-- Generator: Sketch 3.2.2 (9983) - http://www.bohemiancoding.com/sketch -->
    <title>icon-sun</title>
    <desc>Created with Sketch.</desc>
    <defs></defs>
    <g id="Page-1" stroke="none" stroke-width="1" fill="none" fill-rule="evenodd" sketch:type="MSPage">
        <g id="icon-sun" sketch:type="MSArtboardGroup" fill="#FFFFFF">
            <g id="Imported-Layers" sketch:type="MSLayerGroup" transform="translate(1.000000, 0.000000)">
                <path d="M48.875,27.625 L44.62772,27.625 C43.45336,27.625 42.50272,26.67436 42.50272,25.5 C42.50272,24.32564 43.45336,23.375 44.62772,23.375 L48.875,23.375 C50.04936,23.375 51,24.32564 51,25.5 C51,26.67164 50.0514,27.625 48.875,27.625 L48.875,27.625 Z" id="Fill-1" sketch:type="MSShapeGroup"></path>
                <path d="M40.52936,13.48032 C39.69772,14.30924 38.35064,14.30924 37.5224,13.48032 C36.69348,12.6514 36.69348,11.305 37.5224,10.47608 L40.52936,7.47184 C41.35488,6.6436 42.70468,6.6436 43.5336,7.47184 C44.35912,8.30076 44.35912,9.64784 43.5336,10.47608 L40.52936,13.48032 Z" id="Fill-2" sketch:type="MSShapeGroup"></path>
                <path d="M25.5,12.75 C18.45588,12.75 12.74728,18.4586 12.74728,25.5 C12.74728,32.5414 18.45588,38.25 25.5,38.25 C32.5414,38.25 38.25,32.5414 38.25,25.5 C38.25,18.4586 32.54412,12.75 25.5,12.75 L25.5,12.75 Z M25.5,34 C20.80664,34 17,30.19336 17,25.5 C17,20.80664 20.80664,17 25.5,17 C30.19608,17 34,20.80664 34,25.5 C34,30.19336 30.19336,34 25.5,34 L25.5,34 Z" id="Fill-3" sketch:type="MSShapeGroup"></path>
                <path d="M25.5,8.5 C24.32564,8.5 23.375,7.54936 23.375,6.375 L23.375,2.125 C23.375,0.95064 24.32564,0 25.5,0 C26.67436,0 27.625,0.95064 27.625,2.125 L27.625,6.375 C27.625,7.54936 26.67164,8.5 25.5,8.5 L25.5,8.5 Z" id="Fill-4" sketch:type="MSShapeGroup"></path>
                <path d="M10.47336,13.48032 L7.46912,10.47608 C6.64088,9.64784 6.64088,8.30076 7.46912,7.47184 C8.29804,6.6436 9.64512,6.6436 10.47336,7.47184 L13.4776,10.47608 C14.30652,11.30772 14.30652,12.6514 13.4776,13.48032 C12.64936,14.30924 11.305,14.30924 10.47336,13.48032 L10.47336,13.48032 Z" id="Fill-5" sketch:type="MSShapeGroup"></path>
                <path d="M8.5,25.5 C8.5,26.67164 7.54936,27.625 6.375,27.625 L2.125,27.625 C0.95064,27.625 0,26.67164 0,25.5 C0,24.32564 0.95064,23.375 2.125,23.375 L6.375,23.375 C7.54936,23.375 8.5,24.32564 8.5,25.5 L8.5,25.5 Z" id="Fill-6" sketch:type="MSShapeGroup"></path>
                <path d="M10.47336,37.51968 C11.305,36.69076 12.64936,36.69076 13.4776,37.51968 C14.30652,38.3486 14.30652,39.695 13.4776,40.52392 L10.47336,43.52816 C9.64512,44.35912 8.29804,44.35912 7.46912,43.52816 C6.64088,42.69924 6.64088,41.35216 7.46912,40.52392 L10.47336,37.51968 Z" id="Fill-7" sketch:type="MSShapeGroup"></path>
                <path d="M25.5,42.5 C26.67436,42.5 27.625,43.45064 27.625,44.625 L27.625,48.875 C27.625,50.04936 26.67436,51 25.5,51 C24.32564,51 23.375,50.04936 23.375,48.875 L23.375,44.625 C23.375,43.45064 24.32564,42.5 25.5,42.5 L25.5,42.5 Z" id="Fill-8" sketch:type="MSShapeGroup"></path>
                <path d="M40.52936,37.51968 L43.5336,40.52392 C44.35912,41.35216 44.35912,42.69924 43.5336,43.52816 C42.70196,44.35912 41.35488,44.35912 40.52936,43.52816 L37.5224,40.52392 C36.69348,39.69228 36.69348,38.3486 37.5224,37.51968 C38.35064,36.69076 39.695,36.69076 40.52936,37.51968 L40.52936,37.51968 Z" id="Fill-9" sketch:type="MSShapeGroup"></path>
            </g>
        </g>
    </g>
</svg>