<?xml version="1.0" encoding="UTF-8" standalone="no"?>
<svg width="10px" height="17px" viewBox="0 0 10 17" version="1.1" xmlns="http://www.w3.org/2000/svg" xmlns:xlink="http://www.w3.org/1999/xlink" xmlns:sketch="http://www.bohemiancoding.com/sketch/ns">
    <!-- Generator: Sketch 3.2.2 (9983) - http://www.bohemiancoding.com/sketch -->
    <title>icon-phone</title>
    <desc>Created with Sketch.</desc>
    <defs></defs>
    <g id="Welcome" stroke="none" stroke-width="1" fill="none" fill-rule="evenodd" sketch:type="MSPage">
        <g id="Desktop-HD-2" sketch:type="MSArtboardGroup" transform="translate(-375.000000, -4720.000000)" fill="#FFFFFF">
            <path d="M373,4696 L373,4706.01208 L388.7664,4706.01208 L388.7664,4696 L373,4696 Z M380.8832,4702.39236 L374.51944,4696.83096 L387.24696,4696.83096 L380.8832,4702.39236 Z M378.03724,4701.00708 L373.83096,4704.68348 L373.83096,4697.33068 L378.03724,4701.00708 Z M378.66696,4701.55776 L380.8832,4703.49528 L383.09944,4701.55932 L387.24696,4705.18528 L374.51944,4705.18528 L378.66696,4701.55776 Z M383.72916,4701.00708 L387.93544,4697.33068 L387.93544,4704.68556 L383.72916,4701.00708 Z" id="Imported-Layers" sketch:type="MSShapeGroup"></path>
            <path d="M383.16,4720 L376.7,4720 C375.765,4720 375,4720.765 375,4721.7 L375,4734.96 C375,4735.895 375.765,4736.66 376.7,4736.66 L383.16,4736.66 C384.095,4736.66 384.86,4735.895 384.86,4734.96 L384.86,4721.7 C384.86,4720.765 384.095,4720 383.16,4720 L383.16,4720 Z M379.878547,4735.75855 C379.42,4735.75855 379.028547,4735.385 379.028547,4734.90855 C379.028547,4734.45 379.402093,4734.05855 379.878547,4734.05855 C380.355,4734.05855 380.728547,4734.43232 380.728547,4734.90855 C380.728547,4735.385 380.337093,4735.75855 379.878547,4735.75855 L379.878547,4735.75855 Z M383.5,4733.43 L376.36,4733.43 L376.36,4722.21 L383.5,4722.21 L383.5,4733.43 Z" id="Imported-Layers" sketch:type="MSShapeGroup"></path>
        </g>
        <g id="icon-phone" sketch:type="MSArtboardGroup"></g>
    </g>
</svg>