<?xml version="1.0" encoding="UTF-8" standalone="no"?>
<svg width="44px" height="35px" viewBox="0 0 44 35" version="1.1" xmlns="http://www.w3.org/2000/svg" xmlns:xlink="http://www.w3.org/1999/xlink" xmlns:sketch="http://www.bohemiancoding.com/sketch/ns">
    <!-- Generator: Sketch 3.2.2 (9983) - http://www.bohemiancoding.com/sketch -->
    <title>icon-camera</title>
    <desc>Created with Sketch.</desc>
    <defs></defs>
    <g id="Page-1" stroke="none" stroke-width="1" fill="none" fill-rule="evenodd" sketch:type="MSPage">
        <g id="icon-camera" sketch:type="MSArtboardGroup" fill="#FFFFFF">
            <g id="Imported-Layers" sketch:type="MSLayerGroup" transform="translate(0.000000, 1.000000)">
                <path d="M23.402,9.648 C18.715,9.648 14.914,13.449 14.914,18.137 C14.914,22.824 18.711,26.625 23.402,26.625 C28.09,26.625 31.891,22.824 31.891,18.137 C31.891,13.449 28.09,9.648 23.402,9.648 L23.402,9.648 Z" id="Fill-1" sketch:type="MSShapeGroup"></path>
                <path d="M39.742,3.25 L34.02,3.25 C33.676,1 32.25,0.25 30.543,0.25 L14.527,0.25 C12.82,0.25 11.395,1 11.051,3.25 L5.527,3.25 C3.152,3.25 0.75,5.035 0.75,7.41 L0.75,28.945 C0.75,31.324 3.152,33.25 5.531,33.25 L39.742,33.25 C42.117,33.25 43.5,31.324 43.5,28.945 L43.5,7.41 C43.5,5.035 42.117,3.25 39.742,3.25 L39.742,3.25 Z M6.668,11.25 C5.266,11.25 4.129,10.113 4.129,8.711 C4.129,7.309 5.266,6.172 6.668,6.172 C8.07,6.172 9.207,7.309 9.207,8.711 C9.207,10.113 8.07,11.25 6.668,11.25 L6.668,11.25 Z M23.402,28.918 C17.449,28.918 12.621,24.262 12.621,18.309 C12.621,12.703 16.891,7.75 22.359,7.75 L24.449,7.75 C29.914,7.75 34.188,12.703 34.188,18.309 C34.184,24.262 29.355,28.918 23.402,28.918 L23.402,28.918 Z" id="Fill-2" sketch:type="MSShapeGroup"></path>
            </g>
        </g>
    </g>
</svg>