<?xml version="1.0" encoding="UTF-8" standalone="no"?>
<svg width="39px" height="44px" viewBox="0 0 39 44" version="1.1" xmlns="http://www.w3.org/2000/svg" xmlns:xlink="http://www.w3.org/1999/xlink" xmlns:sketch="http://www.bohemiancoding.com/sketch/ns">
    <!-- Generator: Sketch 3.2.2 (9983) - http://www.bohemiancoding.com/sketch -->
    <title>icon-bell</title>
    <desc>Created with Sketch.</desc>
    <defs></defs>
    <g id="Page-1" stroke="none" stroke-width="1" fill="none" fill-rule="evenodd" sketch:type="MSPage">
        <g id="icon-bell" sketch:type="MSArtboardGroup" fill="#FFFFFF">
            <g id="Imported-Layers" sketch:type="MSLayerGroup">
                <path d="M35.4550667,30.2866667 C35.4550667,30.2866667 32.8433333,30.1175333 32.8433333,27.4192667 L32.8433333,19.3284 C32.8433333,11.8826 26.76476,5.71592 19.3166,5.71592 C11.8708,5.71906667 5.78908,11.9966667 5.78908,19.0766667 L5.70333333,19.0766667 L5.70333333,27.4192667 C5.70333333,27.4192667 5.78593333,30.2866667 3.0916,30.2866667 L0.393333333,30.2866667 L0.393333333,35.5966667 L38.1533333,35.5966667 L38.1533333,30.2866667 L35.4550667,30.2866667 Z" id="Fill-1" sketch:type="MSShapeGroup"></path>
                <path d="M21.9716,3.14666667 C21.9716,6.74173333 16.5750667,6.74173333 16.5750667,3.14666667 C16.5750667,-0.4484 21.9716,-0.4484 21.9716,3.14666667" id="Fill-2" sketch:type="MSShapeGroup"></path>
                <path d="M19.2733333,43.3492667 C22.2540133,43.3492667 24.6659333,40.9066667 24.6659333,37.9566667 L13.8807333,37.9566667 C13.8807333,40.9066667 16.2926533,43.3492667 19.2733333,43.3492667 L19.2733333,43.3492667 Z" id="Fill-3" sketch:type="MSShapeGroup"></path>
            </g>
        </g>
    </g>
</svg>