<?xml version="1.0" encoding="UTF-8" standalone="no"?>
<svg width="49px" height="43px" viewBox="0 0 49 43" version="1.1" xmlns="http://www.w3.org/2000/svg" xmlns:xlink="http://www.w3.org/1999/xlink" xmlns:sketch="http://www.bohemiancoding.com/sketch/ns">
    <!-- Generator: Sketch 3.2.2 (9983) - http://www.bohemiancoding.com/sketch -->
    <title>icon-graph</title>
    <desc>Created with Sketch.</desc>
    <defs></defs>
    <g id="Page-1" stroke="none" stroke-width="1" fill="none" fill-rule="evenodd" sketch:type="MSPage">
        <g id="Imported-Layers" sketch:type="MSLayerGroup" fill="#FFFFFF">
            <path d="M4.93253333,22.16036 L11.22328,22.16036 L11.22328,23.15676 L4.93253333,23.15676 L4.93253333,22.16036 Z" id="Fill-1" sketch:type="MSShapeGroup"></path>
            <path d="M4.93253333,23.7835733 L16.01872,23.7835733 L16.01872,24.7799733 L4.93253333,24.7799733 L4.93253333,23.7835733 Z" id="Fill-2" sketch:type="MSShapeGroup"></path>
            <path d="M40.3655067,27.67872 L40.3655067,27.67872 C40.6495867,27.67872 40.9315467,27.63208 41.2050267,27.5437467 C41.8947333,27.3197333 42.4579467,26.8392 42.7865467,26.19048 C43.09536,25.5834533 43.16744,24.8986933 42.9879467,24.2450267 L40.23336,25.13896 L40.23336,22.24092 C39.98744,22.25152 39.76908,22.2932133 39.5266933,22.37024 C38.83628,22.5942533 38.2730667,23.07408 37.9444667,23.7199733 C37.6158667,24.3686933 37.55792,25.1057467 37.7819333,25.7933333 C38.1458667,26.9254133 39.1867867,27.67872 40.3655067,27.67872 L40.3655067,27.67872 Z" id="Fill-3" sketch:type="MSShapeGroup"></path>
            <path d="M40.49836,22.2458667 L40.49836,24.7799733 L42.9052667,23.99628 C42.5215467,22.9666667 41.59652,22.29604 40.49836,22.2458667 L40.49836,22.2458667 Z" id="Fill-4" sketch:type="MSShapeGroup"></path>
            <path d="M46.7368133,2.42952 L25.8731867,2.42952 L25.8731867,1.7278 C25.8731867,0.902413333 25.2053867,0.234613333 24.38,0.234613333 C23.5546133,0.234613333 22.8868133,0.902413333 22.8868133,1.7278 L22.8868133,2.42952 L2.02318667,2.42952 C1.1978,2.42952 0.53,3.09732 0.53,3.92270667 C0.53,4.71770667 1.15116,5.36077333 1.93485333,5.40741333 L1.93485333,30.6629733 C1.93485333,31.8247333 2.88178667,32.7716667 4.04425333,32.7716667 L21.97592,32.7716667 L13.5757733,41.1718133 C13.1864,41.56048 13.1864,42.19012 13.5757733,42.5794933 C13.7686933,42.7724133 14.02592,42.8720533 14.2796133,42.8720533 C14.5333067,42.8720533 14.7905333,42.77524 14.9834533,42.5794933 L23.3836,34.1793467 L23.3836,39.2970267 C23.3836,39.8468133 23.8280933,40.2941333 24.38,40.2941333 C24.92908,40.2941333 25.3764,39.84964 25.3764,39.2970267 L25.3764,34.1793467 L33.7765467,42.5794933 C33.9694667,42.7724133 34.2266933,42.8720533 34.4803867,42.8720533 C34.73408,42.8720533 34.9913067,42.77524 35.1842267,42.5794933 C35.5736,42.19012 35.5736,41.56048 35.1842267,41.1718133 L26.78408,32.7716667 L44.7157467,32.7716667 C45.8782133,32.7716667 46.8251467,31.8247333 46.8251467,30.6629733 L46.8251467,5.40458667 C47.60884,5.35794667 48.23,4.71488 48.23,3.91988 C48.23,3.09732 47.5622,2.42952 46.7368133,2.42952 L46.7368133,2.42952 Z M44.8344667,30.6629733 C44.8344667,30.7286933 44.7821733,30.7816933 44.7157467,30.7816933 L4.04425333,30.7816933 C3.97782667,30.7816933 3.92553333,30.7286933 3.92553333,30.6629733 L3.92553333,19.96616 L44.8372933,19.96616 L44.8372933,30.6629733 L44.8344667,30.6629733 Z M44.8344667,9.01565333 L41.1053867,14.79336 L36.55092,10.9392 L32.3964267,16.0074133 L27.4829733,11.58792 L23.9164267,16.81372 L21.2968133,12.92988 L19.03336,16.9932133 L12.5822,12.5518133 L6.81014667,18.0998533 L3.92836,14.4894933 L3.92836,5.41589333 L44.8372933,5.41589333 L44.8372933,9.01565333 L44.8344667,9.01565333 Z" id="Fill-5" sketch:type="MSShapeGroup"></path>
        </g>
        <g id="icon-graph" sketch:type="MSArtboardGroup"></g>
    </g>
</svg>