<?xml version="1.0" encoding="UTF-8" standalone="no"?>
<svg width="54px" height="56px" viewBox="0 0 54 56" version="1.1" xmlns="http://www.w3.org/2000/svg" xmlns:xlink="http://www.w3.org/1999/xlink" xmlns:sketch="http://www.bohemiancoding.com/sketch/ns">
    <!-- Generator: Sketch 3.2.2 (9983) - http://www.bohemiancoding.com/sketch -->
    <title>icon-calendar</title>
    <desc>Created with Sketch.</desc>
    <defs></defs>
    <g id="Page-1" stroke="none" stroke-width="1" fill="none" fill-rule="evenodd" sketch:type="MSPage">
        <g id="icon-calendar" sketch:type="MSArtboardGroup" fill="#FFFFFF">
            <g id="Imported-Layers" sketch:type="MSLayerGroup" transform="translate(0.000000, 2.000000)">
                <path d="M50.7274133,6.60092 L45.0673467,6.60092 L45.0673467,9.92537333 C45.3411067,10.3682667 45.5008,10.8906133 45.5008,11.4467867 C45.5008,13.06024 44.1949333,14.3661067 42.58148,14.3661067 C40.9680267,14.3661067 39.66216,13.06024 39.66216,11.4467867 C39.66216,10.8874667 39.8218533,10.3682667 40.0956133,9.92537333 L40.0956133,6.60092 L14.34408,6.60092 L14.34408,9.92537333 C14.61784,10.3682667 14.7775333,10.8906133 14.7775333,11.4467867 C14.7775333,13.06024 13.4716667,14.3661067 11.8582133,14.3661067 C10.24476,14.3661067 8.93889333,13.06024 8.93889333,11.4467867 C8.93889333,10.8874667 9.09858667,10.3682667 9.37234667,9.92537333 L9.37234667,6.60092 L3.55573333,6.60092 C1.91789333,6.60092 0.593146667,7.92802667 0.593146667,9.56272 L0.593146667,49.5780933 C0.593146667,51.2159333 1.92025333,52.54068 3.55573333,52.54068 L50.73056,52.54068 C52.3652533,52.54068 53.6931467,51.2135733 53.6931467,49.5780933 L53.6931467,9.56272 C53.69,7.92802667 52.3621067,6.60092 50.7274133,6.60092 L50.7274133,6.60092 Z M50.5126533,40.98376 L42.4367333,49.03136 L3.92389333,49.03136 L3.92389333,17.72124 L50.5095067,17.72124 L50.5095067,40.98376 L50.5126533,40.98376 Z" id="Fill-1" sketch:type="MSShapeGroup"></path>
                <path d="M26.37772,37.10864 C26.9401867,37.10864 27.5545733,36.9733333 27.82204,36.6539467 L27.8495733,36.68148 L22.07308,43.2603733 L27.1832667,43.2603733 L31.59568,38.0982667 C33.9218533,35.36932 34.7274,32.9353733 34.7274,30.7688933 C34.7274,26.6239467 31.3840667,24.1624667 27.3704933,24.1624667 C23.1696933,24.1624667 19.9860533,26.6483333 19.9860533,30.5816667 C19.9829067,34.1122267 22.0699333,37.10864 26.37772,37.10864 L26.37772,37.10864 Z M27.2595733,28.1201867 C28.97136,28.1201867 30.2040667,29.1892667 30.2040667,30.7964267 C30.2040667,32.3209867 29.0264267,33.4734533 27.2595733,33.4734533 C25.5761067,33.4734533 24.3158667,32.4035867 24.3158667,30.7964267 C24.3190133,29.2419733 25.4958667,28.1201867 27.2595733,28.1201867 L27.2595733,28.1201867 Z" id="Fill-2" sketch:type="MSShapeGroup"></path>
                <path d="M13.4653733,11.5758 C13.4653733,12.3837067 12.8108667,13.0382133 12.00296,13.0382133 L11.7111067,13.0382133 C10.9024133,13.0382133 10.2479067,12.3837067 10.2479067,11.5758 L10.2479067,1.62525333 C10.2479067,0.817346667 10.9024133,0.16284 11.7111067,0.16284 L12.00296,0.16284 C12.8108667,0.16284 13.4653733,0.817346667 13.4653733,1.62525333 L13.4653733,11.5758 Z" id="Fill-3" sketch:type="MSShapeGroup"></path>
                <path d="M44.19808,11.5758 C44.19808,12.3837067 43.5435733,13.0382133 42.73488,13.0382133 L42.4430267,13.0382133 C41.63512,13.0382133 40.9806133,12.3837067 40.9806133,11.5758 L40.9806133,1.62525333 C40.9806133,0.817346667 41.63512,0.16284 42.4430267,0.16284 L42.73488,0.16284 C43.5435733,0.16284 44.19808,0.817346667 44.19808,1.62525333 L44.19808,11.5758 Z" id="Fill-4" sketch:type="MSShapeGroup"></path>
            </g>
        </g>
    </g>
</svg>