<?xml version="1.0" encoding="UTF-8" standalone="no"?>
<svg width="56px" height="56px" viewBox="0 0 56 56" version="1.1" xmlns="http://www.w3.org/2000/svg" xmlns:xlink="http://www.w3.org/1999/xlink" xmlns:sketch="http://www.bohemiancoding.com/sketch/ns">
    <!-- Generator: Sketch 3.2.2 (9983) - http://www.bohemiancoding.com/sketch -->
    <title>icon-2</title>
    <desc>Created with Sketch.</desc>
    <defs></defs>
    <g id="Welcome" stroke="none" stroke-width="1" fill="none" fill-rule="evenodd" sketch:type="MSPage">
        <g id="Desktop-HD-2" sketch:type="MSArtboardGroup" transform="translate(-237.000000, -3903.000000)" fill="#FFFFFF">
            <g id="Polygon-18" sketch:type="MSLayerGroup" transform="translate(214.000000, 3882.000000)">
                <path d="M50.8871782,65.2862 L50.8871782,31.7492 C50.8871782,31.7492 58.2911782,32.237 63.9071782,34.1588 C63.9071782,34.1588 63.8387782,40.1612 63.8411782,46.1144 C63.8435782,54.4112 57.4829782,63.2918 50.8871782,64.9418 M66.6467782,31.9838 C59.8475782,29.654 51.3281782,29 50.8871782,29 C50.3975782,29 41.9249782,29.654 35.1281782,31.9838 C35.1281782,31.9838 35.1773782,39.2468 35.1749782,46.4564 C35.1725782,56.4992 42.9047782,67.121 50.8871782,69.1184 C58.8701782,67.121 66.5903782,56.4992 66.5879782,46.454 C66.5879782,39.2468 66.6467782,31.9838 66.6467782,31.9838" id="Imported-Layers" sketch:type="MSShapeGroup"></path>
            </g>
        </g>
        <g id="icon-2" sketch:type="MSArtboardGroup"></g>
    </g>
</svg>