<?xml version="1.0" encoding="iso-8859-1"?>
<!-- Generator: Adobe Illustrator 19.0.0, SVG Export Plug-In . SVG Version: 6.00 Build 0)  -->
<svg xmlns="http://www.w3.org/2000/svg" xmlns:xlink="http://www.w3.org/1999/xlink" version="1.1" id="Layer_1" x="0px" y="0px" viewBox="0 0 512.124 512.124" style="enable-background:new 0 0 512.124 512.124;" xml:space="preserve" width="512px" height="512px">
<g>
	<g>
		<path d="M330.345,54.757l-0.067-0.023l-0.058-0.051c-0.564-0.266-1.157-0.466-1.766-0.596c-0.441-0.19-0.897-0.344-1.363-0.46    c-0.707-0.052-1.417-0.014-2.115,0.114c-1.076-0.067-2.139,0.269-2.981,0.942c-0.384,0.153-0.756,0.335-1.112,0.544    c-0.457,0.406-0.871,0.859-1.233,1.352c-0.371,0.337-0.71,0.709-1.013,1.109l-0.024,0.067l-0.051,0.058l-47.194,81.804    c-8.536-3.491-18.019-3.907-26.828-1.178l-47.645-82.507c-0.327-0.457-0.7-0.879-1.114-1.259    c-0.325-0.446-0.692-0.861-1.095-1.239c-0.482-0.309-0.995-0.568-1.53-0.772c-0.956-0.681-2.132-0.98-3.297-0.837    c-0.445-0.068-0.895-0.099-1.346-0.094c-0.662,0.13-1.307,0.337-1.921,0.618c-0.429,0.1-0.849,0.235-1.256,0.404l-0.076,0.046    l-0.024,0.008l-0.023,0.02c-45.766,25.671-74.135,74.023-74.219,126.497c-0.001,4.712,3.817,8.532,8.529,8.533    c0.001,0,0.003,0,0.004,0h94.729c2.041,9.669,7.386,18.326,15.116,24.483l-47.261,81.842l-0.012,0.037l-0.029,0.033    c-0.228,0.513-0.402,1.048-0.52,1.596c-0.222,0.511-0.395,1.043-0.516,1.587c-0.013,0.52,0.023,1.039,0.108,1.552    c-0.134,1.06,0.14,2.131,0.765,2.997c0.213,0.577,0.489,1.128,0.823,1.644c0.308,0.316,0.64,0.609,0.992,0.875    c0.448,0.506,0.957,0.954,1.515,1.335l0.06,0.025l0.015,0.012c18.789,10.644,39.749,16.883,61.3,18.246    c3.15,0.179,6.308,0.267,9.45,0.267c26.097-0.019,51.707-7.071,74.135-20.415l0.023-0.01l0.01-0.009l0.09-0.049    c0.423-0.315,0.815-0.67,1.17-1.06c0.473-0.348,0.909-0.744,1.301-1.18c0.255-0.423,0.472-0.867,0.649-1.329    c0.663-0.879,0.971-1.974,0.864-3.07c0.1-0.597,0.134-1.202,0.102-1.806c-0.129-0.559-0.312-1.104-0.548-1.627    c-0.12-0.524-0.291-1.034-0.513-1.524l-0.057-0.097l-0.002-0.008l-0.004-0.005l-47.511-82.355    c6.149-5.949,10.364-13.611,12.095-21.99h94.729c4.712,0.001,8.532-3.817,8.533-8.529c0-0.002,0-0.003,0-0.004    C400.912,128.289,374.078,81.066,330.345,54.757z M241.745,158.091c8.644-5.822,19.955-5.822,28.599-0.001v0    c0.056,0.034,0.085,0.093,0.143,0.125l0.033,0.014c11.651,7.953,14.648,23.844,6.696,35.495c-1.796,2.631-4.068,4.903-6.7,6.698    l-0.029,0.009c-0.057,0.033-0.085,0.092-0.142,0.125c-11.727,7.898-27.636,4.794-35.534-6.933    C226.914,181.898,230.018,165.989,241.745,158.091z M214.258,170.791h-85.906c2.764-40.234,24.29-76.825,58.115-98.785    l42.907,74.302C221.644,152.465,216.299,161.121,214.258,170.791z M314.216,293.303c-18.005,9.201-37.934,14.006-58.154,14.021    c-2.825,0-5.65-0.079-8.4-0.237c-16.049-1.082-31.74-5.238-46.22-12.244l43.098-74.633c8.809,2.729,18.292,2.313,26.828-1.178    L314.216,293.303z M297.866,170.791c-1.731-8.378-5.946-16.041-12.095-21.99l43.083-74.681    c31.949,22.29,52.127,57.813,54.91,96.67H297.866z" fill="#000333"/>
	</g>
</g>
<g>
	<g>
		<path d="M354.937,451.39c-4.883-4.869-11.512-7.582-18.408-7.533h-46.333v-52.772c10.199-3.592,17.033-13.214,17.067-24.028    v-16.08c94.844-28.277,148.807-128.086,120.53-222.93S299.706-20.76,204.862,7.517S56.055,135.603,84.332,230.447    c17.273,57.936,62.594,103.257,120.53,120.53v16.08c0.033,10.813,6.868,20.435,17.067,24.027v52.773h-46.333    c-6.85-0.058-13.439,2.619-18.308,7.438l-32.65,31.625c-4.932,4.821-6.445,12.153-3.825,18.533    c2.673,6.494,9.019,10.716,16.042,10.671h238.417c7.022,0.045,13.369-4.177,16.042-10.671c2.623-6.405,1.089-13.761-3.875-18.583    L354.937,451.39z M290.195,367.057c-0.005,4.711-3.822,8.529-8.533,8.533h-51.2c-4.711-0.005-8.529-3.822-8.533-8.533v-11.884    c11.244,2.206,22.675,3.328,34.133,3.351c11.459-0.023,22.889-1.145,34.133-3.351V367.057z M273.129,392.657v68.267h-34.133    v-68.267H273.129z M93.929,179.324c0-89.544,72.59-162.133,162.133-162.133s162.133,72.59,162.133,162.133    s-72.59,162.133-162.133,162.133C166.56,341.356,94.03,268.826,93.929,179.324z M136.554,495.128l32.7-31.671    c1.691-1.657,3.974-2.569,6.342-2.533h46.333v8.533c-0.001,4.712,3.817,8.532,8.529,8.533c0.001,0,0.003,0,0.004,0h51.2    c4.712,0.001,8.532-3.817,8.533-8.529c0-0.001,0-0.003,0-0.004v-8.533h46.333c2.414-0.027,4.736,0.921,6.442,2.629l32.3,31.504    L136.554,495.128z" fill="#000333"/>
	</g>
</g>
<g>
</g>
<g>
</g>
<g>
</g>
<g>
</g>
<g>
</g>
<g>
</g>
<g>
</g>
<g>
</g>
<g>
</g>
<g>
</g>
<g>
</g>
<g>
</g>
<g>
</g>
<g>
</g>
<g>
</g>
</svg>
